<svg xmlns="http://www.w3.org/2000/svg" xmlns:xlink="http://www.w3.org/1999/xlink" width="364" zoomAndPan="magnify" viewBox="0 0 273 236.249991" height="315" preserveAspectRatio="xMidYMid meet" version="1.0"><defs><clipPath id="25b6f44986"><path d="M 0.433594 1 L 203 1 L 203 201.113281 L 0.433594 201.113281 Z M 0.433594 1 " clip-rule="nonzero"/></clipPath><clipPath id="de3397a090"><path d="M 183.59375 145 L 272.5625 145 L 272.5625 235 L 183.59375 235 Z M 183.59375 145 " clip-rule="nonzero"/></clipPath></defs><g clip-path="url(#25b6f44986)"><path fill="#ffffff" d="M 193.59375 81.800781 L 189.277344 47.503906 L 184.117188 6.5 C 183.59375 2.328125 178.535156 0.535156 175.5 3.445312 L 145.671875 32.046875 L 138.5 38.925781 C 127.09375 35.238281 114.683594 33.210938 101.699219 33.210938 C 88.875 33.210938 76.609375 35.1875 65.320312 38.789062 L 57.730469 31.515625 L 27.902344 2.914062 C 24.867188 0.00390625 19.808594 1.796875 19.285156 5.96875 L 14.125 46.972656 L 9.722656 81.957031 C 3.757812 92.652344 0.425781 104.5625 0.425781 117.117188 C 0.425781 163.457031 45.769531 201.019531 101.699219 201.019531 C 157.632812 201.019531 202.976562 163.457031 202.976562 117.117188 C 202.976562 104.5 199.613281 92.535156 193.59375 81.800781 Z M 193.59375 81.800781 " fill-opacity="1" fill-rule="nonzero"/></g><g clip-path="url(#de3397a090)"><path fill="#ffffff" d="M 217.648438 179.53125 L 217.648438 156.136719 C 217.648438 152.863281 218.542969 150.207031 220.332031 148.160156 C 222.125 146.0625 224.679688 145.015625 228.003906 145.015625 C 231.328125 145.015625 233.882812 146.0625 235.675781 148.160156 C 237.515625 150.207031 238.433594 152.863281 238.433594 156.136719 L 238.433594 179.53125 L 261.523438 179.53125 C 264.898438 179.53125 267.558594 180.453125 269.5 182.292969 C 271.496094 184.082031 272.492188 186.613281 272.492188 189.886719 C 272.492188 193.210938 271.496094 195.792969 269.5 197.632812 C 267.558594 199.476562 264.898438 200.394531 261.523438 200.394531 L 238.433594 200.394531 L 238.433594 223.714844 C 238.433594 227.035156 237.515625 229.722656 235.675781 231.765625 C 233.832031 233.8125 231.277344 234.835938 228.003906 234.835938 C 224.730469 234.835938 222.175781 233.8125 220.332031 231.765625 C 218.542969 229.722656 217.648438 227.035156 217.648438 223.714844 L 217.648438 200.394531 L 194.558594 200.394531 C 191.289062 200.394531 188.628906 199.398438 186.582031 197.402344 C 184.589844 195.359375 183.589844 192.851562 183.589844 189.886719 C 183.589844 186.613281 184.5625 184.082031 186.507812 182.292969 C 188.5 180.453125 191.183594 179.53125 194.558594 179.53125 Z M 217.648438 179.53125 " fill-opacity="1" fill-rule="nonzero"/></g></svg>