<svg xmlns="http://www.w3.org/2000/svg" xmlns:xlink="http://www.w3.org/1999/xlink" width="127" zoomAndPan="magnify" viewBox="0 0 95.25 95.249999" height="127" preserveAspectRatio="xMidYMid meet" version="1.0"><defs><clipPath id="deaf0914b3"><path d="M 3.382812 3.382812 L 90.449219 3.382812 L 90.449219 90.449219 L 3.382812 90.449219 Z M 3.382812 3.382812 " clip-rule="nonzero"/></clipPath></defs><g clip-path="url(#deaf0914b3)"><path fill="#ffffff" d="M 47.039062 3.382812 C 45.609375 3.382812 44.183594 3.453125 42.761719 3.59375 C 41.335938 3.734375 39.925781 3.945312 38.523438 4.222656 C 37.121094 4.503906 35.734375 4.847656 34.367188 5.265625 C 33 5.679688 31.652344 6.160156 30.332031 6.707031 C 29.011719 7.253906 27.722656 7.867188 26.460938 8.539062 C 25.199219 9.214844 23.976562 9.949219 22.785156 10.742188 C 21.597656 11.535156 20.449219 12.386719 19.34375 13.292969 C 18.238281 14.199219 17.179688 15.160156 16.171875 16.171875 C 15.160156 17.179688 14.199219 18.238281 13.292969 19.34375 C 12.386719 20.449219 11.535156 21.597656 10.742188 22.785156 C 9.949219 23.976562 9.214844 25.199219 8.539062 26.460938 C 7.867188 27.722656 7.253906 29.011719 6.707031 30.332031 C 6.160156 31.652344 5.679688 33 5.265625 34.367188 C 4.847656 35.734375 4.503906 37.121094 4.222656 38.523438 C 3.945312 39.925781 3.734375 41.335938 3.59375 42.761719 C 3.453125 44.183594 3.382812 45.609375 3.382812 47.039062 C 3.382812 48.46875 3.453125 49.894531 3.59375 51.316406 C 3.734375 52.742188 3.945312 54.152344 4.222656 55.554688 C 4.503906 56.957031 4.847656 58.34375 5.265625 59.710938 C 5.679688 61.078125 6.160156 62.421875 6.707031 63.746094 C 7.253906 65.066406 7.867188 66.355469 8.539062 67.617188 C 9.214844 68.878906 9.949219 70.101562 10.742188 71.292969 C 11.535156 72.480469 12.386719 73.628906 13.292969 74.734375 C 14.199219 75.839844 15.160156 76.894531 16.171875 77.90625 C 17.179688 78.917969 18.238281 79.878906 19.34375 80.785156 C 20.449219 81.691406 21.597656 82.542969 22.785156 83.335938 C 23.976562 84.128906 25.199219 84.863281 26.460938 85.539062 C 27.722656 86.210938 29.011719 86.824219 30.332031 87.371094 C 31.652344 87.917969 33 88.398438 34.367188 88.8125 C 35.734375 89.230469 37.121094 89.574219 38.523438 89.855469 C 39.925781 90.132812 41.335938 90.34375 42.761719 90.484375 C 44.183594 90.625 45.609375 90.691406 47.039062 90.691406 C 48.46875 90.691406 49.894531 90.625 51.316406 90.484375 C 52.742188 90.34375 54.152344 90.132812 55.554688 89.855469 C 56.957031 89.574219 58.34375 89.230469 59.710938 88.8125 C 61.078125 88.398438 62.421875 87.917969 63.746094 87.371094 C 65.066406 86.824219 66.355469 86.210938 67.617188 85.539062 C 68.878906 84.863281 70.101562 84.128906 71.292969 83.335938 C 72.480469 82.542969 73.628906 81.691406 74.734375 80.785156 C 75.839844 79.878906 76.894531 78.917969 77.90625 77.90625 C 78.917969 76.894531 79.878906 75.839844 80.785156 74.734375 C 81.691406 73.628906 82.542969 72.480469 83.335938 71.292969 C 84.128906 70.101562 84.863281 68.878906 85.539062 67.617188 C 86.210938 66.355469 86.824219 65.066406 87.371094 63.746094 C 87.917969 62.421875 88.398438 61.078125 88.8125 59.710938 C 89.230469 58.34375 89.574219 56.957031 89.855469 55.554688 C 90.132812 54.152344 90.34375 52.742188 90.484375 51.316406 C 90.625 49.894531 90.691406 48.46875 90.691406 47.039062 C 90.691406 45.609375 90.625 44.183594 90.484375 42.761719 C 90.34375 41.335938 90.132812 39.925781 89.855469 38.523438 C 89.574219 37.121094 89.230469 35.734375 88.8125 34.367188 C 88.398438 33 87.917969 31.652344 87.371094 30.332031 C 86.824219 29.011719 86.210938 27.722656 85.539062 26.460938 C 84.863281 25.199219 84.128906 23.976562 83.335938 22.785156 C 82.542969 21.597656 81.691406 20.449219 80.785156 19.34375 C 79.878906 18.238281 78.917969 17.179688 77.90625 16.171875 C 76.894531 15.160156 75.839844 14.199219 74.734375 13.292969 C 73.628906 12.386719 72.480469 11.535156 71.292969 10.742188 C 70.101562 9.949219 68.878906 9.214844 67.617188 8.539062 C 66.355469 7.867188 65.066406 7.253906 63.746094 6.707031 C 62.421875 6.160156 61.078125 5.679688 59.710938 5.265625 C 58.34375 4.847656 56.957031 4.503906 55.554688 4.222656 C 54.152344 3.945312 52.742188 3.734375 51.316406 3.59375 C 49.894531 3.453125 48.46875 3.382812 47.039062 3.382812 Z M 68.867188 52.496094 L 52.460938 52.496094 L 52.460938 68.867188 C 52.460938 69.222656 52.425781 69.578125 52.355469 69.929688 C 52.285156 70.28125 52.179688 70.625 52.042969 70.953125 C 51.90625 71.285156 51.738281 71.601562 51.539062 71.898438 C 51.339844 72.195312 51.113281 72.472656 50.859375 72.722656 C 50.609375 72.976562 50.332031 73.203125 50.035156 73.402344 C 49.734375 73.601562 49.421875 73.769531 49.089844 73.90625 C 48.757812 74.042969 48.417969 74.148438 48.066406 74.21875 C 47.714844 74.289062 47.359375 74.324219 47.003906 74.324219 C 46.644531 74.324219 46.289062 74.289062 45.9375 74.21875 C 45.585938 74.148438 45.246094 74.042969 44.914062 73.90625 C 44.582031 73.769531 44.269531 73.601562 43.972656 73.402344 C 43.671875 73.203125 43.398438 72.976562 43.144531 72.722656 C 42.890625 72.472656 42.664062 72.195312 42.464844 71.898438 C 42.265625 71.601562 42.097656 71.285156 41.960938 70.953125 C 41.824219 70.625 41.71875 70.28125 41.652344 69.929688 C 41.582031 69.578125 41.546875 69.222656 41.546875 68.867188 L 41.546875 52.496094 L 25.210938 52.496094 C 24.851562 52.496094 24.5 52.460938 24.148438 52.390625 C 23.796875 52.320312 23.453125 52.21875 23.125 52.082031 C 22.792969 51.941406 22.476562 51.773438 22.179688 51.574219 C 21.882812 51.378906 21.605469 51.152344 21.351562 50.898438 C 21.101562 50.644531 20.875 50.367188 20.675781 50.070312 C 20.476562 49.773438 20.308594 49.457031 20.171875 49.128906 C 20.035156 48.796875 19.929688 48.453125 19.859375 48.101562 C 19.789062 47.753906 19.753906 47.398438 19.753906 47.039062 C 19.753906 46.679688 19.789062 46.324219 19.859375 45.972656 C 19.929688 45.621094 20.035156 45.28125 20.171875 44.949219 C 20.308594 44.621094 20.476562 44.304688 20.675781 44.007812 C 20.875 43.710938 21.101562 43.433594 21.351562 43.179688 C 21.605469 42.925781 21.882812 42.699219 22.179688 42.5 C 22.476562 42.300781 22.792969 42.132812 23.125 41.996094 C 23.453125 41.859375 23.796875 41.757812 24.148438 41.6875 C 24.5 41.617188 24.851562 41.582031 25.210938 41.582031 L 41.546875 41.582031 L 41.546875 25.210938 C 41.546875 24.851562 41.582031 24.5 41.652344 24.148438 C 41.71875 23.796875 41.824219 23.453125 41.960938 23.125 C 42.097656 22.792969 42.265625 22.476562 42.464844 22.179688 C 42.664062 21.882812 42.890625 21.605469 43.144531 21.351562 C 43.398438 21.101562 43.671875 20.875 43.972656 20.675781 C 44.269531 20.476562 44.582031 20.308594 44.914062 20.171875 C 45.246094 20.035156 45.585938 19.929688 45.9375 19.859375 C 46.289062 19.789062 46.644531 19.753906 47.003906 19.753906 C 47.359375 19.753906 47.714844 19.789062 48.066406 19.859375 C 48.417969 19.929688 48.757812 20.035156 49.089844 20.171875 C 49.421875 20.308594 49.734375 20.476562 50.035156 20.675781 C 50.332031 20.875 50.609375 21.101562 50.859375 21.351562 C 51.113281 21.605469 51.339844 21.882812 51.539062 22.179688 C 51.738281 22.476562 51.90625 22.792969 52.042969 23.125 C 52.179688 23.453125 52.285156 23.796875 52.355469 24.148438 C 52.425781 24.5 52.460938 24.851562 52.460938 25.210938 L 52.460938 41.582031 L 68.867188 41.582031 C 69.222656 41.582031 69.578125 41.617188 69.929688 41.6875 C 70.28125 41.757812 70.625 41.859375 70.953125 41.996094 C 71.285156 42.132812 71.601562 42.300781 71.898438 42.5 C 72.195312 42.699219 72.472656 42.925781 72.722656 43.179688 C 72.976562 43.433594 73.203125 43.710938 73.402344 44.007812 C 73.601562 44.304688 73.769531 44.621094 73.90625 44.949219 C 74.042969 45.28125 74.148438 45.621094 74.21875 45.972656 C 74.289062 46.324219 74.324219 46.679688 74.324219 47.039062 C 74.324219 47.398438 74.289062 47.753906 74.21875 48.101562 C 74.148438 48.453125 74.042969 48.796875 73.90625 49.128906 C 73.769531 49.457031 73.601562 49.773438 73.402344 50.070312 C 73.203125 50.367188 72.976562 50.644531 72.722656 50.898438 C 72.472656 51.152344 72.195312 51.378906 71.898438 51.574219 C 71.601562 51.773438 71.285156 51.941406 70.953125 52.082031 C 70.625 52.21875 70.28125 52.320312 69.929688 52.390625 C 69.578125 52.460938 69.222656 52.496094 68.867188 52.496094 Z M 68.867188 52.496094 " fill-opacity="1" fill-rule="nonzero"/></g></svg>