<svg xmlns="http://www.w3.org/2000/svg" xmlns:xlink="http://www.w3.org/1999/xlink" width="209" zoomAndPan="magnify" viewBox="0 0 156.75 155.999997" height="208" preserveAspectRatio="xMidYMid meet" version="1.0"><defs><clipPath id="4d112dfa57"><path d="M 0 0.125 L 141.617188 0.125 L 141.617188 141.742188 L 0 141.742188 Z M 0 0.125 " clip-rule="nonzero"/></clipPath><clipPath id="3fec8b96b6"><path d="M 70.808594 0.125 C 31.703125 0.125 0 31.828125 0 70.933594 C 0 110.039062 31.703125 141.742188 70.808594 141.742188 C 109.917969 141.742188 141.617188 110.039062 141.617188 70.933594 C 141.617188 31.828125 109.917969 0.125 70.808594 0.125 Z M 70.808594 0.125 " clip-rule="nonzero"/></clipPath><clipPath id="18712ea7d1"><path d="M 0 0.125 L 141.617188 0.125 L 141.617188 141.742188 L 0 141.742188 Z M 0 0.125 " clip-rule="nonzero"/></clipPath><clipPath id="f6472e13d8"><path d="M 70.808594 0.125 C 31.703125 0.125 0 31.828125 0 70.933594 C 0 110.039062 31.703125 141.742188 70.808594 141.742188 C 109.917969 141.742188 141.617188 110.039062 141.617188 70.933594 C 141.617188 31.828125 109.917969 0.125 70.808594 0.125 Z M 70.808594 0.125 " clip-rule="nonzero"/></clipPath><clipPath id="393ad230fc"><rect x="0" width="142" y="0" height="142"/></clipPath><clipPath id="25a4e90e0b"><path d="M 18.113281 19 L 125 19 L 125 116 L 18.113281 116 Z M 18.113281 19 " clip-rule="nonzero"/></clipPath><clipPath id="627746bd08"><path d="M 85 84 L 156.5 84 L 156.5 155.875 L 85 155.875 Z M 85 84 " clip-rule="nonzero"/></clipPath><clipPath id="2c3930a4af"><path d="M 0.589844 0.90625 L 71.109375 0.90625 L 71.109375 71.425781 L 0.589844 71.425781 Z M 0.589844 0.90625 " clip-rule="nonzero"/></clipPath><clipPath id="d9bfb39bfa"><path d="M 35.851562 0.90625 C 16.375 0.90625 0.589844 16.691406 0.589844 36.164062 C 0.589844 55.640625 16.375 71.425781 35.851562 71.425781 C 55.324219 71.425781 71.109375 55.640625 71.109375 36.164062 C 71.109375 16.691406 55.324219 0.90625 35.851562 0.90625 Z M 35.851562 0.90625 " clip-rule="nonzero"/></clipPath><clipPath id="a7b4e66201"><path d="M 0.589844 0.90625 L 71.109375 0.90625 L 71.109375 71.425781 L 0.589844 71.425781 Z M 0.589844 0.90625 " clip-rule="nonzero"/></clipPath><clipPath id="1e7e7dfb85"><path d="M 35.851562 0.90625 C 16.375 0.90625 0.589844 16.691406 0.589844 36.164062 C 0.589844 55.640625 16.375 71.425781 35.851562 71.425781 C 55.324219 71.425781 71.109375 55.640625 71.109375 36.164062 C 71.109375 16.691406 55.324219 0.90625 35.851562 0.90625 Z M 35.851562 0.90625 " clip-rule="nonzero"/></clipPath><clipPath id="20c6366351"><rect x="0" width="72" y="0" height="72"/></clipPath><clipPath id="c03dbffdb5"><path d="M 4.019531 4.335938 L 67.890625 4.335938 L 67.890625 68 L 4.019531 68 Z M 4.019531 4.335938 " clip-rule="nonzero"/></clipPath><clipPath id="224c2cd262"><rect x="0" width="72" y="0" height="72"/></clipPath></defs><g clip-path="url(#4d112dfa57)"><g clip-path="url(#3fec8b96b6)"><g transform="matrix(1, 0, 0, 1, 0, 0.000000000000008979)"><g clip-path="url(#393ad230fc)"><g clip-path="url(#18712ea7d1)"><g clip-path="url(#f6472e13d8)"><path fill="#f51a01" d="M 0 0.125 L 141.617188 0.125 L 141.617188 141.742188 L 0 141.742188 Z M 0 0.125 " fill-opacity="1" fill-rule="nonzero"/></g></g></g></g></g></g><g clip-path="url(#25a4e90e0b)"><path fill="#fee4e4" d="M 47.519531 50.324219 C 46.808594 49.660156 45.976562 49.1875 45.382812 48.355469 C 44.371094 46.929688 44.0625 45.246094 44.460938 43.308594 C 44.699219 42.15625 45.78125 41.070312 47.046875 41.476562 C 48.6875 42.003906 50.003906 43.171875 51.398438 43.988281 C 51.441406 44.027344 51.484375 44.027344 51.527344 43.988281 C 51.539062 43.980469 51.542969 43.96875 51.550781 43.957031 C 51.558594 43.929688 51.550781 43.90625 51.527344 43.890625 C 50.585938 43.058594 49.832031 42.082031 49.273438 40.957031 C 48.710938 39.835938 48.382812 38.648438 48.285156 37.394531 C 48.097656 35.480469 48.550781 32.71875 50.6875 32.117188 C 50.855469 32.066406 51.011719 32.09375 51.152344 32.199219 C 52.691406 33.328125 53.734375 34.90625 55 36.253906 C 55.253906 36.523438 55.535156 36.761719 55.84375 36.96875 C 56.046875 37.101562 56.097656 37.058594 56.003906 36.832031 C 54.515625 33.363281 54.691406 29.910156 56.527344 26.472656 C 57.21875 25.171875 58.550781 23.75 60.15625 23.980469 C 60.28125 23.980469 60.402344 24.011719 60.515625 24.066406 C 60.628906 24.121094 60.722656 24.199219 60.804688 24.296875 C 60.882812 24.398438 60.9375 24.507812 60.964844 24.632812 C 60.996094 24.753906 60.996094 24.878906 60.96875 25 C 60.957031 25.207031 60.957031 25.414062 60.96875 25.621094 C 61.046875 27.570312 61.347656 29.484375 61.875 31.359375 C 62.519531 33.601562 62.71875 33.566406 62.476562 31.246094 C 62.023438 26.972656 63.601562 22.273438 67.140625 19.691406 C 68.257812 18.871094 69.511719 19.65625 69.429688 21.003906 C 69.21875 24.601562 68.78125 27.960938 69.753906 31.4375 C 69.761719 31.496094 69.789062 31.539062 69.839844 31.570312 C 69.875 31.582031 69.910156 31.582031 69.945312 31.570312 C 69.996094 31.554688 70.023438 31.519531 70.019531 31.46875 C 69.980469 29.945312 69.921875 28.34375 70.242188 26.921875 C 70.777344 24.574219 72.714844 20.21875 75.5625 19.933594 C 75.933594 19.882812 76.242188 20 76.480469 20.289062 C 76.742188 20.53125 76.859375 20.828125 76.839844 21.179688 C 76.339844 23.476562 76.039062 25.796875 75.9375 28.144531 C 75.734375 34.597656 76.789062 40.835938 79.097656 46.863281 C 81.304688 52.644531 83.453125 57.203125 87.371094 61.347656 C 87.429688 61.410156 87.507812 61.441406 87.59375 61.441406 C 87.679688 61.441406 87.757812 61.410156 87.816406 61.347656 C 87.832031 61.335938 87.847656 61.320312 87.855469 61.300781 C 89.417969 59.027344 91.023438 56.695312 92.679688 54.308594 C 93.328125 53.476562 94.039062 52.703125 94.816406 51.992188 C 98.265625 48.667969 102.273438 47.183594 106.851562 47.539062 C 108.207031 47.609375 109.503906 47.921875 110.742188 48.472656 C 111.980469 49.027344 113.078125 49.78125 114.035156 50.742188 C 115.019531 51.730469 117.164062 54.304688 118.554688 54.375 C 120.445312 54.4375 123.609375 54.90625 124.945312 56.34375 C 125.019531 56.414062 125.019531 56.488281 124.945312 56.558594 L 124.921875 56.582031 C 122.964844 57.648438 120.570312 57.800781 118.617188 58.484375 C 117.722656 58.800781 117.007812 59.492188 116.480469 60.566406 C 115.765625 62.117188 114.9375 63.605469 113.988281 65.03125 C 112.285156 67.433594 110.140625 69.875 109.125 72.664062 C 106.21875 80.65625 101.300781 86.824219 94.375 91.167969 C 85.671875 96.628906 76.074219 99.277344 65.578125 99.117188 C 63.867188 99.085938 62.164062 99.390625 60.433594 99.238281 C 57.976562 99.015625 54.894531 98.882812 52.734375 100.199219 C 45.507812 104.652344 39.136719 108.402344 33.625 111.453125 C 31.132812 112.820312 28.535156 113.945312 25.832031 114.839844 C 23.535156 115.605469 20.71875 116.460938 18.453125 115.371094 C 18.339844 115.316406 18.261719 115.230469 18.21875 115.113281 C 18.171875 115 18.175781 114.882812 18.222656 114.765625 C 18.628906 113.742188 20 112.800781 20.929688 112.152344 C 23.578125 110.25 26.320312 108.433594 29.148438 106.691406 C 36.105469 102.398438 42.53125 98.398438 48.421875 94.6875 C 52.023438 92.421875 55.4375 89.902344 58.667969 87.136719 C 59.601562 86.339844 60.460938 85.460938 61.234375 84.503906 C 61.402344 84.289062 61.359375 84.214844 61.085938 84.285156 C 59.636719 84.664062 57.464844 84.90625 56.359375 83.695312 C 56.253906 83.582031 56.21875 83.453125 56.246094 83.300781 L 56.300781 82.976562 C 56.339844 82.839844 56.289062 82.753906 56.148438 82.722656 C 55.109375 82.394531 54.199219 81.855469 53.417969 81.097656 C 52.984375 80.65625 52.792969 80.125 52.839844 79.511719 C 52.84375 79.304688 52.757812 79.144531 52.582031 79.039062 C 51.582031 78.460938 50.582031 78.25 49.851562 77.257812 C 49.203125 76.363281 49.566406 75.328125 50.398438 74.765625 C 50.53125 74.679688 50.515625 74.609375 50.359375 74.570312 C 49.722656 74.421875 49.15625 74.128906 48.664062 73.695312 C 48.171875 73.261719 47.8125 72.738281 47.582031 72.121094 C 47.523438 71.953125 47.523438 71.789062 47.582031 71.621094 L 47.957031 70.386719 C 47.976562 70.304688 48.027344 70.25 48.105469 70.222656 L 48.390625 70.113281 C 48.621094 70.023438 48.621094 69.9375 48.390625 69.859375 C 47.269531 69.460938 44.4375 67.757812 45.1875 66.144531 C 45.519531 65.328125 46.078125 64.71875 46.863281 64.320312 C 47.121094 64.203125 47.109375 64.117188 46.832031 64.070312 C 44.730469 63.691406 41.800781 61.460938 43.316406 58.996094 C 43.964844 57.863281 44.898438 57.078125 46.128906 56.640625 C 46.429688 56.53125 46.429688 56.425781 46.128906 56.3125 C 44.828125 55.839844 43.929688 54.828125 43.441406 53.285156 C 42.824219 51.371094 44.105469 50.007812 46.121094 50.234375 C 46.574219 50.285156 47.019531 50.378906 47.453125 50.519531 C 47.703125 50.582031 47.734375 50.539062 47.519531 50.324219 Z M 47.519531 50.324219 " fill-opacity="1" fill-rule="nonzero"/></g><g clip-path="url(#627746bd08)"><g transform="matrix(1, 0, 0, 1, 85, 84)"><g clip-path="url(#224c2cd262)"><g clip-path="url(#2c3930a4af)"><g clip-path="url(#d9bfb39bfa)"><g transform="matrix(1, 0, 0, 1, 0, 0.000000000000014211)"><g clip-path="url(#20c6366351)"><g clip-path="url(#a7b4e66201)"><g clip-path="url(#1e7e7dfb85)"><path fill="#ffffff" d="M 0.589844 0.90625 L 71.109375 0.90625 L 71.109375 71.425781 L 0.589844 71.425781 Z M 0.589844 0.90625 " fill-opacity="1" fill-rule="nonzero"/></g></g></g></g></g></g><g clip-path="url(#c03dbffdb5)"><path fill="#f51a01" d="M 35.839844 4.332031 C 18.292969 4.332031 4.015625 18.609375 4.015625 36.15625 C 4.015625 53.703125 18.292969 67.980469 35.839844 67.980469 C 53.386719 67.980469 67.664062 53.703125 67.664062 36.15625 C 67.664062 18.609375 53.386719 4.332031 35.839844 4.332031 Z M 35.839844 9.226562 C 50.738281 9.226562 62.765625 21.253906 62.765625 36.15625 C 62.765625 51.054688 50.738281 63.082031 35.839844 63.082031 C 20.9375 63.082031 8.910156 51.054688 8.910156 36.15625 C 8.910156 21.253906 20.9375 9.226562 35.839844 9.226562 Z M 35.824219 18.984375 C 35.5 18.992188 35.191406 19.058594 34.890625 19.1875 C 34.59375 19.316406 34.332031 19.496094 34.105469 19.726562 C 33.882812 19.960938 33.707031 20.226562 33.589844 20.527344 C 33.46875 20.828125 33.410156 21.144531 33.414062 21.46875 L 33.414062 44.167969 C 32.261719 43.09375 31.039062 42.0625 29.585938 41.320312 C 29.296875 41.171875 28.988281 41.082031 28.664062 41.058594 C 28.34375 41.03125 28.027344 41.066406 27.714844 41.167969 C 27.40625 41.265625 27.128906 41.421875 26.882812 41.632812 C 26.632812 41.84375 26.4375 42.09375 26.289062 42.382812 C 26.140625 42.671875 26.054688 42.976562 26.027344 43.300781 C 26 43.625 26.039062 43.941406 26.136719 44.25 C 26.238281 44.558594 26.390625 44.839844 26.601562 45.085938 C 26.8125 45.332031 27.0625 45.53125 27.351562 45.679688 C 29.808594 46.9375 31.796875 49.058594 32.964844 51.398438 C 32.96875 51.410156 32.976562 51.417969 32.980469 51.429688 C 33.566406 52.5625 34.761719 53.285156 35.984375 53.296875 C 37.203125 53.308594 38.539062 52.496094 39.066406 51.277344 C 40.015625 49.183594 41.972656 46.914062 44.363281 45.667969 C 44.660156 45.523438 44.917969 45.328125 45.132812 45.078125 C 45.347656 44.828125 45.507812 44.546875 45.609375 44.234375 C 45.714844 43.921875 45.75 43.601562 45.726562 43.273438 C 45.699219 42.945312 45.609375 42.632812 45.457031 42.339844 C 45.304688 42.046875 45.101562 41.796875 44.847656 41.585938 C 44.59375 41.375 44.308594 41.222656 43.992188 41.128906 C 43.675781 41.03125 43.355469 41.003906 43.027344 41.039062 C 42.699219 41.070312 42.390625 41.167969 42.101562 41.328125 C 40.636719 42.09375 39.4375 43.148438 38.3125 44.246094 L 38.3125 21.46875 C 38.316406 21.136719 38.253906 20.816406 38.132812 20.511719 C 38.007812 20.203125 37.828125 19.933594 37.59375 19.699219 C 37.359375 19.46875 37.089844 19.289062 36.78125 19.164062 C 36.472656 19.039062 36.15625 18.980469 35.824219 18.984375 Z M 35.824219 18.984375 " fill-opacity="1" fill-rule="nonzero"/></g></g></g></g></svg>