<svg xmlns="http://www.w3.org/2000/svg" xmlns:xlink="http://www.w3.org/1999/xlink" width="209" zoomAndPan="magnify" viewBox="0 0 156.75 155.999997" height="208" preserveAspectRatio="xMidYMid meet" version="1.0"><defs><clipPath id="5970dd8559"><path d="M 0 0.125 L 141.617188 0.125 L 141.617188 141.742188 L 0 141.742188 Z M 0 0.125 " clip-rule="nonzero"/></clipPath><clipPath id="85f4c9e5bd"><path d="M 70.808594 0.125 C 31.703125 0.125 0 31.828125 0 70.933594 C 0 110.039062 31.703125 141.742188 70.808594 141.742188 C 109.917969 141.742188 141.617188 110.039062 141.617188 70.933594 C 141.617188 31.828125 109.917969 0.125 70.808594 0.125 Z M 70.808594 0.125 " clip-rule="nonzero"/></clipPath><clipPath id="6d53de202f"><path d="M 0 0.125 L 141.617188 0.125 L 141.617188 141.742188 L 0 141.742188 Z M 0 0.125 " clip-rule="nonzero"/></clipPath><clipPath id="fab06bbaa5"><path d="M 70.808594 0.125 C 31.703125 0.125 0 31.828125 0 70.933594 C 0 110.039062 31.703125 141.742188 70.808594 141.742188 C 109.917969 141.742188 141.617188 110.039062 141.617188 70.933594 C 141.617188 31.828125 109.917969 0.125 70.808594 0.125 Z M 70.808594 0.125 " clip-rule="nonzero"/></clipPath><clipPath id="09c2ec28cc"><rect x="0" width="142" y="0" height="142"/></clipPath><clipPath id="33cec8486b"><path d="M 21.605469 35 L 121 35 L 121 101.445312 L 21.605469 101.445312 Z M 21.605469 35 " clip-rule="nonzero"/></clipPath><clipPath id="748a8317b2"><path d="M 85 84 L 156.5 84 L 156.5 155.875 L 85 155.875 Z M 85 84 " clip-rule="nonzero"/></clipPath><clipPath id="8dedf8946c"><path d="M 0.589844 0.90625 L 71.109375 0.90625 L 71.109375 71.425781 L 0.589844 71.425781 Z M 0.589844 0.90625 " clip-rule="nonzero"/></clipPath><clipPath id="fb3c4cf58c"><path d="M 35.851562 0.90625 C 16.375 0.90625 0.589844 16.691406 0.589844 36.164062 C 0.589844 55.640625 16.375 71.425781 35.851562 71.425781 C 55.324219 71.425781 71.109375 55.640625 71.109375 36.164062 C 71.109375 16.691406 55.324219 0.90625 35.851562 0.90625 Z M 35.851562 0.90625 " clip-rule="nonzero"/></clipPath><clipPath id="acf4f7c1c2"><path d="M 0.589844 0.90625 L 71.109375 0.90625 L 71.109375 71.425781 L 0.589844 71.425781 Z M 0.589844 0.90625 " clip-rule="nonzero"/></clipPath><clipPath id="214d813c5e"><path d="M 35.851562 0.90625 C 16.375 0.90625 0.589844 16.691406 0.589844 36.164062 C 0.589844 55.640625 16.375 71.425781 35.851562 71.425781 C 55.324219 71.425781 71.109375 55.640625 71.109375 36.164062 C 71.109375 16.691406 55.324219 0.90625 35.851562 0.90625 Z M 35.851562 0.90625 " clip-rule="nonzero"/></clipPath><clipPath id="87c5fcba91"><rect x="0" width="72" y="0" height="72"/></clipPath><clipPath id="b1b147dda6"><path d="M 4.019531 4.335938 L 67.890625 4.335938 L 67.890625 68 L 4.019531 68 Z M 4.019531 4.335938 " clip-rule="nonzero"/></clipPath><clipPath id="69630f2127"><rect x="0" width="72" y="0" height="72"/></clipPath></defs><g clip-path="url(#5970dd8559)"><g clip-path="url(#85f4c9e5bd)"><g transform="matrix(1, 0, 0, 1, 0, 0.000000000000008979)"><g clip-path="url(#09c2ec28cc)"><g clip-path="url(#6d53de202f)"><g clip-path="url(#fab06bbaa5)"><path fill="#f51a01" d="M 0 0.125 L 141.617188 0.125 L 141.617188 141.742188 L 0 141.742188 Z M 0 0.125 " fill-opacity="1" fill-rule="nonzero"/></g></g></g></g></g></g><g clip-path="url(#33cec8486b)"><path fill="#fee4e4" d="M 22.578125 74.03125 C 24.042969 73.515625 25.511719 73.003906 27 72.558594 C 28.308594 72.167969 29.636719 71.824219 30.984375 71.59375 C 31.164062 71.5625 31.339844 71.535156 31.515625 71.503906 C 31.59375 71.492188 31.667969 71.480469 31.746094 71.46875 C 31.757812 71.46875 31.800781 71.460938 31.832031 71.460938 C 31.847656 71.460938 31.855469 71.453125 31.863281 71.453125 C 32.207031 71.410156 32.550781 71.371094 32.898438 71.339844 C 33.570312 71.285156 34.246094 71.261719 34.917969 71.269531 C 35.253906 71.277344 35.597656 71.296875 35.933594 71.320312 C 36.097656 71.332031 36.253906 71.34375 36.417969 71.367188 C 36.503906 71.375 36.59375 71.386719 36.675781 71.394531 C 36.695312 71.394531 36.710938 71.398438 36.730469 71.398438 C 36.746094 71.398438 36.765625 71.40625 36.777344 71.40625 C 36.761719 71.40625 36.746094 71.398438 36.730469 71.398438 C 36.703125 71.394531 36.6875 71.394531 36.777344 71.40625 C 36.777344 71.40625 36.777344 71.40625 36.78125 71.40625 C 37.019531 71.441406 37.257812 71.472656 37.492188 71.519531 C 37.429688 72.582031 37.277344 73.640625 37.011719 74.675781 C 34.753906 75.433594 32.566406 76.433594 30.519531 77.648438 C 28.308594 78.960938 26.242188 80.53125 24.394531 82.3125 C 24.109375 82.589844 24.144531 83.046875 24.402344 83.324219 C 24.667969 83.609375 25.144531 83.582031 25.410156 83.320312 C 25.921875 82.828125 26.445312 82.351562 26.992188 81.890625 C 27.265625 81.664062 27.535156 81.441406 27.8125 81.21875 C 27.84375 81.195312 27.957031 81.109375 27.941406 81.121094 C 28.003906 81.074219 28.058594 81.03125 28.117188 80.984375 C 28.253906 80.875 28.398438 80.773438 28.542969 80.667969 C 30.546875 79.1875 32.722656 77.949219 35.011719 76.957031 C 35.023438 76.953125 35.03125 76.949219 35.042969 76.941406 C 35.046875 76.941406 35.050781 76.9375 35.0625 76.933594 C 35.085938 76.921875 35.117188 76.910156 35.140625 76.898438 C 35.214844 76.867188 35.285156 76.839844 35.359375 76.808594 C 35.496094 76.753906 35.632812 76.695312 35.769531 76.640625 C 36.011719 76.546875 36.253906 76.453125 36.503906 76.363281 C 35.230469 80.339844 34.914062 83.601562 37.097656 87.519531 C 41.167969 94.8125 49.460938 98.308594 57.179688 100.03125 C 60.953125 100.875 64.808594 101.320312 68.667969 101.480469 C 69.441406 101.507812 70.21875 101.527344 70.992188 101.539062 C 71.066406 101.539062 71.140625 101.539062 71.21875 101.539062 C 71.292969 101.539062 71.367188 101.539062 71.445312 101.539062 C 72.226562 101.527344 72.996094 101.507812 73.769531 101.480469 C 77.632812 101.324219 81.484375 100.875 85.257812 100.03125 C 92.976562 98.308594 101.269531 94.804688 105.339844 87.519531 C 107.527344 83.605469 107.207031 80.339844 105.933594 76.363281 C 106.183594 76.453125 106.425781 76.546875 106.667969 76.640625 C 106.808594 76.695312 106.941406 76.75 107.078125 76.808594 C 107.152344 76.839844 107.222656 76.867188 107.296875 76.898438 C 107.328125 76.910156 107.351562 76.921875 107.375 76.933594 C 107.382812 76.9375 107.390625 76.9375 107.398438 76.941406 C 107.40625 76.949219 107.410156 76.953125 107.425781 76.957031 C 109.714844 77.953125 111.890625 79.191406 113.894531 80.667969 C 114.039062 80.773438 114.179688 80.882812 114.320312 80.984375 C 114.382812 81.03125 114.4375 81.074219 114.496094 81.121094 C 114.480469 81.109375 114.59375 81.195312 114.625 81.21875 C 114.902344 81.4375 115.179688 81.664062 115.445312 81.890625 C 115.988281 82.347656 116.515625 82.824219 117.027344 83.320312 C 117.292969 83.578125 117.769531 83.609375 118.039062 83.324219 C 118.296875 83.046875 118.328125 82.589844 118.042969 82.3125 C 116.191406 80.53125 114.128906 78.960938 111.917969 77.648438 C 109.867188 76.429688 107.683594 75.433594 105.425781 74.675781 C 105.164062 73.640625 105.007812 72.582031 104.945312 71.519531 C 105.183594 71.480469 105.421875 71.441406 105.65625 71.40625 C 105.65625 71.40625 105.65625 71.40625 105.664062 71.40625 C 105.671875 71.40625 105.691406 71.398438 105.707031 71.398438 C 105.726562 71.398438 105.742188 71.394531 105.761719 71.394531 C 105.847656 71.386719 105.933594 71.375 106.019531 71.367188 C 106.183594 71.351562 106.339844 71.335938 106.503906 71.320312 C 106.84375 71.296875 107.179688 71.28125 107.519531 71.269531 C 108.195312 71.257812 108.867188 71.28125 109.542969 71.339844 C 109.886719 71.371094 110.234375 71.410156 110.578125 71.453125 C 110.578125 71.453125 110.59375 71.453125 110.605469 71.460938 C 110.632812 71.464844 110.679688 71.46875 110.691406 71.46875 C 110.769531 71.480469 110.84375 71.492188 110.921875 71.503906 C 111.101562 71.535156 111.28125 71.558594 111.453125 71.59375 C 112.800781 71.832031 114.128906 72.167969 115.4375 72.558594 C 116.925781 73.003906 118.394531 73.515625 119.859375 74.03125 C 120.210938 74.152344 120.65625 73.898438 120.742188 73.535156 C 120.835938 73.140625 120.625 72.785156 120.246094 72.652344 C 117.601562 71.726562 114.9375 70.796875 112.171875 70.277344 C 109.769531 69.820312 107.328125 69.707031 104.917969 70.082031 C 104.917969 70.078125 104.917969 70.074219 104.917969 70.074219 C 104.925781 69.871094 104.910156 69.667969 104.886719 69.457031 C 105.0625 69.328125 105.242188 69.207031 105.421875 69.078125 C 106.78125 68.136719 108.222656 67.3125 109.726562 66.621094 C 109.910156 66.535156 110.089844 66.449219 110.28125 66.371094 C 110.363281 66.335938 110.449219 66.296875 110.53125 66.261719 C 110.582031 66.242188 110.632812 66.21875 110.679688 66.199219 C 110.707031 66.1875 110.730469 66.179688 110.742188 66.171875 C 111.121094 66.015625 111.507812 65.867188 111.898438 65.726562 C 112.675781 65.449219 113.46875 65.203125 114.265625 64.988281 C 115.152344 64.757812 116.054688 64.5625 116.960938 64.421875 C 117.183594 64.386719 117.410156 64.347656 117.636719 64.320312 C 117.652344 64.320312 117.664062 64.316406 117.675781 64.316406 C 117.738281 64.304688 117.804688 64.300781 117.867188 64.292969 C 117.976562 64.277344 118.085938 64.265625 118.195312 64.257812 C 118.671875 64.207031 119.148438 64.167969 119.628906 64.144531 C 120 64.121094 120.359375 63.832031 120.347656 63.429688 C 120.332031 63.058594 120.035156 62.691406 119.632812 62.710938 C 116.175781 62.894531 112.792969 63.722656 109.621094 65.105469 C 107.832031 65.882812 106.117188 66.847656 104.511719 67.96875 C 104.285156 67.359375 103.988281 66.757812 103.667969 66.21875 C 102.179688 63.65625 102.125 61.097656 102.726562 58.308594 C 103.949219 52.519531 103.726562 46.609375 103.308594 40.800781 C 102.949219 35.660156 100.730469 34.800781 96.195312 37.335938 C 92.589844 39.375 89.730469 42.316406 86.914062 45.253906 C 84.90625 47.363281 82.691406 47.972656 79.902344 47.378906 C 77.871094 46.9375 75.828125 46.644531 73.78125 46.511719 C 73.039062 46.460938 72.292969 46.433594 71.550781 46.429688 C 71.441406 46.429688 71.339844 46.429688 71.230469 46.429688 C 71.121094 46.429688 71.015625 46.429688 70.90625 46.429688 C 70.164062 46.433594 69.421875 46.460938 68.679688 46.511719 C 66.632812 46.644531 64.589844 46.9375 62.554688 47.378906 C 59.769531 47.976562 57.550781 47.363281 55.546875 45.253906 C 52.71875 42.328125 49.859375 39.382812 46.253906 37.347656 C 41.71875 34.8125 39.5 35.667969 39.136719 40.808594 C 38.71875 46.621094 38.5 52.53125 39.722656 58.316406 C 40.324219 61.101562 40.269531 63.664062 38.78125 66.226562 C 38.460938 66.769531 38.164062 67.363281 37.933594 67.976562 C 36.335938 66.855469 34.621094 65.890625 32.828125 65.113281 C 29.65625 63.730469 26.273438 62.902344 22.816406 62.722656 C 22.414062 62.699219 22.117188 63.066406 22.101562 63.4375 C 22.085938 63.839844 22.449219 64.132812 22.820312 64.152344 C 23.296875 64.175781 23.777344 64.210938 24.253906 64.265625 C 24.363281 64.277344 24.46875 64.292969 24.578125 64.300781 C 24.644531 64.3125 24.707031 64.316406 24.773438 64.324219 C 24.78125 64.324219 24.796875 64.332031 24.8125 64.332031 C 25.035156 64.355469 25.261719 64.394531 25.484375 64.429688 C 26.390625 64.574219 27.292969 64.765625 28.179688 65 C 28.976562 65.210938 29.769531 65.457031 30.546875 65.738281 C 30.941406 65.875 31.320312 66.023438 31.707031 66.183594 C 31.71875 66.1875 31.742188 66.199219 31.765625 66.207031 C 31.816406 66.226562 31.867188 66.253906 31.914062 66.273438 C 32 66.308594 32.085938 66.347656 32.167969 66.382812 C 32.351562 66.460938 32.539062 66.546875 32.722656 66.628906 C 34.222656 67.324219 35.664062 68.144531 37.027344 69.085938 C 37.207031 69.210938 37.386719 69.339844 37.5625 69.46875 C 37.539062 69.675781 37.523438 69.882812 37.527344 70.082031 C 37.527344 70.085938 37.527344 70.09375 37.527344 70.09375 C 35.121094 69.714844 32.679688 69.835938 30.277344 70.285156 C 27.511719 70.804688 24.847656 71.738281 22.203125 72.664062 C 21.824219 72.796875 21.613281 73.148438 21.707031 73.546875 C 21.78125 73.890625 22.226562 74.152344 22.578125 74.03125 Z M 22.578125 74.03125 " fill-opacity="1" fill-rule="nonzero"/></g><g clip-path="url(#748a8317b2)"><g transform="matrix(1, 0, 0, 1, 85, 84)"><g clip-path="url(#69630f2127)"><g clip-path="url(#8dedf8946c)"><g clip-path="url(#fb3c4cf58c)"><g transform="matrix(1, 0, 0, 1, 0, 0.000000000000014211)"><g clip-path="url(#87c5fcba91)"><g clip-path="url(#acf4f7c1c2)"><g clip-path="url(#214d813c5e)"><path fill="#ffffff" d="M 0.589844 0.90625 L 71.109375 0.90625 L 71.109375 71.425781 L 0.589844 71.425781 Z M 0.589844 0.90625 " fill-opacity="1" fill-rule="nonzero"/></g></g></g></g></g></g><g clip-path="url(#b1b147dda6)"><path fill="#f51a01" d="M 35.839844 4.332031 C 18.292969 4.332031 4.015625 18.609375 4.015625 36.15625 C 4.015625 53.703125 18.292969 67.980469 35.839844 67.980469 C 53.386719 67.980469 67.664062 53.703125 67.664062 36.15625 C 67.664062 18.609375 53.386719 4.332031 35.839844 4.332031 Z M 35.839844 9.226562 C 50.738281 9.226562 62.765625 21.253906 62.765625 36.15625 C 62.765625 51.054688 50.738281 63.082031 35.839844 63.082031 C 20.9375 63.082031 8.910156 51.054688 8.910156 36.15625 C 8.910156 21.253906 20.9375 9.226562 35.839844 9.226562 Z M 35.824219 18.984375 C 35.5 18.992188 35.191406 19.058594 34.890625 19.1875 C 34.59375 19.316406 34.332031 19.496094 34.105469 19.726562 C 33.882812 19.960938 33.707031 20.226562 33.589844 20.527344 C 33.46875 20.828125 33.410156 21.144531 33.414062 21.46875 L 33.414062 44.167969 C 32.261719 43.09375 31.039062 42.0625 29.585938 41.320312 C 29.296875 41.171875 28.988281 41.082031 28.664062 41.058594 C 28.34375 41.03125 28.027344 41.066406 27.714844 41.167969 C 27.40625 41.265625 27.128906 41.421875 26.882812 41.632812 C 26.632812 41.84375 26.4375 42.09375 26.289062 42.382812 C 26.140625 42.671875 26.054688 42.976562 26.027344 43.300781 C 26 43.625 26.039062 43.941406 26.136719 44.25 C 26.238281 44.558594 26.390625 44.839844 26.601562 45.085938 C 26.8125 45.332031 27.0625 45.53125 27.351562 45.679688 C 29.808594 46.9375 31.796875 49.058594 32.964844 51.398438 C 32.96875 51.410156 32.976562 51.417969 32.980469 51.429688 C 33.566406 52.5625 34.761719 53.285156 35.984375 53.296875 C 37.203125 53.308594 38.539062 52.496094 39.066406 51.277344 C 40.015625 49.183594 41.972656 46.914062 44.363281 45.667969 C 44.660156 45.523438 44.917969 45.328125 45.132812 45.078125 C 45.347656 44.828125 45.507812 44.546875 45.609375 44.234375 C 45.714844 43.921875 45.75 43.601562 45.726562 43.273438 C 45.699219 42.945312 45.609375 42.632812 45.457031 42.339844 C 45.304688 42.046875 45.101562 41.796875 44.847656 41.585938 C 44.59375 41.375 44.308594 41.222656 43.992188 41.128906 C 43.675781 41.03125 43.355469 41.003906 43.027344 41.039062 C 42.699219 41.070312 42.390625 41.167969 42.101562 41.328125 C 40.636719 42.09375 39.4375 43.148438 38.3125 44.246094 L 38.3125 21.46875 C 38.316406 21.136719 38.253906 20.816406 38.132812 20.511719 C 38.007812 20.203125 37.828125 19.933594 37.59375 19.699219 C 37.359375 19.46875 37.089844 19.289062 36.78125 19.164062 C 36.472656 19.039062 36.15625 18.980469 35.824219 18.984375 Z M 35.824219 18.984375 " fill-opacity="1" fill-rule="nonzero"/></g></g></g></g></svg>