<svg xmlns="http://www.w3.org/2000/svg" xmlns:xlink="http://www.w3.org/1999/xlink" width="395" zoomAndPan="magnify" viewBox="0 0 296.25 296.249993" height="395" preserveAspectRatio="xMidYMid meet" version="1.0"><defs><clipPath id="9ccac515d0"><path d="M 0 0 L 295.210938 0 L 295.210938 295.210938 L 0 295.210938 Z M 0 0 " clip-rule="nonzero"/></clipPath><clipPath id="c0048b4fa2"><path d="M 147.605469 0 C 66.085938 0 0 66.085938 0 147.605469 C 0 229.125 66.085938 295.210938 147.605469 295.210938 C 229.125 295.210938 295.210938 229.125 295.210938 147.605469 C 295.210938 66.085938 229.125 0 147.605469 0 Z M 147.605469 0 " clip-rule="nonzero"/></clipPath><clipPath id="e23973f2c6"><path d="M 27.910156 27.910156 L 267.304688 27.910156 L 267.304688 267.304688 L 27.910156 267.304688 Z M 27.910156 27.910156 " clip-rule="nonzero"/></clipPath></defs><g clip-path="url(#9ccac515d0)"><g clip-path="url(#c0048b4fa2)"><path stroke-linecap="butt" transform="matrix(0.748106, 0, 0, 0.748106, 0.0000035, 0.000000000000021262)" fill="none" stroke-linejoin="miter" d="M 197.305559 -0.000000000000028422 C 88.337665 -0.000000000000028422 -0.00000467848 88.33767 -0.00000467848 197.305563 C -0.00000467848 306.273457 88.337665 394.611127 197.305559 394.611127 C 306.273453 394.611127 394.611122 306.273457 394.611122 197.305563 C 394.611122 88.33767 306.273453 -0.000000000000028422 197.305559 -0.000000000000028422 Z M 197.305559 -0.000000000000028422 " stroke="#ffffff" stroke-width="88" stroke-opacity="1" stroke-miterlimit="4"/></g></g><g clip-path="url(#e23973f2c6)"><path fill="#ffffff" d="M 267.304688 147.609375 C 267.304688 213.714844 213.714844 267.304688 147.609375 267.304688 C 81.5 267.304688 27.910156 213.714844 27.910156 147.609375 C 27.910156 81.5 81.5 27.910156 147.609375 27.910156 C 213.714844 27.910156 267.304688 81.5 267.304688 147.609375 Z M 110.261719 165.195312 L 86.027344 140.957031 C 85.328125 140.257812 84.570312 139.636719 83.75 139.089844 C 82.925781 138.539062 82.0625 138.078125 81.148438 137.699219 C 80.238281 137.320312 79.296875 137.035156 78.328125 136.84375 C 77.363281 136.652344 76.382812 136.554688 75.398438 136.554688 C 74.410156 136.554688 73.433594 136.652344 72.464844 136.84375 C 71.496094 137.035156 70.558594 137.320312 69.644531 137.699219 C 68.734375 138.078125 67.867188 138.539062 67.046875 139.089844 C 66.226562 139.636719 65.464844 140.257812 64.769531 140.957031 C 64.070312 141.65625 63.445312 142.414062 62.898438 143.234375 C 62.347656 144.054688 61.886719 144.921875 61.507812 145.832031 C 61.128906 146.746094 60.84375 147.683594 60.652344 148.652344 C 60.457031 149.621094 60.363281 150.597656 60.363281 151.585938 C 60.363281 152.574219 60.457031 153.550781 60.652344 154.519531 C 60.84375 155.488281 61.128906 156.425781 61.507812 157.339844 C 61.886719 158.25 62.347656 159.117188 62.898438 159.9375 C 63.445312 160.757812 64.070312 161.519531 64.769531 162.214844 L 99.632812 197.085938 L 110.261719 207.714844 C 110.960938 208.414062 111.71875 209.035156 112.542969 209.585938 C 113.363281 210.132812 114.226562 210.59375 115.140625 210.972656 C 116.050781 211.351562 116.992188 211.636719 117.960938 211.828125 C 118.929688 212.019531 119.90625 212.117188 120.894531 212.117188 C 121.882812 212.117188 122.859375 212.019531 123.828125 211.828125 C 124.796875 211.636719 125.734375 211.351562 126.648438 210.972656 C 127.558594 210.59375 128.425781 210.132812 129.246094 209.585938 C 130.066406 209.035156 130.828125 208.414062 131.523438 207.714844 L 142.15625 197.085938 L 230.460938 108.757812 C 231.160156 108.0625 231.785156 107.300781 232.332031 106.480469 C 232.882812 105.660156 233.34375 104.792969 233.722656 103.882812 C 234.101562 102.972656 234.386719 102.03125 234.578125 101.0625 C 234.773438 100.09375 234.867188 99.117188 234.867188 98.128906 C 234.867188 97.144531 234.773438 96.164062 234.578125 95.195312 C 234.386719 94.230469 234.101562 93.289062 233.722656 92.375 C 233.34375 91.464844 232.882812 90.597656 232.332031 89.777344 C 231.785156 88.957031 231.160156 88.199219 230.460938 87.5 C 229.765625 86.804688 229.003906 86.179688 228.183594 85.632812 C 227.363281 85.082031 226.496094 84.621094 225.585938 84.242188 C 224.671875 83.867188 223.734375 83.582031 222.765625 83.386719 C 221.796875 83.195312 220.820312 83.097656 219.832031 83.097656 C 218.847656 83.097656 217.867188 83.195312 216.902344 83.386719 C 215.933594 83.582031 214.992188 83.867188 214.082031 84.242188 C 213.167969 84.621094 212.300781 85.082031 211.480469 85.632812 C 210.660156 86.179688 209.902344 86.804688 209.203125 87.5 L 131.511719 165.195312 C 130.8125 165.890625 130.054688 166.511719 129.234375 167.058594 C 128.414062 167.609375 127.546875 168.070312 126.636719 168.445312 C 125.722656 168.824219 124.785156 169.109375 123.816406 169.300781 C 122.851562 169.492188 121.871094 169.589844 120.886719 169.589844 C 119.902344 169.589844 118.921875 169.492188 117.957031 169.300781 C 116.988281 169.109375 116.050781 168.824219 115.136719 168.445312 C 114.226562 168.070312 113.359375 167.609375 112.539062 167.058594 C 111.71875 166.511719 110.960938 165.890625 110.261719 165.195312 Z M 110.261719 165.195312 " fill-opacity="1" fill-rule="nonzero"/></g></svg>