<svg xmlns="http://www.w3.org/2000/svg" xmlns:xlink="http://www.w3.org/1999/xlink" width="229" zoomAndPan="magnify" viewBox="0 0 171.75 171.750001" height="229" preserveAspectRatio="xMidYMid meet" version="1.0"><path fill="#ffffff" d="M 39.996094 16 L 85.710938 61.710938 L 131.421875 16 C 147.417969 0 171.417969 24 155.417969 39.996094 L 109.707031 85.710938 L 155.417969 131.421875 C 171.417969 147.417969 147.417969 171.417969 131.421875 155.417969 L 85.710938 109.707031 L 39.996094 155.417969 C 24 171.417969 0 147.417969 16 131.421875 L 61.710938 85.710938 L 16 39.996094 C 0 24 24 0 39.996094 16 Z M 39.996094 16 " fill-opacity="1" fill-rule="evenodd"/><path fill="#ffffff" d="M 79.242188 75.847656 L 85.707031 82.3125 L 92.175781 75.847656 C 94.4375 73.585938 97.832031 76.980469 95.570312 79.242188 L 89.101562 85.707031 L 95.570312 92.175781 C 97.832031 94.4375 94.4375 97.832031 92.175781 95.570312 L 85.707031 89.101562 L 79.242188 95.570312 C 76.980469 97.832031 73.585938 94.4375 75.847656 92.175781 L 82.3125 85.707031 L 75.847656 79.242188 C 73.585938 76.980469 76.980469 73.585938 79.242188 75.847656 Z M 79.242188 75.847656 " fill-opacity="1" fill-rule="evenodd"/></svg>