<svg xmlns="http://www.w3.org/2000/svg" xmlns:xlink="http://www.w3.org/1999/xlink" width="127" zoomAndPan="magnify" viewBox="0 0 95.25 95.249999" height="127" preserveAspectRatio="xMidYMid meet" version="1.0"><defs><clipPath id="ca44ffde4b"><path d="M 12.742188 4.167969 L 81.203125 4.167969 L 81.203125 89.746094 L 12.742188 89.746094 Z M 12.742188 4.167969 " clip-rule="nonzero"/></clipPath></defs><g clip-path="url(#ca44ffde4b)"><path fill="#ffffff" d="M 81.332031 14.886719 L 81.332031 19.171875 C 81.332031 20.355469 80.371094 21.316406 79.1875 21.316406 L 14.886719 21.316406 C 13.703125 21.316406 12.742188 20.355469 12.742188 19.171875 L 12.742188 14.886719 C 12.742188 13.703125 13.703125 12.742188 14.886719 12.742188 L 34.175781 12.742188 L 34.175781 8.457031 C 34.175781 6.089844 36.09375 4.167969 38.464844 4.167969 L 55.609375 4.167969 C 57.976562 4.167969 59.898438 6.089844 59.898438 8.457031 L 59.898438 12.742188 L 79.1875 12.742188 C 80.371094 12.742188 81.332031 13.703125 81.332031 14.886719 Z M 20.757812 81.933594 C 21.074219 86.429688 24.820312 89.917969 29.332031 89.90625 L 64.828125 89.90625 C 69.335938 89.917969 73.085938 86.429688 73.402344 81.933594 L 77.042969 29.890625 L 17.027344 29.890625 Z M 20.757812 81.933594 " fill-opacity="1" fill-rule="nonzero"/></g></svg>