<svg xmlns="http://www.w3.org/2000/svg" xmlns:xlink="http://www.w3.org/1999/xlink" width="209" zoomAndPan="magnify" viewBox="0 0 156.75 155.999997" height="208" preserveAspectRatio="xMidYMid meet" version="1.0"><defs><clipPath id="8ecd1ad607"><path d="M 0 0.125 L 141.617188 0.125 L 141.617188 141.742188 L 0 141.742188 Z M 0 0.125 " clip-rule="nonzero"/></clipPath><clipPath id="9fb5b84280"><path d="M 70.808594 0.125 C 31.703125 0.125 0 31.828125 0 70.933594 C 0 110.039062 31.703125 141.742188 70.808594 141.742188 C 109.917969 141.742188 141.617188 110.039062 141.617188 70.933594 C 141.617188 31.828125 109.917969 0.125 70.808594 0.125 Z M 70.808594 0.125 " clip-rule="nonzero"/></clipPath><clipPath id="b9d9882578"><path d="M 0 0.125 L 141.617188 0.125 L 141.617188 141.742188 L 0 141.742188 Z M 0 0.125 " clip-rule="nonzero"/></clipPath><clipPath id="53174b3585"><path d="M 70.808594 0.125 C 31.703125 0.125 0 31.828125 0 70.933594 C 0 110.039062 31.703125 141.742188 70.808594 141.742188 C 109.917969 141.742188 141.617188 110.039062 141.617188 70.933594 C 141.617188 31.828125 109.917969 0.125 70.808594 0.125 Z M 70.808594 0.125 " clip-rule="nonzero"/></clipPath><clipPath id="e0e7bea194"><rect x="0" width="142" y="0" height="142"/></clipPath><clipPath id="d552904599"><path d="M 28.953125 37.5625 L 87 37.5625 L 87 105.703125 L 28.953125 105.703125 Z M 28.953125 37.5625 " clip-rule="nonzero"/></clipPath><clipPath id="be0fc67e51"><path d="M 55 37.5625 L 112.820312 37.5625 L 112.820312 105.703125 L 55 105.703125 Z M 55 37.5625 " clip-rule="nonzero"/></clipPath><clipPath id="bd6eedcde8"><path d="M 85 84 L 156.5 84 L 156.5 155.875 L 85 155.875 Z M 85 84 " clip-rule="nonzero"/></clipPath><clipPath id="e2ea3d932e"><path d="M 0.589844 0.90625 L 71.109375 0.90625 L 71.109375 71.425781 L 0.589844 71.425781 Z M 0.589844 0.90625 " clip-rule="nonzero"/></clipPath><clipPath id="bbebf525ea"><path d="M 35.851562 0.90625 C 16.375 0.90625 0.589844 16.691406 0.589844 36.164062 C 0.589844 55.640625 16.375 71.425781 35.851562 71.425781 C 55.324219 71.425781 71.109375 55.640625 71.109375 36.164062 C 71.109375 16.691406 55.324219 0.90625 35.851562 0.90625 Z M 35.851562 0.90625 " clip-rule="nonzero"/></clipPath><clipPath id="9aab97ffcf"><path d="M 0.589844 0.90625 L 71.109375 0.90625 L 71.109375 71.425781 L 0.589844 71.425781 Z M 0.589844 0.90625 " clip-rule="nonzero"/></clipPath><clipPath id="4f6b5f0dbf"><path d="M 35.851562 0.90625 C 16.375 0.90625 0.589844 16.691406 0.589844 36.164062 C 0.589844 55.640625 16.375 71.425781 35.851562 71.425781 C 55.324219 71.425781 71.109375 55.640625 71.109375 36.164062 C 71.109375 16.691406 55.324219 0.90625 35.851562 0.90625 Z M 35.851562 0.90625 " clip-rule="nonzero"/></clipPath><clipPath id="42979c78ce"><rect x="0" width="72" y="0" height="72"/></clipPath><clipPath id="dd23d0f306"><path d="M 4.019531 4.335938 L 67.890625 4.335938 L 67.890625 68 L 4.019531 68 Z M 4.019531 4.335938 " clip-rule="nonzero"/></clipPath><clipPath id="8955898d74"><rect x="0" width="72" y="0" height="72"/></clipPath></defs><g clip-path="url(#8ecd1ad607)"><g clip-path="url(#9fb5b84280)"><g transform="matrix(1, 0, 0, 1, 0, 0.000000000000008979)"><g clip-path="url(#e0e7bea194)"><g clip-path="url(#b9d9882578)"><g clip-path="url(#53174b3585)"><path fill="#f51a01" d="M 0 0.125 L 141.617188 0.125 L 141.617188 141.742188 L 0 141.742188 Z M 0 0.125 " fill-opacity="1" fill-rule="nonzero"/></g></g></g></g></g></g><g clip-path="url(#d552904599)"><path fill="#fee4e4" d="M 69.820312 37.875 L 69.417969 37.875 C 68.957031 37.691406 63.542969 38.617188 53.175781 40.652344 L 45.519531 40.699219 C 40.621094 42.058594 36.808594 43.289062 34.085938 44.390625 L 30.808594 45.941406 C 30.058594 46.226562 29.441406 46.882812 28.953125 47.90625 C 29.753906 52.632812 30.628906 56.707031 31.578125 60.136719 C 33.285156 65.6875 34.582031 68.957031 35.46875 69.945312 C 36.050781 70.757812 36.5625 70.949219 36.992188 70.527344 C 38.378906 68.152344 39.574219 65.734375 40.578125 63.277344 C 40.832031 62.792969 41.089844 62.652344 41.34375 62.855469 C 41.578125 67.359375 41.941406 70.363281 42.429688 71.875 C 42.804688 73.683594 43.65625 76.015625 44.976562 78.875 C 46.335938 81.792969 49.523438 85.351562 54.546875 89.550781 C 55.5625 93.824219 56.714844 96.871094 57.992188 98.695312 C 59.476562 101.050781 60.925781 102.609375 62.339844 103.367188 C 63.128906 103.851562 63.988281 104.242188 64.921875 104.535156 C 67.378906 105.101562 68.941406 105.328125 69.605469 105.214844 C 70.789062 105.207031 71.796875 105.148438 72.628906 105.035156 L 84.039062 67.800781 C 85.027344 64.367188 85.667969 61.21875 85.964844 58.359375 L 86.144531 54.28125 C 85.609375 43.726562 80.167969 38.257812 69.820312 37.875 " fill-opacity="1" fill-rule="nonzero"/></g><g clip-path="url(#be0fc67e51)"><path fill="#fee4e4" d="M 71.929688 37.890625 L 72.332031 37.898438 C 72.792969 37.71875 78.195312 38.722656 88.53125 40.910156 L 96.1875 41.0625 C 101.066406 42.492188 104.859375 43.777344 107.566406 44.917969 L 110.820312 46.519531 C 111.566406 46.8125 112.175781 47.476562 112.648438 48.507812 C 111.777344 53.222656 110.84375 57.285156 109.847656 60.699219 C 108.0625 66.222656 106.71875 69.476562 105.816406 70.453125 C 105.21875 71.253906 104.710938 71.441406 104.28125 71.011719 C 102.929688 68.617188 101.769531 66.183594 100.800781 63.710938 C 100.554688 63.222656 100.300781 63.078125 100.042969 63.277344 C 99.742188 67.777344 99.339844 70.777344 98.828125 72.277344 C 98.425781 74.082031 97.542969 76.402344 96.179688 79.242188 C 94.78125 82.140625 91.539062 85.652344 86.457031 89.78125 C 85.378906 94.039062 84.1875 97.070312 82.878906 98.875 C 81.363281 101.207031 79.890625 102.746094 78.464844 103.484375 C 77.671875 103.957031 76.804688 104.332031 75.867188 104.613281 C 73.402344 105.144531 71.835938 105.351562 71.171875 105.226562 C 69.992188 105.203125 68.984375 105.128906 68.152344 105.003906 L 57.28125 67.605469 C 56.339844 64.160156 55.746094 61.003906 55.492188 58.140625 L 55.371094 54.0625 C 56.058594 43.511719 61.578125 38.125 71.929688 37.890625 " fill-opacity="1" fill-rule="nonzero"/></g><g clip-path="url(#bd6eedcde8)"><g transform="matrix(1, 0, 0, 1, 85, 84)"><g clip-path="url(#8955898d74)"><g clip-path="url(#e2ea3d932e)"><g clip-path="url(#bbebf525ea)"><g transform="matrix(1, 0, 0, 1, 0, 0.000000000000014211)"><g clip-path="url(#42979c78ce)"><g clip-path="url(#9aab97ffcf)"><g clip-path="url(#4f6b5f0dbf)"><path fill="#ffffff" d="M 0.589844 0.90625 L 71.109375 0.90625 L 71.109375 71.425781 L 0.589844 71.425781 Z M 0.589844 0.90625 " fill-opacity="1" fill-rule="nonzero"/></g></g></g></g></g></g><g clip-path="url(#dd23d0f306)"><path fill="#f51a01" d="M 35.839844 4.332031 C 18.292969 4.332031 4.015625 18.609375 4.015625 36.15625 C 4.015625 53.703125 18.292969 67.980469 35.839844 67.980469 C 53.386719 67.980469 67.664062 53.703125 67.664062 36.15625 C 67.664062 18.609375 53.386719 4.332031 35.839844 4.332031 Z M 35.839844 9.226562 C 50.738281 9.226562 62.765625 21.253906 62.765625 36.15625 C 62.765625 51.054688 50.738281 63.082031 35.839844 63.082031 C 20.9375 63.082031 8.910156 51.054688 8.910156 36.15625 C 8.910156 21.253906 20.9375 9.226562 35.839844 9.226562 Z M 35.824219 18.984375 C 35.5 18.992188 35.191406 19.058594 34.890625 19.1875 C 34.59375 19.316406 34.332031 19.496094 34.105469 19.726562 C 33.882812 19.960938 33.707031 20.226562 33.589844 20.527344 C 33.46875 20.828125 33.410156 21.144531 33.414062 21.46875 L 33.414062 44.167969 C 32.261719 43.09375 31.039062 42.0625 29.585938 41.320312 C 29.296875 41.171875 28.988281 41.082031 28.664062 41.058594 C 28.34375 41.03125 28.027344 41.066406 27.714844 41.167969 C 27.40625 41.265625 27.128906 41.421875 26.882812 41.632812 C 26.632812 41.84375 26.4375 42.09375 26.289062 42.382812 C 26.140625 42.671875 26.054688 42.976562 26.027344 43.300781 C 26 43.625 26.039062 43.941406 26.136719 44.25 C 26.238281 44.558594 26.390625 44.839844 26.601562 45.085938 C 26.8125 45.332031 27.0625 45.53125 27.351562 45.679688 C 29.808594 46.9375 31.796875 49.058594 32.964844 51.398438 C 32.96875 51.410156 32.976562 51.417969 32.980469 51.429688 C 33.566406 52.5625 34.761719 53.285156 35.984375 53.296875 C 37.203125 53.308594 38.539062 52.496094 39.066406 51.277344 C 40.015625 49.183594 41.972656 46.914062 44.363281 45.667969 C 44.660156 45.523438 44.917969 45.328125 45.132812 45.078125 C 45.347656 44.828125 45.507812 44.546875 45.609375 44.234375 C 45.714844 43.921875 45.75 43.601562 45.726562 43.273438 C 45.699219 42.945312 45.609375 42.632812 45.457031 42.339844 C 45.304688 42.046875 45.101562 41.796875 44.847656 41.585938 C 44.59375 41.375 44.308594 41.222656 43.992188 41.128906 C 43.675781 41.03125 43.355469 41.003906 43.027344 41.039062 C 42.699219 41.070312 42.390625 41.167969 42.101562 41.328125 C 40.636719 42.09375 39.4375 43.148438 38.3125 44.246094 L 38.3125 21.46875 C 38.316406 21.136719 38.253906 20.816406 38.132812 20.511719 C 38.007812 20.203125 37.828125 19.933594 37.59375 19.699219 C 37.359375 19.46875 37.089844 19.289062 36.78125 19.164062 C 36.472656 19.039062 36.15625 18.980469 35.824219 18.984375 Z M 35.824219 18.984375 " fill-opacity="1" fill-rule="nonzero"/></g></g></g></g></svg>