<svg xmlns="http://www.w3.org/2000/svg" xmlns:xlink="http://www.w3.org/1999/xlink" width="127" zoomAndPan="magnify" viewBox="0 0 95.25 95.249999" height="127" preserveAspectRatio="xMidYMid meet" version="1.0"><defs><clipPath id="161718ffb5"><path d="M 71 3.054688 L 92.890625 3.054688 L 92.890625 25 L 71 25 Z M 71 3.054688 " clip-rule="nonzero"/></clipPath><clipPath id="79f5f61c25"><path d="M 2.847656 13 L 82 13 L 82 93 L 2.847656 93 Z M 2.847656 13 " clip-rule="nonzero"/></clipPath></defs><g clip-path="url(#161718ffb5)"><path fill="#ffffff" d="M 90.003906 5.625 C 86.578125 2.199219 81.015625 2.199219 77.589844 5.625 L 71.015625 12.195312 L 83.433594 24.613281 L 90.003906 18.039062 C 93.429688 14.613281 93.429688 9.050781 90.003906 5.625 Z M 90.003906 5.625 " fill-opacity="1" fill-rule="nonzero"/></g><path fill="#ffffff" d="M 44.746094 38.464844 L 37.894531 55.542969 C 37.644531 56.171875 37.792969 56.878906 38.273438 57.355469 C 38.601562 57.683594 39.027344 57.859375 39.457031 57.859375 C 39.65625 57.859375 39.882812 57.808594 40.085938 57.734375 L 57.011719 51.007812 L 79.878906 28.191406 L 67.464844 15.773438 Z M 53.132812 47.609375 L 44.921875 50.683594 L 48.019531 42.496094 C 48.144531 42.875 48.371094 43.226562 48.625 43.503906 C 48.976562 43.855469 49.429688 44.109375 49.933594 44.207031 C 49.933594 44.207031 50.464844 44.308594 50.691406 44.359375 L 50.867188 44.410156 C 50.964844 44.410156 51.042969 44.484375 51.09375 44.535156 C 51.167969 44.613281 51.21875 44.6875 51.21875 44.789062 L 51.242188 44.9375 C 51.292969 45.191406 51.394531 45.71875 51.394531 45.71875 C 51.496094 46.222656 51.746094 46.675781 52.101562 47.03125 C 52.402344 47.28125 52.753906 47.484375 53.132812 47.609375 Z M 53.132812 47.609375 " fill-opacity="1" fill-rule="nonzero"/><g clip-path="url(#79f5f61c25)"><path fill="#ffffff" d="M 71.570312 45.519531 C 71.34375 44.6875 71.214844 43.855469 71.117188 43.023438 L 59.730469 54.382812 C 59.503906 58.539062 57.816406 62.621094 54.644531 65.792969 C 47.792969 72.644531 36.6875 72.644531 29.808594 65.792969 C 22.960938 58.941406 22.960938 47.835938 29.808594 40.960938 C 32.957031 37.8125 37.039062 36.125 41.167969 35.871094 L 52.554688 24.488281 C 51.722656 24.386719 50.917969 24.261719 50.085938 24.035156 C 44.695312 22.597656 40.566406 18.769531 38.5 13.984375 C 34.117188 14.386719 29.808594 15.546875 25.730469 17.386719 C 26.335938 22.546875 24.671875 27.914062 20.71875 31.867188 C 16.765625 35.820312 11.398438 37.484375 6.234375 36.878906 C 4.398438 40.984375 3.265625 45.292969 2.859375 49.675781 C 7.621094 51.714844 11.449219 55.84375 12.910156 61.261719 C 14.347656 66.648438 13.113281 72.140625 10.015625 76.296875 C 11.273438 78.085938 12.707031 79.773438 14.296875 81.359375 C 15.882812 82.945312 17.59375 84.382812 19.359375 85.640625 C 23.511719 82.542969 29.003906 81.28125 34.394531 82.742188 C 39.808594 84.179688 43.914062 88.007812 45.980469 92.792969 C 50.363281 92.390625 54.667969 91.257812 58.75 89.394531 C 58.144531 84.230469 59.808594 78.863281 63.761719 74.910156 C 67.714844 70.957031 73.082031 69.292969 78.242188 69.898438 C 80.105469 65.820312 81.242188 61.511719 81.644531 57.128906 C 76.859375 55.0625 73.03125 50.933594 71.570312 45.519531 Z M 71.570312 45.519531 " fill-opacity="1" fill-rule="nonzero"/></g></svg>