<svg xmlns="http://www.w3.org/2000/svg" xmlns:xlink="http://www.w3.org/1999/xlink" width="298" zoomAndPan="magnify" viewBox="0 0 223.5 223.499992" height="298" preserveAspectRatio="xMidYMid meet" version="1.0"><defs><clipPath id="652284a37d"><path d="M 48 121.226562 L 51.4375 121.226562 L 51.4375 125 L 48 125 Z M 48 121.226562 " clip-rule="nonzero"/></clipPath><clipPath id="0beccc63cb"><path d="M 37.222656 122 L 50 122 L 50 135.441406 L 37.222656 135.441406 Z M 37.222656 122 " clip-rule="nonzero"/></clipPath><clipPath id="8811b003b8"><path d="M 168 0 L 222.253906 0 L 222.253906 54 L 168 54 Z M 168 0 " clip-rule="nonzero"/></clipPath><clipPath id="3c84f773be"><path d="M 0 27 L 196 27 L 196 222.253906 L 0 222.253906 Z M 0 27 " clip-rule="nonzero"/></clipPath></defs><g clip-path="url(#652284a37d)"><path fill="#000000" d="M 51.03125 121.632812 C 50.488281 121.089844 49.605469 121.089844 49.0625 121.632812 L 48.019531 122.671875 L 49.988281 124.640625 L 51.03125 123.597656 C 51.574219 123.058594 51.574219 122.175781 51.03125 121.632812 Z M 51.03125 121.632812 " fill-opacity="1" fill-rule="nonzero"/></g><path fill="#000000" d="M 43.859375 126.835938 L 42.773438 129.542969 C 42.734375 129.640625 42.757812 129.753906 42.832031 129.828125 C 42.886719 129.878906 42.953125 129.910156 43.019531 129.910156 C 43.054688 129.910156 43.089844 129.902344 43.121094 129.886719 L 45.800781 128.824219 L 49.425781 125.207031 L 47.457031 123.242188 Z M 45.1875 128.285156 L 43.886719 128.769531 L 44.378906 127.472656 C 44.398438 127.535156 44.433594 127.589844 44.472656 127.632812 C 44.53125 127.691406 44.601562 127.730469 44.679688 127.746094 C 44.679688 127.746094 44.765625 127.761719 44.800781 127.769531 L 44.828125 127.777344 C 44.84375 127.777344 44.855469 127.789062 44.863281 127.796875 C 44.875 127.808594 44.882812 127.820312 44.882812 127.835938 L 44.886719 127.859375 C 44.898438 127.902344 44.914062 127.984375 44.914062 127.984375 C 44.929688 128.066406 44.96875 128.136719 45.023438 128.191406 C 45.070312 128.234375 45.128906 128.265625 45.1875 128.285156 Z M 45.1875 128.285156 " fill-opacity="1" fill-rule="nonzero"/><g clip-path="url(#0beccc63cb)"><path fill="#000000" d="M 48.109375 127.953125 C 48.074219 127.820312 48.054688 127.691406 48.035156 127.558594 L 46.234375 129.359375 C 46.199219 130.015625 45.929688 130.664062 45.425781 131.164062 C 44.34375 132.25 42.582031 132.25 41.492188 131.164062 C 40.40625 130.078125 40.40625 128.320312 41.492188 127.230469 C 41.992188 126.730469 42.636719 126.464844 43.292969 126.425781 L 45.097656 124.621094 C 44.964844 124.605469 44.835938 124.585938 44.703125 124.550781 C 43.851562 124.320312 43.195312 123.714844 42.871094 122.957031 C 42.175781 123.019531 41.492188 123.203125 40.847656 123.496094 C 40.941406 124.3125 40.679688 125.164062 40.050781 125.789062 C 39.425781 126.417969 38.574219 126.679688 37.757812 126.585938 C 37.464844 127.234375 37.285156 127.917969 37.222656 128.613281 C 37.976562 128.933594 38.582031 129.589844 38.816406 130.445312 C 39.042969 131.300781 38.847656 132.171875 38.355469 132.828125 C 38.554688 133.113281 38.78125 133.378906 39.035156 133.632812 C 39.285156 133.882812 39.558594 134.109375 39.835938 134.308594 C 40.496094 133.820312 41.363281 133.621094 42.21875 133.851562 C 43.078125 134.078125 43.726562 134.683594 44.054688 135.441406 C 44.75 135.378906 45.429688 135.199219 46.078125 134.90625 C 45.980469 134.085938 46.246094 133.238281 46.871094 132.609375 C 47.5 131.984375 48.347656 131.71875 49.167969 131.816406 C 49.460938 131.167969 49.640625 130.488281 49.703125 129.792969 C 48.945312 129.464844 48.339844 128.8125 48.109375 127.953125 Z M 48.109375 127.953125 " fill-opacity="1" fill-rule="nonzero"/></g><g clip-path="url(#8811b003b8)"><path fill="#ffffff" d="M 215.894531 6.363281 C 207.410156 -2.121094 193.621094 -2.121094 185.136719 6.363281 L 168.851562 22.648438 L 199.609375 53.402344 L 215.894531 37.121094 C 224.378906 28.636719 224.378906 14.847656 215.894531 6.363281 Z M 215.894531 6.363281 " fill-opacity="1" fill-rule="nonzero"/></g><path fill="#ffffff" d="M 103.78125 87.71875 L 86.8125 130.015625 C 86.1875 131.574219 86.5625 133.324219 87.75 134.507812 C 88.558594 135.320312 89.621094 135.757812 90.679688 135.757812 C 91.179688 135.757812 91.742188 135.632812 92.242188 135.445312 L 134.164062 118.785156 L 190.8125 62.261719 L 160.054688 31.503906 Z M 124.558594 110.363281 L 104.21875 117.976562 L 111.894531 97.699219 C 112.203125 98.636719 112.765625 99.507812 113.390625 100.195312 C 114.261719 101.066406 115.386719 101.691406 116.632812 101.941406 C 116.632812 101.941406 117.945312 102.191406 118.503906 102.316406 L 118.941406 102.441406 C 119.191406 102.441406 119.378906 102.628906 119.503906 102.753906 C 119.691406 102.941406 119.816406 103.128906 119.816406 103.375 L 119.878906 103.75 C 120.003906 104.375 120.253906 105.683594 120.253906 105.683594 C 120.503906 106.933594 121.125 108.054688 122 108.929688 C 122.75 109.554688 123.621094 110.050781 124.558594 110.363281 Z M 124.558594 110.363281 " fill-opacity="1" fill-rule="nonzero"/><g clip-path="url(#3c84f773be)"><path fill="#ffffff" d="M 170.226562 105.1875 C 169.664062 103.128906 169.351562 101.066406 169.101562 99.007812 L 140.902344 127.144531 C 140.339844 137.441406 136.160156 147.546875 128.300781 155.40625 C 111.332031 172.378906 83.816406 172.378906 66.785156 155.40625 C 49.816406 138.4375 49.816406 110.925781 66.785156 93.894531 C 74.585938 86.09375 84.691406 81.914062 94.921875 81.292969 L 123.121094 53.09375 C 121.0625 52.84375 119.066406 52.53125 117.007812 51.96875 C 103.65625 48.414062 93.425781 38.929688 88.308594 27.078125 C 77.453125 28.074219 66.785156 30.945312 56.679688 35.5 C 58.175781 48.289062 54.058594 61.578125 44.265625 71.371094 C 34.46875 81.167969 21.179688 85.285156 8.390625 83.785156 C 3.835938 93.957031 1.03125 104.625 0.03125 115.480469 C 11.824219 120.535156 21.304688 130.765625 24.925781 144.179688 C 28.480469 157.527344 25.421875 171.128906 17.75 181.425781 C 20.867188 185.851562 24.425781 190.035156 28.355469 193.964844 C 32.285156 197.894531 36.527344 201.449219 40.894531 204.570312 C 51.1875 196.894531 64.789062 193.777344 78.140625 197.394531 C 91.554688 200.953125 101.722656 210.433594 106.839844 222.289062 C 117.695312 221.289062 128.363281 218.480469 138.46875 213.867188 C 136.972656 201.074219 141.089844 187.789062 150.886719 177.992188 C 160.679688 168.199219 173.96875 164.078125 186.757812 165.578125 C 191.375 155.46875 194.183594 144.800781 195.179688 133.945312 C 183.328125 128.832031 173.84375 118.597656 170.226562 105.1875 Z M 170.226562 105.1875 " fill-opacity="1" fill-rule="nonzero"/></g></svg>