<svg xmlns="http://www.w3.org/2000/svg" xmlns:xlink="http://www.w3.org/1999/xlink" width="395" zoomAndPan="magnify" viewBox="0 0 296.25 296.249993" height="395" preserveAspectRatio="xMidYMid meet" version="1.0"><defs><clipPath id="afc686163d"><path d="M 0 0 L 295.210938 0 L 295.210938 295.210938 L 0 295.210938 Z M 0 0 " clip-rule="nonzero"/></clipPath><clipPath id="5473793131"><path d="M 147.605469 0 C 66.085938 0 0 66.085938 0 147.605469 C 0 229.125 66.085938 295.210938 147.605469 295.210938 C 229.125 295.210938 295.210938 229.125 295.210938 147.605469 C 295.210938 66.085938 229.125 0 147.605469 0 Z M 147.605469 0 " clip-rule="nonzero"/></clipPath><clipPath id="1e48051015"><path d="M 27.910156 27.910156 L 267.304688 27.910156 L 267.304688 267.304688 L 27.910156 267.304688 Z M 27.910156 27.910156 " clip-rule="nonzero"/></clipPath></defs><g clip-path="url(#afc686163d)"><g clip-path="url(#5473793131)"><path stroke-linecap="butt" transform="matrix(0.748106, 0, 0, 0.748106, 0.0000035, 0.000000000000021262)" fill="none" stroke-linejoin="miter" d="M 197.305559 -0.000000000000028422 C 88.337665 -0.000000000000028422 -0.00000467848 88.33767 -0.00000467848 197.305563 C -0.00000467848 306.273457 88.337665 394.611127 197.305559 394.611127 C 306.273453 394.611127 394.611122 306.273457 394.611122 197.305563 C 394.611122 88.33767 306.273453 -0.000000000000028422 197.305559 -0.000000000000028422 Z M 197.305559 -0.000000000000028422 " stroke="#ffffff" stroke-width="88" stroke-opacity="1" stroke-miterlimit="4"/></g></g><g clip-path="url(#1e48051015)"><path fill="#ffffff" d="M 267.304688 147.609375 C 267.304688 213.714844 213.714844 267.304688 147.609375 267.304688 C 81.5 267.304688 27.910156 213.714844 27.910156 147.609375 C 27.910156 81.5 81.5 27.910156 147.609375 27.910156 C 213.714844 27.910156 267.304688 81.5 267.304688 147.609375 Z M 183.382812 139.179688 L 221.308594 101.164062 C 221.75 100.71875 222.171875 100.253906 222.570312 99.769531 C 222.96875 99.285156 223.34375 98.777344 223.691406 98.257812 C 224.042969 97.734375 224.363281 97.195312 224.660156 96.640625 C 224.957031 96.085938 225.226562 95.519531 225.46875 94.941406 C 225.710938 94.359375 225.921875 93.769531 226.105469 93.167969 C 226.289062 92.566406 226.441406 91.957031 226.566406 91.339844 C 226.6875 90.726562 226.78125 90.105469 226.847656 89.480469 C 226.910156 88.855469 226.941406 88.226562 226.945312 87.597656 C 226.945312 86.96875 226.917969 86.34375 226.855469 85.71875 C 226.796875 85.09375 226.707031 84.472656 226.585938 83.855469 C 226.46875 83.238281 226.316406 82.628906 226.136719 82.027344 C 225.957031 81.421875 225.75 80.832031 225.511719 80.25 C 225.273438 79.667969 225.007812 79.097656 224.714844 78.542969 C 224.421875 77.988281 224.101562 77.445312 223.757812 76.921875 C 223.410156 76.398438 223.039062 75.890625 222.644531 75.402344 C 222.25 74.914062 221.832031 74.445312 221.390625 74 C 220.945312 73.546875 220.476562 73.117188 219.988281 72.710938 C 219.5 72.308594 218.992188 71.925781 218.46875 71.570312 C 217.941406 71.214844 217.402344 70.886719 216.84375 70.582031 C 216.285156 70.28125 215.714844 70.007812 215.128906 69.761719 C 214.542969 69.515625 213.949219 69.300781 213.339844 69.113281 C 212.734375 68.925781 212.121094 68.769531 211.5 68.640625 C 210.878906 68.515625 210.25 68.417969 209.621094 68.355469 C 208.988281 68.289062 208.355469 68.257812 207.71875 68.253906 C 207.085938 68.253906 206.453125 68.28125 205.820312 68.339844 C 205.1875 68.402344 204.5625 68.492188 203.9375 68.617188 C 203.316406 68.738281 202.703125 68.890625 202.09375 69.074219 C 201.484375 69.253906 200.890625 69.46875 200.300781 69.710938 C 199.714844 69.953125 199.140625 70.222656 198.582031 70.519531 C 198.023438 70.816406 197.476562 71.144531 196.949219 71.496094 C 196.421875 71.847656 195.914062 72.222656 195.421875 72.625 C 194.929688 73.027344 194.460938 73.453125 194.011719 73.902344 L 155.988281 111.917969 C 155.445312 112.460938 154.855469 112.945312 154.21875 113.371094 C 153.582031 113.796875 152.910156 114.15625 152.203125 114.449219 C 151.496094 114.742188 150.765625 114.964844 150.011719 115.113281 C 149.261719 115.261719 148.503906 115.335938 147.738281 115.335938 C 146.972656 115.335938 146.210938 115.261719 145.460938 115.113281 C 144.710938 114.964844 143.980469 114.742188 143.273438 114.449219 C 142.566406 114.15625 141.890625 113.796875 141.253906 113.371094 C 140.617188 112.945312 140.027344 112.460938 139.488281 111.917969 L 101.375 73.800781 C 100.929688 73.355469 100.460938 72.929688 99.972656 72.53125 C 99.484375 72.128906 98.976562 71.753906 98.453125 71.402344 C 97.925781 71.050781 97.386719 70.722656 96.828125 70.425781 C 96.269531 70.128906 95.699219 69.859375 95.117188 69.617188 C 94.53125 69.375 93.9375 69.160156 93.332031 68.976562 C 92.726562 68.792969 92.117188 68.640625 91.496094 68.515625 C 90.875 68.394531 90.25 68.300781 89.621094 68.238281 C 88.992188 68.175781 88.363281 68.144531 87.730469 68.144531 C 87.097656 68.144531 86.46875 68.175781 85.839844 68.238281 C 85.210938 68.300781 84.585938 68.394531 83.964844 68.515625 C 83.34375 68.640625 82.734375 68.792969 82.128906 68.976562 C 81.523438 69.160156 80.929688 69.375 80.34375 69.617188 C 79.761719 69.859375 79.191406 70.128906 78.632812 70.425781 C 78.074219 70.722656 77.535156 71.050781 77.007812 71.402344 C 76.484375 71.753906 75.976562 72.128906 75.488281 72.53125 C 75 72.929688 74.53125 73.355469 74.085938 73.800781 L 73.914062 73.96875 C 73.464844 74.417969 73.042969 74.886719 72.640625 75.375 C 72.238281 75.863281 71.863281 76.367188 71.511719 76.894531 C 71.160156 77.417969 70.835938 77.960938 70.539062 78.519531 C 70.242188 79.074219 69.972656 79.648438 69.730469 80.230469 C 69.488281 80.816406 69.273438 81.410156 69.089844 82.015625 C 68.90625 82.617188 68.753906 83.230469 68.628906 83.851562 C 68.507812 84.472656 68.414062 85.09375 68.351562 85.722656 C 68.289062 86.351562 68.257812 86.984375 68.257812 87.617188 C 68.257812 88.246094 68.289062 88.878906 68.351562 89.507812 C 68.414062 90.136719 68.507812 90.761719 68.628906 91.378906 C 68.753906 92 68.90625 92.613281 69.089844 93.21875 C 69.273438 93.824219 69.488281 94.417969 69.730469 95 C 69.972656 95.585938 70.242188 96.15625 70.539062 96.710938 C 70.835938 97.269531 71.160156 97.8125 71.511719 98.335938 C 71.863281 98.863281 72.238281 99.371094 72.640625 99.859375 C 73.042969 100.347656 73.464844 100.8125 73.914062 101.261719 L 112.027344 139.378906 C 112.570312 139.917969 113.054688 140.507812 113.480469 141.144531 C 113.902344 141.78125 114.261719 142.453125 114.554688 143.160156 C 114.847656 143.871094 115.070312 144.597656 115.21875 145.347656 C 115.367188 146.101562 115.441406 146.859375 115.441406 147.625 C 115.441406 148.390625 115.367188 149.148438 115.21875 149.898438 C 115.070312 150.652344 114.847656 151.378906 114.554688 152.085938 C 114.261719 152.796875 113.902344 153.46875 113.480469 154.105469 C 113.054688 154.742188 112.570312 155.328125 112.027344 155.871094 L 73.921875 193.984375 C 73.476562 194.429688 73.050781 194.898438 72.648438 195.386719 C 72.25 195.875 71.871094 196.382812 71.519531 196.90625 C 71.171875 197.433594 70.84375 197.972656 70.546875 198.53125 C 70.25 199.089844 69.980469 199.660156 69.738281 200.242188 C 69.496094 200.828125 69.28125 201.421875 69.097656 202.027344 C 68.914062 202.632812 68.761719 203.242188 68.636719 203.863281 C 68.515625 204.484375 68.421875 205.109375 68.359375 205.738281 C 68.296875 206.367188 68.265625 206.996094 68.265625 207.628906 C 68.265625 208.261719 68.296875 208.890625 68.359375 209.519531 C 68.421875 210.148438 68.515625 210.773438 68.636719 211.394531 C 68.761719 212.015625 68.914062 212.625 69.097656 213.230469 C 69.28125 213.835938 69.496094 214.429688 69.738281 215.015625 C 69.980469 215.597656 70.25 216.167969 70.546875 216.726562 C 70.84375 217.285156 71.171875 217.824219 71.519531 218.351562 C 71.871094 218.875 72.25 219.382812 72.648438 219.871094 C 73.050781 220.359375 73.476562 220.828125 73.921875 221.273438 L 74.074219 221.425781 C 74.523438 221.875 74.988281 222.296875 75.476562 222.699219 C 75.96875 223.101562 76.472656 223.476562 77 223.828125 C 77.523438 224.179688 78.066406 224.503906 78.625 224.800781 C 79.179688 225.101562 79.75 225.371094 80.335938 225.613281 C 80.917969 225.855469 81.515625 226.066406 82.117188 226.25 C 82.722656 226.433594 83.335938 226.589844 83.957031 226.710938 C 84.574219 226.835938 85.199219 226.925781 85.828125 226.988281 C 86.457031 227.050781 87.089844 227.082031 87.722656 227.082031 C 88.351562 227.082031 88.984375 227.050781 89.613281 226.988281 C 90.242188 226.925781 90.867188 226.835938 91.484375 226.710938 C 92.105469 226.589844 92.71875 226.433594 93.324219 226.25 C 93.929688 226.066406 94.523438 225.855469 95.105469 225.613281 C 95.691406 225.371094 96.261719 225.101562 96.820312 224.800781 C 97.375 224.503906 97.917969 224.179688 98.441406 223.828125 C 98.96875 223.476562 99.476562 223.101562 99.964844 222.699219 C 100.453125 222.296875 100.917969 221.875 101.367188 221.425781 L 139.40625 183.289062 C 139.949219 182.746094 140.539062 182.261719 141.175781 181.835938 C 141.8125 181.410156 142.484375 181.046875 143.191406 180.753906 C 143.902344 180.460938 144.632812 180.238281 145.382812 180.089844 C 146.132812 179.941406 146.894531 179.867188 147.660156 179.867188 C 148.425781 179.867188 149.1875 179.941406 149.9375 180.089844 C 150.691406 180.238281 151.421875 180.460938 152.128906 180.753906 C 152.835938 181.046875 153.507812 181.410156 154.144531 181.835938 C 154.785156 182.261719 155.371094 182.746094 155.914062 183.289062 L 193.777344 221.15625 C 194.226562 221.601562 194.695312 222.027344 195.183594 222.429688 C 195.671875 222.832031 196.183594 223.207031 196.707031 223.558594 C 197.234375 223.910156 197.777344 224.238281 198.335938 224.535156 C 198.894531 224.832031 199.46875 225.105469 200.054688 225.34375 C 200.640625 225.585938 201.234375 225.800781 201.84375 225.984375 C 202.449219 226.167969 203.0625 226.320312 203.683594 226.441406 C 204.304688 226.566406 204.933594 226.65625 205.5625 226.71875 C 206.191406 226.777344 206.824219 226.808594 207.457031 226.808594 C 208.09375 226.804688 208.722656 226.773438 209.355469 226.710938 C 209.984375 226.644531 210.609375 226.550781 211.230469 226.425781 C 211.851562 226.300781 212.464844 226.144531 213.070312 225.960938 C 213.675781 225.773438 214.273438 225.558594 214.855469 225.316406 C 215.441406 225.070312 216.011719 224.796875 216.570312 224.496094 C 217.128906 224.195312 217.667969 223.867188 218.195312 223.515625 C 218.71875 223.160156 219.226562 222.78125 219.714844 222.378906 C 220.203125 221.972656 220.671875 221.546875 221.117188 221.097656 L 221.308594 220.90625 C 221.75 220.457031 222.171875 219.992188 222.566406 219.503906 C 222.964844 219.015625 223.339844 218.507812 223.6875 217.984375 C 224.035156 217.460938 224.355469 216.917969 224.648438 216.363281 C 224.945312 215.808594 225.210938 215.238281 225.449219 214.65625 C 225.691406 214.074219 225.902344 213.480469 226.082031 212.878906 C 226.261719 212.273438 226.414062 211.664062 226.535156 211.046875 C 226.65625 210.429688 226.75 209.808594 226.808594 209.179688 C 226.871094 208.554688 226.898438 207.925781 226.898438 207.296875 C 226.898438 206.667969 226.867188 206.039062 226.804688 205.414062 C 226.742188 204.789062 226.648438 204.164062 226.523438 203.546875 C 226.402344 202.929688 226.25 202.320312 226.066406 201.71875 C 225.882812 201.117188 225.671875 200.527344 225.429688 199.945312 C 225.191406 199.363281 224.921875 198.792969 224.625 198.238281 C 224.328125 197.683594 224.003906 197.144531 223.65625 196.621094 C 223.308594 196.097656 222.933594 195.589844 222.535156 195.105469 C 222.136719 194.617188 221.714844 194.152344 221.269531 193.707031 L 183.367188 155.691406 C 182.824219 155.148438 182.34375 154.558594 181.914062 153.921875 C 181.488281 153.28125 181.128906 152.609375 180.835938 151.902344 C 180.542969 151.191406 180.324219 150.464844 180.171875 149.710938 C 180.023438 148.957031 179.949219 148.199219 179.949219 147.433594 C 179.949219 146.664062 180.027344 145.90625 180.175781 145.15625 C 180.328125 144.402344 180.550781 143.671875 180.84375 142.964844 C 181.140625 142.257812 181.5 141.585938 181.925781 140.949219 C 182.355469 140.3125 182.839844 139.722656 183.382812 139.179688 Z M 183.382812 139.179688 " fill-opacity="1" fill-rule="nonzero"/></g></svg>