<svg xmlns="http://www.w3.org/2000/svg" xmlns:xlink="http://www.w3.org/1999/xlink" width="187" zoomAndPan="magnify" viewBox="0 0 140.25 139.499994" height="186" preserveAspectRatio="xMidYMid meet" version="1.0"><defs><clipPath id="beb6b2e1f0"><path d="M 0 9.359375 L 138.757812 9.359375 L 138.757812 129.464844 L 0 129.464844 Z M 0 9.359375 " clip-rule="nonzero"/></clipPath></defs><g clip-path="url(#beb6b2e1f0)"><path fill="#e58b2b" d="M 69.425781 34.605469 C 86.84375 34.605469 100.984375 48.742188 100.984375 66.164062 C 100.984375 70.234375 100.164062 74.117188 98.742188 77.679688 L 117.203125 96.140625 C 126.734375 88.191406 134.242188 77.902344 138.882812 66.164062 C 127.933594 38.457031 101.015625 18.828125 69.425781 18.828125 C 60.589844 18.828125 52.132812 20.40625 44.273438 23.246094 L 57.90625 36.847656 C 61.472656 35.457031 65.355469 34.605469 69.425781 34.605469 Z M 6.3125 17.40625 L 23.574219 34.667969 C 13.160156 42.8125 4.921875 53.636719 0 66.164062 C 10.917969 93.871094 37.867188 113.5 69.425781 113.5 C 79.207031 113.5 88.550781 111.605469 97.101562 108.164062 L 99.785156 110.847656 L 118.179688 129.277344 L 126.226562 121.261719 L 14.359375 9.359375 Z M 41.214844 52.277344 L 50.964844 62.027344 C 50.679688 63.386719 50.492188 64.742188 50.492188 66.164062 C 50.492188 76.609375 58.980469 85.097656 69.425781 85.097656 C 70.84375 85.097656 72.203125 84.90625 73.527344 84.625 L 83.277344 94.375 C 79.082031 96.457031 74.410156 97.71875 69.425781 97.71875 C 52.007812 97.71875 37.867188 83.582031 37.867188 66.164062 C 37.867188 61.175781 39.128906 56.507812 41.214844 52.277344 Z M 68.382812 47.324219 L 88.265625 67.203125 L 88.359375 66.164062 C 88.359375 55.71875 79.871094 47.230469 69.425781 47.230469 Z M 68.382812 47.324219 " fill-opacity="1" fill-rule="nonzero"/></g></svg>