<svg xmlns="http://www.w3.org/2000/svg" xmlns:xlink="http://www.w3.org/1999/xlink" width="187" zoomAndPan="magnify" viewBox="0 0 140.25 139.499994" height="186" preserveAspectRatio="xMidYMid meet" version="1.0"><defs><clipPath id="32afb22c57"><path d="M 0 21.980469 L 138.757812 21.980469 L 138.757812 116.726562 L 0 116.726562 Z M 0 21.980469 " clip-rule="nonzero"/></clipPath></defs><g clip-path="url(#32afb22c57)"><path fill="#e58b2b" d="M 69.425781 21.984375 C 37.867188 21.984375 10.917969 41.609375 0 69.316406 C 10.917969 97.023438 37.867188 116.652344 69.425781 116.652344 C 100.984375 116.652344 127.933594 97.023438 138.851562 69.316406 C 127.933594 41.609375 101.015625 21.984375 69.425781 21.984375 Z M 69.425781 100.875 C 52.007812 100.875 37.867188 86.738281 37.867188 69.316406 C 37.867188 51.898438 52.007812 37.761719 69.425781 37.761719 C 86.84375 37.761719 100.984375 51.898438 100.984375 69.316406 C 100.984375 86.738281 86.84375 100.875 69.425781 100.875 Z M 69.425781 50.382812 C 58.980469 50.382812 50.492188 58.871094 50.492188 69.316406 C 50.492188 79.761719 58.980469 88.253906 69.425781 88.253906 C 79.871094 88.253906 88.359375 79.761719 88.359375 69.316406 C 88.359375 58.871094 79.871094 50.382812 69.425781 50.382812 Z M 69.425781 50.382812 " fill-opacity="1" fill-rule="nonzero"/></g></svg>