<svg xmlns="http://www.w3.org/2000/svg" xmlns:xlink="http://www.w3.org/1999/xlink" width="209" zoomAndPan="magnify" viewBox="0 0 156.75 155.999997" height="208" preserveAspectRatio="xMidYMid meet" version="1.0"><defs><clipPath id="bfede2bc91"><path d="M 0 0.125 L 141.617188 0.125 L 141.617188 141.742188 L 0 141.742188 Z M 0 0.125 " clip-rule="nonzero"/></clipPath><clipPath id="ecefebcc89"><path d="M 70.808594 0.125 C 31.703125 0.125 0 31.828125 0 70.933594 C 0 110.039062 31.703125 141.742188 70.808594 141.742188 C 109.917969 141.742188 141.617188 110.039062 141.617188 70.933594 C 141.617188 31.828125 109.917969 0.125 70.808594 0.125 Z M 70.808594 0.125 " clip-rule="nonzero"/></clipPath><clipPath id="dd8c51886b"><path d="M 0 0.125 L 141.617188 0.125 L 141.617188 141.742188 L 0 141.742188 Z M 0 0.125 " clip-rule="nonzero"/></clipPath><clipPath id="2481015acb"><path d="M 70.808594 0.125 C 31.703125 0.125 0 31.828125 0 70.933594 C 0 110.039062 31.703125 141.742188 70.808594 141.742188 C 109.917969 141.742188 141.617188 110.039062 141.617188 70.933594 C 141.617188 31.828125 109.917969 0.125 70.808594 0.125 Z M 70.808594 0.125 " clip-rule="nonzero"/></clipPath><clipPath id="4ac719d97d"><rect x="0" width="142" y="0" height="142"/></clipPath><clipPath id="fdd9676c03"><path d="M 20.792969 36.429688 L 120.816406 36.429688 L 120.816406 97.082031 L 20.792969 97.082031 Z M 20.792969 36.429688 " clip-rule="nonzero"/></clipPath><clipPath id="da1f660bbf"><path d="M 85 84 L 156.5 84 L 156.5 155.875 L 85 155.875 Z M 85 84 " clip-rule="nonzero"/></clipPath><clipPath id="6f6088847e"><path d="M 0.589844 0.90625 L 71.109375 0.90625 L 71.109375 71.425781 L 0.589844 71.425781 Z M 0.589844 0.90625 " clip-rule="nonzero"/></clipPath><clipPath id="56453ef685"><path d="M 35.851562 0.90625 C 16.375 0.90625 0.589844 16.691406 0.589844 36.164062 C 0.589844 55.640625 16.375 71.425781 35.851562 71.425781 C 55.324219 71.425781 71.109375 55.640625 71.109375 36.164062 C 71.109375 16.691406 55.324219 0.90625 35.851562 0.90625 Z M 35.851562 0.90625 " clip-rule="nonzero"/></clipPath><clipPath id="b2354f3264"><path d="M 0.589844 0.90625 L 71.109375 0.90625 L 71.109375 71.425781 L 0.589844 71.425781 Z M 0.589844 0.90625 " clip-rule="nonzero"/></clipPath><clipPath id="66bf880f1b"><path d="M 35.851562 0.90625 C 16.375 0.90625 0.589844 16.691406 0.589844 36.164062 C 0.589844 55.640625 16.375 71.425781 35.851562 71.425781 C 55.324219 71.425781 71.109375 55.640625 71.109375 36.164062 C 71.109375 16.691406 55.324219 0.90625 35.851562 0.90625 Z M 35.851562 0.90625 " clip-rule="nonzero"/></clipPath><clipPath id="19a39f0988"><rect x="0" width="72" y="0" height="72"/></clipPath><clipPath id="f649e89bd3"><path d="M 4.019531 4.335938 L 67.890625 4.335938 L 67.890625 68 L 4.019531 68 Z M 4.019531 4.335938 " clip-rule="nonzero"/></clipPath><clipPath id="0c66fdec9b"><rect x="0" width="72" y="0" height="72"/></clipPath></defs><g clip-path="url(#bfede2bc91)"><g clip-path="url(#ecefebcc89)"><g transform="matrix(1, 0, 0, 1, 0, 0.000000000000008979)"><g clip-path="url(#4ac719d97d)"><g clip-path="url(#dd8c51886b)"><g clip-path="url(#2481015acb)"><path fill="#f51a01" d="M 0 0.125 L 141.617188 0.125 L 141.617188 141.742188 L 0 141.742188 Z M 0 0.125 " fill-opacity="1" fill-rule="nonzero"/></g></g></g></g></g></g><g clip-path="url(#fdd9676c03)"><path fill="#fee4e4" d="M 84.710938 90.789062 C 84.734375 90.695312 84.667969 90.601562 84.570312 90.589844 C 80.839844 90.160156 77.269531 89.992188 73.851562 90.09375 C 72.328125 90.136719 71.617188 90.28125 70.417969 91.316406 C 68.292969 93.15625 65.96875 94.65625 63.453125 95.8125 C 62.480469 96.261719 61.25 96.761719 60.089844 96.960938 C 59.3125 97.097656 58.5625 97.097656 57.945312 96.859375 C 57.554688 96.710938 57.304688 96.324219 57.332031 95.902344 C 57.480469 93.558594 58.652344 91.1875 59.820312 88.972656 C 60.015625 88.601562 59.953125 88.148438 59.671875 87.84375 C 59.292969 87.433594 58.925781 87.082031 58.578125 86.789062 C 56.074219 84.710938 53.082031 82.285156 50.476562 79.722656 C 49.03125 78.300781 47.585938 76.773438 46.054688 76.019531 C 45.667969 75.832031 45.046875 75.921875 44.332031 76.15625 C 42.644531 76.703125 40.460938 78.050781 39.699219 78.503906 C 36.726562 80.273438 34.597656 82.191406 31.566406 84.304688 C 30.390625 85.121094 26.996094 87.304688 24.527344 88.160156 C 23.886719 88.378906 23.3125 88.511719 22.847656 88.511719 C 22.53125 88.507812 22.269531 88.445312 22.074219 88.304688 C 21.5 87.898438 21.34375 87.292969 21.613281 86.492188 C 22.054688 85.171875 22.613281 83.9375 23.28125 82.796875 C 26.332031 77.582031 28.359375 74.386719 29.941406 69.914062 C 30.378906 68.671875 29.9375 67.773438 29.304688 66.480469 C 28.902344 65.660156 28.605469 65.097656 28.414062 64.800781 C 26.078125 61.117188 24.128906 57.738281 22.566406 54.65625 C 21.726562 53 21.164062 51.589844 20.878906 50.429688 C 20.714844 49.765625 20.796875 49.328125 21.015625 49.0625 C 21.222656 48.8125 21.558594 48.710938 21.941406 48.710938 C 22.507812 48.707031 23.1875 48.917969 23.726562 49.183594 C 25.121094 49.863281 26.871094 50.933594 28.96875 52.390625 C 32.699219 54.980469 36.359375 57.710938 39.957031 60.574219 C 41.238281 61.59375 42.613281 62.351562 44.074219 62.847656 C 44.214844 62.894531 44.386719 62.902344 44.578125 62.871094 C 44.875 62.820312 45.222656 62.691406 45.597656 62.507812 C 47.070312 61.785156 48.96875 60.222656 49.9375 59.441406 C 55.105469 55.273438 59.019531 52.144531 61.695312 50.054688 C 64.128906 48.144531 66.167969 46.425781 64.808594 42.882812 C 64.085938 41 63.164062 39.152344 62.042969 37.339844 C 61.863281 37.050781 62.011719 36.671875 62.335938 36.578125 C 64.179688 36.042969 66.496094 36.988281 68.183594 37.890625 C 72.3125 40.09375 74.722656 41.800781 79.230469 44.886719 C 80.449219 45.726562 81.90625 46.425781 83.597656 46.992188 C 87.394531 48.257812 90.871094 49.511719 94.03125 50.746094 C 96.269531 51.613281 97.980469 52.390625 99.160156 53.074219 C 104.644531 56.230469 109.960938 60.144531 114.253906 64.941406 C 116.371094 67.304688 118.4375 69.816406 120.445312 72.476562 C 120.96875 73.171875 120.882812 73.933594 120.519531 74.675781 C 119.984375 75.769531 118.835938 76.816406 118.179688 77.507812 C 113 82.980469 106.015625 85.074219 99.136719 87.449219 C 97.875 87.886719 96.800781 88.734375 95.777344 89.671875 C 94.746094 90.613281 93.765625 91.644531 92.6875 92.449219 C 89.867188 94.554688 86.699219 96.128906 83.171875 97.171875 C 82.753906 97.296875 82.308594 97.113281 82.125 96.738281 C 81.839844 96.164062 81.910156 95.535156 82.347656 94.847656 C 83.386719 93.21875 84.449219 91.90625 84.710938 90.789062 Z M 84.710938 90.789062 " fill-opacity="1" fill-rule="nonzero"/></g><g clip-path="url(#da1f660bbf)"><g transform="matrix(1, 0, 0, 1, 85, 84)"><g clip-path="url(#0c66fdec9b)"><g clip-path="url(#6f6088847e)"><g clip-path="url(#56453ef685)"><g transform="matrix(1, 0, 0, 1, 0, 0.000000000000014211)"><g clip-path="url(#19a39f0988)"><g clip-path="url(#b2354f3264)"><g clip-path="url(#66bf880f1b)"><path fill="#ffffff" d="M 0.589844 0.90625 L 71.109375 0.90625 L 71.109375 71.425781 L 0.589844 71.425781 Z M 0.589844 0.90625 " fill-opacity="1" fill-rule="nonzero"/></g></g></g></g></g></g><g clip-path="url(#f649e89bd3)"><path fill="#f51a01" d="M 35.839844 4.332031 C 18.292969 4.332031 4.015625 18.609375 4.015625 36.15625 C 4.015625 53.703125 18.292969 67.980469 35.839844 67.980469 C 53.386719 67.980469 67.664062 53.703125 67.664062 36.15625 C 67.664062 18.609375 53.386719 4.332031 35.839844 4.332031 Z M 35.839844 9.226562 C 50.738281 9.226562 62.765625 21.253906 62.765625 36.15625 C 62.765625 51.054688 50.738281 63.082031 35.839844 63.082031 C 20.9375 63.082031 8.910156 51.054688 8.910156 36.15625 C 8.910156 21.253906 20.9375 9.226562 35.839844 9.226562 Z M 35.824219 18.984375 C 35.5 18.992188 35.191406 19.058594 34.890625 19.1875 C 34.59375 19.316406 34.332031 19.496094 34.105469 19.726562 C 33.882812 19.960938 33.707031 20.226562 33.589844 20.527344 C 33.46875 20.828125 33.410156 21.144531 33.414062 21.46875 L 33.414062 44.167969 C 32.261719 43.09375 31.039062 42.0625 29.585938 41.320312 C 29.296875 41.171875 28.988281 41.082031 28.664062 41.058594 C 28.34375 41.03125 28.027344 41.066406 27.714844 41.167969 C 27.40625 41.265625 27.128906 41.421875 26.882812 41.632812 C 26.632812 41.84375 26.4375 42.09375 26.289062 42.382812 C 26.140625 42.671875 26.054688 42.976562 26.027344 43.300781 C 26 43.625 26.039062 43.941406 26.136719 44.25 C 26.238281 44.558594 26.390625 44.839844 26.601562 45.085938 C 26.8125 45.332031 27.0625 45.53125 27.351562 45.679688 C 29.808594 46.9375 31.796875 49.058594 32.964844 51.398438 C 32.96875 51.410156 32.976562 51.417969 32.980469 51.429688 C 33.566406 52.5625 34.761719 53.285156 35.984375 53.296875 C 37.203125 53.308594 38.539062 52.496094 39.066406 51.277344 C 40.015625 49.183594 41.972656 46.914062 44.363281 45.667969 C 44.660156 45.523438 44.917969 45.328125 45.132812 45.078125 C 45.347656 44.828125 45.507812 44.546875 45.609375 44.234375 C 45.714844 43.921875 45.75 43.601562 45.726562 43.273438 C 45.699219 42.945312 45.609375 42.632812 45.457031 42.339844 C 45.304688 42.046875 45.101562 41.796875 44.847656 41.585938 C 44.59375 41.375 44.308594 41.222656 43.992188 41.128906 C 43.675781 41.03125 43.355469 41.003906 43.027344 41.039062 C 42.699219 41.070312 42.390625 41.167969 42.101562 41.328125 C 40.636719 42.09375 39.4375 43.148438 38.3125 44.246094 L 38.3125 21.46875 C 38.316406 21.136719 38.253906 20.816406 38.132812 20.511719 C 38.007812 20.203125 37.828125 19.933594 37.59375 19.699219 C 37.359375 19.46875 37.089844 19.289062 36.78125 19.164062 C 36.472656 19.039062 36.15625 18.980469 35.824219 18.984375 Z M 35.824219 18.984375 " fill-opacity="1" fill-rule="nonzero"/></g></g></g></g></svg>