<svg xmlns="http://www.w3.org/2000/svg" xmlns:xlink="http://www.w3.org/1999/xlink" width="209" zoomAndPan="magnify" viewBox="0 0 156.75 155.999997" height="208" preserveAspectRatio="xMidYMid meet" version="1.0"><defs><clipPath id="111722e1c8"><path d="M 0 0.125 L 141.617188 0.125 L 141.617188 141.742188 L 0 141.742188 Z M 0 0.125 " clip-rule="nonzero"/></clipPath><clipPath id="1a432a1b20"><path d="M 70.808594 0.125 C 31.703125 0.125 0 31.828125 0 70.933594 C 0 110.039062 31.703125 141.742188 70.808594 141.742188 C 109.917969 141.742188 141.617188 110.039062 141.617188 70.933594 C 141.617188 31.828125 109.917969 0.125 70.808594 0.125 Z M 70.808594 0.125 " clip-rule="nonzero"/></clipPath><clipPath id="a1b820a447"><path d="M 0 0.125 L 141.617188 0.125 L 141.617188 141.742188 L 0 141.742188 Z M 0 0.125 " clip-rule="nonzero"/></clipPath><clipPath id="e7a76cafb5"><path d="M 70.808594 0.125 C 31.703125 0.125 0 31.828125 0 70.933594 C 0 110.039062 31.703125 141.742188 70.808594 141.742188 C 109.917969 141.742188 141.617188 110.039062 141.617188 70.933594 C 141.617188 31.828125 109.917969 0.125 70.808594 0.125 Z M 70.808594 0.125 " clip-rule="nonzero"/></clipPath><clipPath id="c7a5db5e5f"><rect x="0" width="142" y="0" height="142"/></clipPath><clipPath id="fd1bd266c0"><path d="M 29.003906 25 L 115.117188 25 L 115.117188 116 L 29.003906 116 Z M 29.003906 25 " clip-rule="nonzero"/></clipPath><clipPath id="7aba5784fc"><path d="M 85 84 L 156.5 84 L 156.5 155.875 L 85 155.875 Z M 85 84 " clip-rule="nonzero"/></clipPath><clipPath id="7c03cd9f71"><path d="M 0.589844 0.90625 L 71.109375 0.90625 L 71.109375 71.425781 L 0.589844 71.425781 Z M 0.589844 0.90625 " clip-rule="nonzero"/></clipPath><clipPath id="f559e1ad92"><path d="M 35.851562 0.90625 C 16.375 0.90625 0.589844 16.691406 0.589844 36.164062 C 0.589844 55.640625 16.375 71.425781 35.851562 71.425781 C 55.324219 71.425781 71.109375 55.640625 71.109375 36.164062 C 71.109375 16.691406 55.324219 0.90625 35.851562 0.90625 Z M 35.851562 0.90625 " clip-rule="nonzero"/></clipPath><clipPath id="ec215e03c0"><path d="M 0.589844 0.90625 L 71.109375 0.90625 L 71.109375 71.425781 L 0.589844 71.425781 Z M 0.589844 0.90625 " clip-rule="nonzero"/></clipPath><clipPath id="07fc3705b3"><path d="M 35.851562 0.90625 C 16.375 0.90625 0.589844 16.691406 0.589844 36.164062 C 0.589844 55.640625 16.375 71.425781 35.851562 71.425781 C 55.324219 71.425781 71.109375 55.640625 71.109375 36.164062 C 71.109375 16.691406 55.324219 0.90625 35.851562 0.90625 Z M 35.851562 0.90625 " clip-rule="nonzero"/></clipPath><clipPath id="f0d1ac52ee"><rect x="0" width="72" y="0" height="72"/></clipPath><clipPath id="942fe5ce37"><path d="M 4.019531 4.335938 L 67.890625 4.335938 L 67.890625 68 L 4.019531 68 Z M 4.019531 4.335938 " clip-rule="nonzero"/></clipPath><clipPath id="ab412051e4"><rect x="0" width="72" y="0" height="72"/></clipPath></defs><g clip-path="url(#111722e1c8)"><g clip-path="url(#1a432a1b20)"><g transform="matrix(1, 0, 0, 1, 0, 0.000000000000008979)"><g clip-path="url(#c7a5db5e5f)"><g clip-path="url(#a1b820a447)"><g clip-path="url(#e7a76cafb5)"><path fill="#f51a01" d="M 0 0.125 L 141.617188 0.125 L 141.617188 141.742188 L 0 141.742188 Z M 0 0.125 " fill-opacity="1" fill-rule="nonzero"/></g></g></g></g></g></g><g clip-path="url(#fd1bd266c0)"><path fill="#fee4e4" d="M 38.664062 87.472656 C 38.726562 87.59375 38.871094 87.863281 39.117188 88.316406 C 39.34375 88.707031 39.53125 89.160156 39.261719 89.554688 C 38.953125 90.027344 38.457031 89.945312 38.085938 89.59375 C 37.078125 88.667969 36.519531 86.851562 36.4375 85.597656 C 36.316406 83.699219 36.996094 82.152344 38.480469 80.957031 C 39.449219 80.175781 40.539062 79.640625 41.753906 79.332031 C 42.042969 79.246094 42.375 79.164062 42.722656 79.105469 C 42.746094 79.082031 42.785156 79.0625 42.785156 79.042969 L 43.796875 77.3125 C 43.796875 77.289062 43.796875 77.289062 43.796875 77.289062 C 43.816406 77.25 43.796875 77.226562 43.753906 77.207031 C 43.179688 77.226562 42.722656 77.207031 42.375 77.144531 C 40.703125 76.917969 42.683594 73.972656 43.136719 73.4375 C 43.136719 73.414062 43.15625 73.394531 43.15625 73.375 C 43.15625 73.332031 43.117188 73.292969 43.074219 73.292969 C 41.34375 72.921875 39.632812 72.488281 37.921875 71.972656 C 37.367188 71.785156 36.828125 71.582031 36.335938 71.355469 C 34.953125 70.695312 34.292969 69.683594 33.636719 68.324219 C 33.613281 68.285156 33.554688 68.242188 33.492188 68.222656 C 32.644531 68.078125 31.945312 67.6875 31.367188 67.046875 C 29.761719 65.253906 29.265625 62.800781 29.246094 60.429688 C 29.246094 59.648438 29.285156 58.925781 29.699219 58.226562 C 30.109375 57.503906 30.792969 56.617188 31.347656 55.9375 C 32.75 54.144531 34.007812 52.289062 35.121094 50.375 C 35.179688 50.269531 35.261719 50.0625 35.324219 49.796875 C 35.347656 49.734375 35.347656 49.671875 35.347656 49.609375 C 35.40625 47.980469 35.902344 46.375 37.261719 45.507812 C 37.613281 45.28125 37.964844 45.199219 38.335938 45.242188 C 38.335938 45.242188 38.355469 45.242188 38.355469 45.242188 C 38.457031 45.242188 38.539062 45.199219 38.582031 45.117188 C 40.703125 42.375 43.320312 40.128906 46.308594 38.378906 C 46.351562 38.335938 46.394531 38.273438 46.394531 38.234375 C 46.394531 38.214844 46.394531 38.214844 46.394531 38.191406 C 46.289062 37.757812 46.269531 37.304688 46.289062 36.875 C 46.453125 33.945312 47.277344 31.246094 48.742188 28.773438 C 49.320312 27.742188 50.019531 26.898438 50.804688 26.21875 C 52.144531 25.042969 53.75 24.816406 54.738281 26.570312 C 55.625 28.132812 55.976562 29.96875 56.058594 31.804688 C 56.058594 31.84375 56.101562 31.886719 56.140625 31.886719 C 56.140625 31.886719 56.164062 31.886719 56.164062 31.886719 C 56.492188 31.742188 57.089844 31.699219 57.171875 32.152344 C 57.214844 32.402344 57.191406 32.691406 57.109375 33.019531 C 56.925781 33.761719 56.71875 34.398438 56.53125 34.957031 C 56.53125 34.957031 56.53125 34.976562 56.53125 34.976562 C 56.53125 34.996094 56.53125 35.019531 56.574219 35.019531 C 58.863281 34.730469 61.148438 34.75 63.4375 35.082031 C 63.457031 35.082031 63.457031 35.082031 63.480469 35.082031 C 63.5625 35.082031 63.644531 35.039062 63.683594 34.976562 C 65.871094 32.605469 68.382812 30.667969 71.679688 30.214844 C 74.175781 29.867188 77.019531 30.277344 79.082031 31.804688 C 82.273438 34.195312 81.617188 38.253906 79.90625 41.285156 C 79.019531 42.851562 77.863281 44.128906 76.566406 45.386719 C 76.546875 45.386719 76.546875 45.386719 76.546875 45.386719 C 76.523438 45.425781 76.546875 45.449219 76.566406 45.46875 C 76.566406 45.46875 76.566406 45.488281 76.566406 45.488281 C 78.070312 46.085938 79.71875 46.726562 81.140625 47.527344 C 81.390625 47.671875 81.472656 47.859375 81.410156 48.066406 C 81.347656 48.3125 80.996094 48.4375 80.769531 48.519531 C 80.75 48.539062 80.75 48.539062 80.75 48.558594 C 80.75 48.558594 80.75 48.578125 80.769531 48.578125 C 80.851562 48.621094 80.976562 48.640625 81.164062 48.664062 C 85.304688 49.15625 89.363281 50.3125 93.34375 52.105469 C 97.855469 54.125 101.773438 56.925781 105.070312 60.492188 C 108.554688 64.265625 111.375 68.757812 113.148438 73.703125 C 114.59375 77.742188 115.128906 82.070312 115.148438 86.421875 C 115.191406 93.53125 113.480469 100.683594 109.210938 106.351562 C 107.707031 108.371094 105.875 110.121094 103.730469 111.398438 C 101.070312 113.007812 97.734375 113.585938 94.683594 113.789062 C 92.703125 113.914062 90.621094 113.976562 88.4375 113.976562 C 87.859375 113.976562 86.972656 114.058594 85.777344 114.203125 C 85.40625 114.242188 84.789062 114.429688 84.316406 114.613281 C 82.789062 115.234375 81.222656 115.832031 79.636719 115.851562 C 79.082031 115.871094 78.421875 115.75 78.542969 115.007812 C 78.542969 115.007812 78.542969 114.984375 78.542969 114.984375 C 78.542969 114.964844 78.523438 114.945312 78.503906 114.945312 C 78.484375 114.945312 78.484375 114.945312 78.484375 114.945312 C 77.082031 115.5 75.742188 115.914062 74.214844 115.726562 C 73.453125 115.644531 73.207031 115.210938 73.453125 114.449219 C 73.453125 114.449219 73.453125 114.449219 73.453125 114.429688 C 73.453125 114.410156 73.414062 114.367188 73.390625 114.367188 C 73.371094 114.367188 73.371094 114.367188 73.351562 114.367188 C 72.835938 114.59375 70.753906 115.5625 70.898438 114.203125 C 70.960938 113.480469 71.660156 112.820312 72.136719 112.347656 C 72.175781 112.304688 72.15625 112.265625 72.136719 112.222656 C 72.136719 112.222656 72.113281 112.222656 72.113281 112.222656 C 70.09375 111.089844 67.828125 111.648438 65.582031 111.996094 C 62.550781 112.492188 59.398438 112.675781 56.429688 112.71875 C 55.503906 112.738281 54.84375 112.71875 54.429688 112.65625 C 54.058594 112.617188 53.9375 112.390625 54.019531 111.976562 C 54.019531 111.976562 54.019531 111.957031 54.019531 111.957031 C 54.019531 111.9375 54 111.914062 53.976562 111.914062 C 53.976562 111.914062 53.957031 111.914062 53.957031 111.914062 C 53.523438 112.058594 51.691406 112.636719 51.421875 112.058594 C 51.402344 111.976562 51.378906 111.875 51.378906 111.730469 C 51.378906 111.707031 51.359375 111.6875 51.339844 111.6875 C 51.339844 111.6875 51.320312 111.6875 51.320312 111.6875 C 50.90625 112.058594 49.8125 112.285156 49.8125 111.398438 C 49.8125 110.945312 50.289062 110.347656 50.617188 110.019531 C 51.75 108.925781 53.542969 108.453125 55.070312 108.246094 C 57.191406 107.976562 59.292969 107.875 61.398438 107.957031 C 61.417969 107.957031 61.417969 107.9375 61.417969 107.9375 C 61.417969 107.917969 61.417969 107.917969 61.398438 107.917969 C 58.882812 106.226562 56.84375 104.105469 55.296875 101.527344 C 53.710938 98.890625 52.945312 96.167969 52.925781 93.140625 C 52.925781 93.097656 52.90625 93.078125 52.863281 93.058594 L 50.761719 91.945312 C 50.722656 91.945312 50.699219 91.921875 50.660156 91.921875 C 49.773438 91.71875 48.929688 92.046875 48.082031 92.5 C 46.765625 93.199219 45.855469 93.65625 45.382812 93.859375 C 45.011719 94.046875 44.125 94.375 43.796875 94.066406 C 43.136719 93.449219 44.289062 92.375 44.742188 91.945312 C 44.742188 91.945312 44.742188 91.945312 44.742188 91.921875 C 44.742188 91.921875 44.722656 91.921875 44.722656 91.921875 C 44.144531 92.210938 43.632812 92.480469 43.21875 92.707031 C 42.703125 92.996094 41.980469 93.304688 41.445312 93.140625 C 41.015625 93.015625 40.929688 92.460938 41.097656 92.089844 C 41.40625 91.386719 42.167969 90.808594 42.722656 90.316406 C 42.746094 90.316406 42.746094 90.316406 42.746094 90.296875 C 42.746094 90.273438 42.722656 90.273438 42.703125 90.273438 C 41.816406 90.707031 41.074219 91.035156 40.5 91.261719 C 40.023438 91.429688 39.695312 91.324219 39.488281 90.933594 C 39.117188 90.210938 39.570312 89.574219 40.128906 89.160156 C 40.726562 88.730469 41.382812 88.316406 42.066406 87.902344 C 42.066406 87.902344 42.085938 87.902344 42.085938 87.882812 C 42.085938 87.882812 42.085938 87.863281 42.066406 87.863281 C 41.40625 87.964844 40.808594 88.070312 40.273438 88.132812 C 39.859375 88.171875 39.613281 88.398438 39.21875 87.988281 C 38.890625 87.65625 38.726562 87.472656 38.707031 87.429688 C 38.683594 87.429688 38.683594 87.429688 38.683594 87.429688 C 38.664062 87.429688 38.664062 87.449219 38.664062 87.449219 C 38.664062 87.449219 38.664062 87.472656 38.664062 87.472656 Z M 39.839844 85.265625 L 40.355469 86.523438 C 40.355469 86.542969 40.375 86.566406 40.414062 86.566406 C 40.414062 86.566406 40.4375 86.566406 40.457031 86.542969 C 40.558594 86.460938 40.703125 86.378906 40.871094 86.296875 C 41.921875 85.78125 42.992188 85.371094 44.085938 85.058594 C 44.085938 85.058594 44.105469 85.058594 44.105469 85.039062 C 44.105469 85.039062 44.105469 85.019531 44.085938 85.019531 C 43.777344 84.832031 43.28125 84.542969 42.621094 84.152344 C 42.4375 84.050781 42.148438 83.96875 41.777344 83.925781 C 41.753906 83.925781 41.734375 83.945312 41.734375 83.96875 C 41.734375 83.988281 41.734375 83.988281 41.734375 83.988281 C 41.980469 84.542969 42.1875 85.246094 41.46875 85.453125 C 41.097656 85.574219 40.582031 85.554688 40.167969 85.347656 C 39.984375 85.265625 39.878906 85.203125 39.878906 85.203125 C 39.839844 85.203125 39.816406 85.226562 39.816406 85.246094 C 39.816406 85.246094 39.816406 85.265625 39.839844 85.265625 Z M 39.839844 85.265625 " fill-opacity="1" fill-rule="evenodd"/></g><g clip-path="url(#7aba5784fc)"><g transform="matrix(1, 0, 0, 1, 85, 84)"><g clip-path="url(#ab412051e4)"><g clip-path="url(#7c03cd9f71)"><g clip-path="url(#f559e1ad92)"><g transform="matrix(1, 0, 0, 1, 0, 0.000000000000014211)"><g clip-path="url(#f0d1ac52ee)"><g clip-path="url(#ec215e03c0)"><g clip-path="url(#07fc3705b3)"><path fill="#ffffff" d="M 0.589844 0.90625 L 71.109375 0.90625 L 71.109375 71.425781 L 0.589844 71.425781 Z M 0.589844 0.90625 " fill-opacity="1" fill-rule="nonzero"/></g></g></g></g></g></g><g clip-path="url(#942fe5ce37)"><path fill="#f51a01" d="M 35.839844 4.332031 C 18.292969 4.332031 4.015625 18.609375 4.015625 36.15625 C 4.015625 53.703125 18.292969 67.980469 35.839844 67.980469 C 53.386719 67.980469 67.664062 53.703125 67.664062 36.15625 C 67.664062 18.609375 53.386719 4.332031 35.839844 4.332031 Z M 35.839844 9.226562 C 50.738281 9.226562 62.765625 21.253906 62.765625 36.15625 C 62.765625 51.054688 50.738281 63.082031 35.839844 63.082031 C 20.9375 63.082031 8.910156 51.054688 8.910156 36.15625 C 8.910156 21.253906 20.9375 9.226562 35.839844 9.226562 Z M 35.824219 18.984375 C 35.5 18.992188 35.191406 19.058594 34.890625 19.1875 C 34.59375 19.316406 34.332031 19.496094 34.105469 19.726562 C 33.882812 19.960938 33.707031 20.226562 33.589844 20.527344 C 33.46875 20.828125 33.410156 21.144531 33.414062 21.46875 L 33.414062 44.167969 C 32.261719 43.09375 31.039062 42.0625 29.585938 41.320312 C 29.296875 41.171875 28.988281 41.082031 28.664062 41.058594 C 28.34375 41.03125 28.027344 41.066406 27.714844 41.167969 C 27.40625 41.265625 27.128906 41.421875 26.882812 41.632812 C 26.632812 41.84375 26.4375 42.09375 26.289062 42.382812 C 26.140625 42.671875 26.054688 42.976562 26.027344 43.300781 C 26 43.625 26.039062 43.941406 26.136719 44.25 C 26.238281 44.558594 26.390625 44.839844 26.601562 45.085938 C 26.8125 45.332031 27.0625 45.53125 27.351562 45.679688 C 29.808594 46.9375 31.796875 49.058594 32.964844 51.398438 C 32.96875 51.410156 32.976562 51.417969 32.980469 51.429688 C 33.566406 52.5625 34.761719 53.285156 35.984375 53.296875 C 37.203125 53.308594 38.539062 52.496094 39.066406 51.277344 C 40.015625 49.183594 41.972656 46.914062 44.363281 45.667969 C 44.660156 45.523438 44.917969 45.328125 45.132812 45.078125 C 45.347656 44.828125 45.507812 44.546875 45.609375 44.234375 C 45.714844 43.921875 45.75 43.601562 45.726562 43.273438 C 45.699219 42.945312 45.609375 42.632812 45.457031 42.339844 C 45.304688 42.046875 45.101562 41.796875 44.847656 41.585938 C 44.59375 41.375 44.308594 41.222656 43.992188 41.128906 C 43.675781 41.03125 43.355469 41.003906 43.027344 41.039062 C 42.699219 41.070312 42.390625 41.167969 42.101562 41.328125 C 40.636719 42.09375 39.4375 43.148438 38.3125 44.246094 L 38.3125 21.46875 C 38.316406 21.136719 38.253906 20.816406 38.132812 20.511719 C 38.007812 20.203125 37.828125 19.933594 37.59375 19.699219 C 37.359375 19.46875 37.089844 19.289062 36.78125 19.164062 C 36.472656 19.039062 36.15625 18.980469 35.824219 18.984375 Z M 35.824219 18.984375 " fill-opacity="1" fill-rule="nonzero"/></g></g></g></g></svg>