<svg xmlns="http://www.w3.org/2000/svg" xmlns:xlink="http://www.w3.org/1999/xlink" width="86" zoomAndPan="magnify" viewBox="0 0 64.5 64.499999" height="86" preserveAspectRatio="xMidYMid meet" version="1.0"><defs><clipPath id="9e8e139afa"><path d="M 11.894531 11.894531 L 42.410156 11.894531 L 42.410156 42.410156 L 11.894531 42.410156 Z M 11.894531 11.894531 " clip-rule="nonzero"/></clipPath><clipPath id="d8f9920b3a"><path d="M 0 0 L 64.003906 0 L 64.003906 64.003906 L 0 64.003906 Z M 0 0 " clip-rule="nonzero"/></clipPath><clipPath id="24d7ba55c9"><path d="M 0 0 L 63.632812 0 L 63.632812 63.632812 L 0 63.632812 Z M 0 0 " clip-rule="nonzero"/></clipPath><clipPath id="635e29b440"><rect x="0" width="65" y="0" height="65"/></clipPath></defs><g clip-path="url(#9e8e139afa)"><path fill="#2980b9" d="M 27.160156 42.410156 C 28.160156 42.410156 29.152344 42.3125 30.132812 42.117188 C 31.117188 41.921875 32.070312 41.632812 32.996094 41.25 C 33.921875 40.867188 34.800781 40.394531 35.632812 39.839844 C 36.464844 39.28125 37.234375 38.652344 37.941406 37.941406 C 38.652344 37.234375 39.28125 36.464844 39.839844 35.632812 C 40.394531 34.800781 40.867188 33.921875 41.25 32.996094 C 41.632812 32.070312 41.921875 31.117188 42.117188 30.132812 C 42.3125 29.152344 42.410156 28.160156 42.410156 27.160156 C 42.410156 26.15625 42.3125 25.164062 42.117188 24.183594 C 41.921875 23.199219 41.632812 22.246094 41.25 21.324219 C 40.867188 20.398438 40.394531 19.519531 39.839844 18.6875 C 39.28125 17.851562 38.652344 17.082031 37.941406 16.375 C 37.234375 15.667969 36.464844 15.035156 35.632812 14.476562 C 34.800781 13.921875 33.921875 13.453125 32.996094 13.070312 C 32.070312 12.683594 31.117188 12.394531 30.132812 12.199219 C 29.152344 12.003906 28.160156 11.90625 27.160156 11.90625 C 26.15625 11.90625 25.164062 12.003906 24.183594 12.199219 C 23.199219 12.394531 22.246094 12.683594 21.324219 13.070312 C 20.398438 13.453125 19.519531 13.921875 18.6875 14.476562 C 17.851562 15.035156 17.082031 15.667969 16.375 16.375 C 15.667969 17.082031 15.035156 17.851562 14.476562 18.6875 C 13.921875 19.519531 13.453125 20.398438 13.070312 21.324219 C 12.683594 22.246094 12.394531 23.199219 12.199219 24.183594 C 12.003906 25.164062 11.90625 26.15625 11.90625 27.160156 C 11.910156 28.160156 12.007812 29.152344 12.203125 30.132812 C 12.398438 31.113281 12.691406 32.066406 13.074219 32.992188 C 13.457031 33.917969 13.925781 34.796875 14.484375 35.628906 C 15.039062 36.460938 15.671875 37.230469 16.378906 37.9375 C 17.085938 38.644531 17.859375 39.277344 18.691406 39.835938 C 19.523438 40.390625 20.398438 40.859375 21.324219 41.242188 C 22.25 41.628906 23.203125 41.917969 24.183594 42.113281 C 25.167969 42.308594 26.15625 42.410156 27.160156 42.410156 Z M 27.160156 42.410156 " fill-opacity="1" fill-rule="nonzero"/></g><path fill="#fafafa" d="M 17.261719 26.085938 C 17.375 26.359375 17.578125 26.496094 17.875 26.496094 L 22.515625 26.496094 L 22.515625 36.429688 C 22.515625 36.613281 22.582031 36.769531 22.710938 36.898438 C 22.839844 37.03125 22.996094 37.09375 23.179688 37.09375 L 31.136719 37.09375 C 31.320312 37.09375 31.476562 37.03125 31.605469 36.898438 C 31.734375 36.769531 31.800781 36.613281 31.800781 36.429688 L 31.800781 26.496094 L 36.441406 26.496094 C 36.738281 26.496094 36.941406 26.359375 37.054688 26.085938 C 37.167969 25.8125 37.121094 25.570312 36.910156 25.363281 L 27.628906 16.070312 C 27.5 15.941406 27.34375 15.875 27.160156 15.875 C 26.976562 15.875 26.820312 15.941406 26.691406 16.070312 L 17.40625 25.363281 C 17.199219 25.570312 17.148438 25.8125 17.261719 26.085938 Z M 17.261719 26.085938 " fill-opacity="1" fill-rule="nonzero"/><g clip-path="url(#d8f9920b3a)"><g transform="matrix(1, 0, 0, 1, 0, -0.000000000000002345)"><g clip-path="url(#635e29b440)"><g clip-path="url(#24d7ba55c9)"><path fill="#2980b9" d="M 31.816406 63.632812 C 32.859375 63.632812 33.898438 63.582031 34.933594 63.480469 C 35.972656 63.375 37 63.222656 38.023438 63.019531 C 39.042969 62.816406 40.054688 62.5625 41.050781 62.261719 C 42.046875 61.960938 43.027344 61.609375 43.992188 61.210938 C 44.953125 60.8125 45.894531 60.367188 46.8125 59.875 C 47.734375 59.382812 48.625 58.847656 49.492188 58.269531 C 50.359375 57.691406 51.195312 57.070312 52 56.410156 C 52.804688 55.75 53.578125 55.050781 54.3125 54.3125 C 55.050781 53.578125 55.75 52.804688 56.410156 52 C 57.070312 51.195312 57.691406 50.359375 58.269531 49.492188 C 58.847656 48.625 59.382812 47.734375 59.875 46.8125 C 60.367188 45.894531 60.8125 44.953125 61.210938 43.992188 C 61.609375 43.027344 61.960938 42.046875 62.261719 41.050781 C 62.5625 40.054688 62.816406 39.042969 63.019531 38.023438 C 63.222656 37 63.375 35.972656 63.480469 34.933594 C 63.582031 33.898438 63.632812 32.859375 63.632812 31.816406 C 63.632812 30.773438 63.582031 29.734375 63.480469 28.699219 C 63.375 27.660156 63.222656 26.632812 63.019531 25.609375 C 62.816406 24.585938 62.5625 23.578125 62.261719 22.582031 C 61.960938 21.582031 61.609375 20.601562 61.210938 19.640625 C 60.8125 18.679688 60.367188 17.738281 59.875 16.816406 C 59.382812 15.898438 58.847656 15.007812 58.269531 14.140625 C 57.691406 13.273438 57.070312 12.4375 56.410156 11.632812 C 55.75 10.828125 55.050781 10.054688 54.3125 9.320312 C 53.578125 8.582031 52.804688 7.882812 52 7.222656 C 51.195312 6.5625 50.359375 5.941406 49.492188 5.363281 C 48.625 4.78125 47.734375 4.246094 46.8125 3.757812 C 45.894531 3.265625 44.953125 2.820312 43.992188 2.421875 C 43.027344 2.023438 42.046875 1.671875 41.050781 1.371094 C 40.054688 1.066406 39.042969 0.816406 38.023438 0.613281 C 37 0.40625 35.972656 0.253906 34.933594 0.152344 C 33.898438 0.0507812 32.859375 0 31.816406 0 C 30.773438 0 29.734375 0.0507812 28.699219 0.152344 C 27.660156 0.253906 26.632812 0.40625 25.609375 0.613281 C 24.585938 0.816406 23.578125 1.066406 22.582031 1.371094 C 21.582031 1.671875 20.601562 2.023438 19.640625 2.421875 C 18.679688 2.820312 17.738281 3.265625 16.816406 3.757812 C 15.898438 4.246094 15.007812 4.78125 14.140625 5.363281 C 13.273438 5.941406 12.4375 6.5625 11.632812 7.222656 C 10.828125 7.882812 10.054688 8.582031 9.320312 9.320312 C 8.582031 10.054688 7.882812 10.828125 7.222656 11.632812 C 6.5625 12.4375 5.941406 13.273438 5.363281 14.140625 C 4.78125 15.007812 4.246094 15.898438 3.757812 16.816406 C 3.265625 17.738281 2.820312 18.679688 2.421875 19.640625 C 2.023438 20.601562 1.671875 21.582031 1.371094 22.582031 C 1.066406 23.578125 0.816406 24.585938 0.613281 25.609375 C 0.40625 26.632812 0.253906 27.660156 0.152344 28.699219 C 0.0507812 29.734375 0 30.773438 0 31.816406 C 0 32.859375 0.0546875 33.898438 0.15625 34.933594 C 0.257812 35.96875 0.414062 37 0.617188 38.019531 C 0.820312 39.042969 1.074219 40.050781 1.378906 41.046875 C 1.679688 42.042969 2.03125 43.023438 2.429688 43.984375 C 2.832031 44.949219 3.277344 45.886719 3.765625 46.808594 C 4.257812 47.726562 4.792969 48.617188 5.371094 49.484375 C 5.953125 50.347656 6.570312 51.183594 7.234375 51.988281 C 7.894531 52.796875 8.59375 53.566406 9.328125 54.300781 C 10.066406 55.039062 10.835938 55.738281 11.640625 56.398438 C 12.445312 57.058594 13.28125 57.679688 14.148438 58.257812 C 15.015625 58.835938 15.90625 59.371094 16.824219 59.863281 C 17.742188 60.355469 18.683594 60.800781 19.644531 61.199219 C 20.609375 61.597656 21.585938 61.949219 22.585938 62.253906 C 23.582031 62.558594 24.589844 62.808594 25.613281 63.015625 C 26.632812 63.21875 27.660156 63.371094 28.699219 63.476562 C 29.734375 63.578125 30.773438 63.628906 31.816406 63.632812 Z M 31.816406 63.632812 " fill-opacity="1" fill-rule="nonzero"/></g><path fill="#fafafa" d="M 11.171875 29.578125 C 11.277344 29.835938 11.449219 30.042969 11.679688 30.199219 C 11.914062 30.355469 12.167969 30.433594 12.449219 30.433594 L 22.132812 30.433594 L 22.132812 51.160156 C 22.132812 51.34375 22.167969 51.519531 22.238281 51.6875 C 22.308594 51.859375 22.410156 52.007812 22.539062 52.136719 C 22.667969 52.269531 22.816406 52.367188 22.988281 52.4375 C 23.15625 52.507812 23.332031 52.542969 23.515625 52.542969 L 40.117188 52.542969 C 40.300781 52.542969 40.476562 52.507812 40.644531 52.4375 C 40.816406 52.367188 40.964844 52.269531 41.09375 52.136719 C 41.222656 52.007812 41.324219 51.859375 41.394531 51.6875 C 41.464844 51.519531 41.5 51.34375 41.5 51.160156 L 41.5 30.433594 L 51.183594 30.433594 C 51.460938 30.433594 51.71875 30.355469 51.953125 30.199219 C 52.183594 30.042969 52.355469 29.835938 52.460938 29.578125 C 52.570312 29.320312 52.597656 29.054688 52.542969 28.777344 C 52.484375 28.503906 52.359375 28.269531 52.160156 28.070312 L 32.796875 8.679688 C 32.664062 8.550781 32.515625 8.453125 32.347656 8.382812 C 32.175781 8.3125 32 8.277344 31.816406 8.277344 C 31.632812 8.277344 31.457031 8.3125 31.289062 8.382812 C 31.117188 8.453125 30.96875 8.550781 30.839844 8.679688 L 11.472656 28.070312 C 11.273438 28.265625 11.148438 28.503906 11.09375 28.777344 C 11.039062 29.050781 11.066406 29.320312 11.171875 29.578125 Z M 11.171875 29.578125 " fill-opacity="1" fill-rule="nonzero"/></g></g></g></svg>