<svg xmlns="http://www.w3.org/2000/svg" xmlns:xlink="http://www.w3.org/1999/xlink" width="240" zoomAndPan="magnify" viewBox="0 0 180 179.999997" height="240" preserveAspectRatio="xMidYMid meet" version="1.0"><defs><clipPath id="6d59c9dad7"><path d="M 90 0 C 40.292969 0 0 40.292969 0 90 C 0 139.707031 40.292969 180 90 180 C 139.707031 180 180 139.707031 180 90 C 180 40.292969 139.707031 0 90 0 Z M 90 0 " clip-rule="nonzero"/></clipPath><clipPath id="c5eb006d0d"><path d="M 0 0 L 180 0 L 180 180 L 0 180 Z M 0 0 " clip-rule="nonzero"/></clipPath><clipPath id="42e7eb5a40"><path d="M 90 0 C 40.292969 0 0 40.292969 0 90 C 0 139.707031 40.292969 180 90 180 C 139.707031 180 180 139.707031 180 90 C 180 40.292969 139.707031 0 90 0 Z M 90 0 " clip-rule="nonzero"/></clipPath><clipPath id="1c8df5f06a"><rect x="0" width="180" y="0" height="180"/></clipPath><clipPath id="7200043cad"><path d="M 30.566406 26.546875 L 160.316406 26.546875 L 160.316406 146.546875 L 30.566406 146.546875 Z M 30.566406 26.546875 " clip-rule="nonzero"/></clipPath></defs><g clip-path="url(#6d59c9dad7)"><g transform="matrix(1, 0, 0, 1, 0, 0)"><g clip-path="url(#1c8df5f06a)"><g clip-path="url(#c5eb006d0d)"><g clip-path="url(#42e7eb5a40)"><rect x="-39.6" width="259.2" fill="#ffffff" height="259.199995" y="-39.599999" fill-opacity="1"/></g></g></g></g></g><path fill="#ff8d8d" d="M 122.96875 117.566406 L 146.246094 117.566406 C 147.058594 117.566406 147.835938 117.886719 148.410156 118.464844 C 150.332031 120.386719 148.964844 123.695312 146.246094 123.695312 L 122.96875 123.695312 C 122.15625 123.695312 121.378906 123.371094 120.804688 122.796875 C 118.882812 120.875 120.253906 117.566406 122.96875 117.566406 Z M 110.007812 124.5 L 109.921875 123.824219 C 108.296875 111.121094 116.566406 99.210938 129.054688 96.363281 L 129.847656 96.183594 L 129.847656 58.0625 L 113.632812 67.425781 L 113.632812 83.292969 C 113.632812 83.597656 113.453125 83.875 113.175781 83.996094 L 113.132812 84.015625 L 99.015625 91.726562 C 98.507812 92.003906 97.894531 91.628906 97.894531 91.058594 L 97.886719 76.519531 L 82.25 85.542969 L 82.25 140.523438 L 110.007812 124.496094 Z M 80.71875 85.542969 L 80.71875 140.523438 L 33.121094 113.042969 L 33.121094 58.0625 Z M 53.78125 45.25 L 67.027344 37.605469 L 112.476562 66.34375 L 99.039062 74.101562 Z M 53.78125 45.25 " fill-opacity="1" fill-rule="evenodd"/><g clip-path="url(#7200043cad)"><path fill="#bf1b1b" d="M 109.65625 127.632812 L 82.371094 143.386719 C 81.792969 143.71875 81.109375 143.6875 80.574219 143.371094 L 31.46875 115.019531 C 30.894531 114.691406 30.574219 114.09375 30.574219 113.476562 L 30.566406 56.746094 C 30.566406 56.023438 30.996094 55.402344 31.613281 55.121094 L 80.597656 26.839844 C 81.175781 26.507812 81.863281 26.535156 82.394531 26.851562 L 131.5 55.203125 C 132.074219 55.53125 132.394531 56.128906 132.394531 56.746094 L 132.402344 94.8125 C 147.558594 93.535156 160.515625 105.46875 160.515625 120.628906 C 160.515625 134.9375 148.917969 146.539062 134.609375 146.539062 C 122.851562 146.539062 112.746094 138.664062 109.65625 127.632812 Z M 146.246094 115.011719 L 122.96875 115.011719 C 121.417969 115.011719 120.015625 115.640625 119 116.660156 C 115.46875 120.1875 117.984375 126.246094 122.96875 126.246094 L 146.246094 126.246094 C 147.796875 126.246094 149.199219 125.617188 150.214844 124.601562 C 153.746094 121.070312 151.230469 115.011719 146.246094 115.011719 Z M 147.6875 119.1875 C 147.320312 118.816406 146.808594 118.585938 146.246094 118.585938 L 122.96875 118.585938 C 121.15625 118.585938 120.242188 120.792969 121.527344 122.074219 C 121.894531 122.445312 122.40625 122.671875 122.96875 122.671875 L 146.246094 122.671875 C 148.058594 122.671875 148.972656 120.46875 147.6875 119.1875 Z M 128.828125 95.367188 L 128.828125 59.832031 L 114.65625 68.015625 L 114.65625 83.292969 C 114.65625 84.027344 114.214844 84.65625 113.585938 84.933594 L 99.503906 92.621094 C 98.3125 93.273438 96.871094 92.394531 96.871094 91.058594 L 96.867188 78.285156 L 83.273438 86.132812 L 83.273438 138.757812 L 108.910156 123.953125 C 107.195312 110.582031 115.960938 98.300781 128.828125 95.367188 Z M 150.402344 104.835938 C 141.679688 96.113281 127.535156 96.113281 118.8125 104.835938 C 110.09375 113.558594 110.09375 127.699219 118.8125 136.421875 C 127.535156 145.144531 141.679688 145.144531 150.402344 136.421875 C 159.121094 127.699219 159.121094 113.558594 150.402344 104.835938 Z M 111.082031 70.078125 L 100.441406 76.222656 L 100.441406 88.054688 L 111.082031 82.242188 Z M 70.488281 36.785156 L 113.988281 64.292969 L 127.058594 56.746094 L 81.484375 30.433594 Z M 110.5 66.304688 L 67 38.796875 L 55.75 45.292969 L 99.0625 72.90625 Z M 95.589844 74.914062 L 52.304688 47.320312 L 35.914062 56.746094 L 81.484375 83.058594 Z M 79.699219 86.132812 L 34.140625 59.832031 L 34.140625 112.453125 L 79.699219 138.757812 Z M 79.699219 86.132812 " fill-opacity="1" fill-rule="evenodd"/></g></svg>