<svg xmlns="http://www.w3.org/2000/svg" xmlns:xlink="http://www.w3.org/1999/xlink" width="209" zoomAndPan="magnify" viewBox="0 0 156.75 155.999997" height="208" preserveAspectRatio="xMidYMid meet" version="1.0"><defs><clipPath id="a9b249008d"><path d="M 0 0.125 L 141.617188 0.125 L 141.617188 141.742188 L 0 141.742188 Z M 0 0.125 " clip-rule="nonzero"/></clipPath><clipPath id="04f741dba7"><path d="M 70.808594 0.125 C 31.703125 0.125 0 31.828125 0 70.933594 C 0 110.039062 31.703125 141.742188 70.808594 141.742188 C 109.917969 141.742188 141.617188 110.039062 141.617188 70.933594 C 141.617188 31.828125 109.917969 0.125 70.808594 0.125 Z M 70.808594 0.125 " clip-rule="nonzero"/></clipPath><clipPath id="54fb016b92"><path d="M 0 0.125 L 141.617188 0.125 L 141.617188 141.742188 L 0 141.742188 Z M 0 0.125 " clip-rule="nonzero"/></clipPath><clipPath id="d6e4c0a7e6"><path d="M 70.808594 0.125 C 31.703125 0.125 0 31.828125 0 70.933594 C 0 110.039062 31.703125 141.742188 70.808594 141.742188 C 109.917969 141.742188 141.617188 110.039062 141.617188 70.933594 C 141.617188 31.828125 109.917969 0.125 70.808594 0.125 Z M 70.808594 0.125 " clip-rule="nonzero"/></clipPath><clipPath id="4f27543593"><rect x="0" width="142" y="0" height="142"/></clipPath><clipPath id="c026fec022"><path d="M 29 17.730469 L 113 17.730469 L 113 120 L 29 120 Z M 29 17.730469 " clip-rule="nonzero"/></clipPath><clipPath id="657bc9bae4"><path d="M 85 84 L 156.5 84 L 156.5 155.875 L 85 155.875 Z M 85 84 " clip-rule="nonzero"/></clipPath><clipPath id="ed402c3854"><path d="M 0.589844 0.90625 L 71.109375 0.90625 L 71.109375 71.425781 L 0.589844 71.425781 Z M 0.589844 0.90625 " clip-rule="nonzero"/></clipPath><clipPath id="2b32d928ee"><path d="M 35.851562 0.90625 C 16.375 0.90625 0.589844 16.691406 0.589844 36.164062 C 0.589844 55.640625 16.375 71.425781 35.851562 71.425781 C 55.324219 71.425781 71.109375 55.640625 71.109375 36.164062 C 71.109375 16.691406 55.324219 0.90625 35.851562 0.90625 Z M 35.851562 0.90625 " clip-rule="nonzero"/></clipPath><clipPath id="458faafcf4"><path d="M 0.589844 0.90625 L 71.109375 0.90625 L 71.109375 71.425781 L 0.589844 71.425781 Z M 0.589844 0.90625 " clip-rule="nonzero"/></clipPath><clipPath id="5574c8d4f3"><path d="M 35.851562 0.90625 C 16.375 0.90625 0.589844 16.691406 0.589844 36.164062 C 0.589844 55.640625 16.375 71.425781 35.851562 71.425781 C 55.324219 71.425781 71.109375 55.640625 71.109375 36.164062 C 71.109375 16.691406 55.324219 0.90625 35.851562 0.90625 Z M 35.851562 0.90625 " clip-rule="nonzero"/></clipPath><clipPath id="8aee770bcf"><rect x="0" width="72" y="0" height="72"/></clipPath><clipPath id="19da00aadb"><path d="M 4.019531 4.335938 L 67.890625 4.335938 L 67.890625 68 L 4.019531 68 Z M 4.019531 4.335938 " clip-rule="nonzero"/></clipPath><clipPath id="418a42da42"><rect x="0" width="72" y="0" height="72"/></clipPath></defs><g clip-path="url(#a9b249008d)"><g clip-path="url(#04f741dba7)"><g transform="matrix(1, 0, 0, 1, 0, 0.000000000000008979)"><g clip-path="url(#4f27543593)"><g clip-path="url(#54fb016b92)"><g clip-path="url(#d6e4c0a7e6)"><path fill="#f51a01" d="M 0 0.125 L 141.617188 0.125 L 141.617188 141.742188 L 0 141.742188 Z M 0 0.125 " fill-opacity="1" fill-rule="nonzero"/></g></g></g></g></g></g><g clip-path="url(#c026fec022)"><path fill="#fee4e4" d="M 66.945312 17.867188 C 66.054688 17.730469 65.359375 18.574219 65.480469 19.636719 C 65.671875 21.328125 66.164062 24.003906 67.402344 27.078125 C 65.347656 26.601562 63.640625 26.632812 62.542969 26.75 C 61.757812 26.832031 61.273438 27.671875 61.464844 28.617188 C 62.097656 31.753906 64.21875 38.746094 70.988281 43.695312 C 74.644531 46.367188 77.167969 47.542969 79.066406 48.074219 C 78.710938 48.945312 78.507812 49.878906 78.410156 50.824219 C 78.222656 52.558594 77.988281 55.21875 77.878906 58.191406 C 77.78125 61.011719 74.109375 61.734375 68.996094 62.742188 C 62.320312 64.054688 53.179688 65.855469 46.300781 73.4375 C 37.472656 83.164062 35.34375 94.8125 37.867188 105.261719 C 32.851562 104.859375 28.6875 106.289062 29.816406 112.679688 C 31.136719 120.164062 37.027344 118.988281 42.410156 116.113281 C 42.46875 116.207031 42.527344 116.300781 42.585938 116.394531 C 44.628906 119.140625 46.863281 119.132812 52.675781 119.109375 C 53.25 119.105469 53.859375 119.101562 54.507812 119.101562 L 79.269531 119.101562 C 79.753906 119.101562 80.113281 118.664062 79.964844 118.199219 C 79.089844 115.511719 76.226562 110.742188 69.773438 110.378906 C 72.90625 110.433594 84.226562 110.316406 84.226562 105.714844 C 84.226562 112.421875 88.734375 118.90625 100.707031 119.097656 C 101.03125 119.105469 101.339844 118.898438 101.382812 118.574219 C 101.621094 116.730469 99.765625 114.769531 97.757812 112.648438 C 94.761719 109.480469 91.425781 105.957031 94.210938 101.921875 C 100.25 93.175781 107.058594 80.789062 99.164062 64.769531 C 103.136719 65.128906 111.132812 64.210938 111.316406 57.648438 C 111.910156 57.363281 112.941406 56.550781 112.324219 55.558594 C 112.066406 55.144531 111.542969 54.511719 110.898438 53.730469 C 109.609375 52.164062 107.835938 50.011719 106.75 47.894531 C 105.128906 44.730469 95.796875 38.015625 87.914062 40.21875 C 87.292969 37.617188 86.027344 34.039062 81.585938 27.875 C 76.015625 20.144531 69.800781 18.300781 66.945312 17.867188 Z M 66.945312 17.867188 " fill-opacity="1" fill-rule="nonzero"/></g><g clip-path="url(#657bc9bae4)"><g transform="matrix(1, 0, 0, 1, 85, 84)"><g clip-path="url(#418a42da42)"><g clip-path="url(#ed402c3854)"><g clip-path="url(#2b32d928ee)"><g transform="matrix(1, 0, 0, 1, 0, 0.000000000000014211)"><g clip-path="url(#8aee770bcf)"><g clip-path="url(#458faafcf4)"><g clip-path="url(#5574c8d4f3)"><path fill="#ffffff" d="M 0.589844 0.90625 L 71.109375 0.90625 L 71.109375 71.425781 L 0.589844 71.425781 Z M 0.589844 0.90625 " fill-opacity="1" fill-rule="nonzero"/></g></g></g></g></g></g><g clip-path="url(#19da00aadb)"><path fill="#f51a01" d="M 35.839844 4.332031 C 18.292969 4.332031 4.015625 18.609375 4.015625 36.15625 C 4.015625 53.703125 18.292969 67.980469 35.839844 67.980469 C 53.386719 67.980469 67.664062 53.703125 67.664062 36.15625 C 67.664062 18.609375 53.386719 4.332031 35.839844 4.332031 Z M 35.839844 9.226562 C 50.738281 9.226562 62.765625 21.253906 62.765625 36.15625 C 62.765625 51.054688 50.738281 63.082031 35.839844 63.082031 C 20.9375 63.082031 8.910156 51.054688 8.910156 36.15625 C 8.910156 21.253906 20.9375 9.226562 35.839844 9.226562 Z M 35.824219 18.984375 C 35.5 18.992188 35.191406 19.058594 34.890625 19.1875 C 34.59375 19.316406 34.332031 19.496094 34.105469 19.726562 C 33.882812 19.960938 33.707031 20.226562 33.589844 20.527344 C 33.46875 20.828125 33.410156 21.144531 33.414062 21.46875 L 33.414062 44.167969 C 32.261719 43.09375 31.039062 42.0625 29.585938 41.320312 C 29.296875 41.171875 28.988281 41.082031 28.664062 41.058594 C 28.34375 41.03125 28.027344 41.066406 27.714844 41.167969 C 27.40625 41.265625 27.128906 41.421875 26.882812 41.632812 C 26.632812 41.84375 26.4375 42.09375 26.289062 42.382812 C 26.140625 42.671875 26.054688 42.976562 26.027344 43.300781 C 26 43.625 26.039062 43.941406 26.136719 44.25 C 26.238281 44.558594 26.390625 44.839844 26.601562 45.085938 C 26.8125 45.332031 27.0625 45.53125 27.351562 45.679688 C 29.808594 46.9375 31.796875 49.058594 32.964844 51.398438 C 32.96875 51.410156 32.976562 51.417969 32.980469 51.429688 C 33.566406 52.5625 34.761719 53.285156 35.984375 53.296875 C 37.203125 53.308594 38.539062 52.496094 39.066406 51.277344 C 40.015625 49.183594 41.972656 46.914062 44.363281 45.667969 C 44.660156 45.523438 44.917969 45.328125 45.132812 45.078125 C 45.347656 44.828125 45.507812 44.546875 45.609375 44.234375 C 45.714844 43.921875 45.75 43.601562 45.726562 43.273438 C 45.699219 42.945312 45.609375 42.632812 45.457031 42.339844 C 45.304688 42.046875 45.101562 41.796875 44.847656 41.585938 C 44.59375 41.375 44.308594 41.222656 43.992188 41.128906 C 43.675781 41.03125 43.355469 41.003906 43.027344 41.039062 C 42.699219 41.070312 42.390625 41.167969 42.101562 41.328125 C 40.636719 42.09375 39.4375 43.148438 38.3125 44.246094 L 38.3125 21.46875 C 38.316406 21.136719 38.253906 20.816406 38.132812 20.511719 C 38.007812 20.203125 37.828125 19.933594 37.59375 19.699219 C 37.359375 19.46875 37.089844 19.289062 36.78125 19.164062 C 36.472656 19.039062 36.15625 18.980469 35.824219 18.984375 Z M 35.824219 18.984375 " fill-opacity="1" fill-rule="nonzero"/></g></g></g></g></svg>