<svg xmlns="http://www.w3.org/2000/svg" xmlns:xlink="http://www.w3.org/1999/xlink" width="86" zoomAndPan="magnify" viewBox="0 0 64.5 64.499999" height="86" preserveAspectRatio="xMidYMid meet" version="1.0"><defs><clipPath id="90db4280f4"><path d="M 11.90625 11.90625 L 49.121094 11.90625 L 49.121094 49.121094 L 11.90625 49.121094 Z M 11.90625 11.90625 " clip-rule="nonzero"/></clipPath></defs><g clip-path="url(#90db4280f4)"><path fill="#8e44ad" d="M 30.519531 11.90625 C 20.242188 11.90625 11.90625 20.242188 11.90625 30.519531 C 11.90625 40.796875 20.242188 49.132812 30.519531 49.132812 C 40.796875 49.132812 49.128906 40.796875 49.128906 30.519531 C 49.128906 20.238281 40.796875 11.90625 30.519531 11.90625 Z M 42.710938 28.585938 L 37.757812 33.414062 C 37.496094 33.667969 37.398438 33.972656 37.457031 34.332031 L 38.628906 41.152344 C 38.773438 41.996094 37.886719 42.640625 37.125 42.242188 L 31 39.023438 C 30.679688 38.851562 30.359375 38.851562 30.039062 39.023438 L 23.914062 42.242188 C 23.152344 42.640625 22.265625 41.996094 22.410156 41.152344 L 23.582031 34.332031 C 23.640625 33.972656 23.542969 33.667969 23.28125 33.414062 L 18.328125 28.585938 C 17.710938 27.984375 18.050781 26.941406 18.902344 26.816406 L 25.75 25.824219 C 26.105469 25.769531 26.367188 25.582031 26.527344 25.257812 L 29.589844 19.050781 C 29.96875 18.28125 31.066406 18.28125 31.449219 19.050781 L 34.511719 25.257812 C 34.671875 25.582031 34.929688 25.769531 35.289062 25.824219 L 42.136719 26.816406 C 42.988281 26.941406 43.324219 27.984375 42.710938 28.585938 Z M 42.710938 28.585938 " fill-opacity="1" fill-rule="nonzero"/></g><path fill="#ffffff" d="M 31.449219 19.050781 L 34.511719 25.257812 C 34.671875 25.582031 34.929688 25.769531 35.289062 25.824219 L 42.136719 26.816406 C 42.984375 26.941406 43.324219 27.984375 42.710938 28.585938 L 37.757812 33.414062 C 37.496094 33.667969 37.398438 33.972656 37.457031 34.332031 L 38.628906 41.152344 C 38.773438 41.996094 37.886719 42.640625 37.125 42.242188 L 31 39.023438 C 30.679688 38.851562 30.359375 38.851562 30.039062 39.023438 L 23.914062 42.242188 C 23.152344 42.640625 22.265625 41.996094 22.410156 41.152344 L 23.582031 34.332031 C 23.640625 33.972656 23.542969 33.667969 23.28125 33.414062 L 18.328125 28.585938 C 17.710938 27.984375 18.050781 26.941406 18.902344 26.816406 L 25.75 25.824219 C 26.105469 25.769531 26.367188 25.582031 26.527344 25.257812 L 29.589844 19.050781 C 29.96875 18.28125 31.066406 18.28125 31.449219 19.050781 Z M 31.449219 19.050781 " fill-opacity="1" fill-rule="nonzero"/><path fill="#8e44ad" d="M 31.8125 0 C 14.246094 0 0 14.246094 0 31.816406 C 0 49.386719 14.246094 63.632812 31.8125 63.632812 C 49.382812 63.632812 63.628906 49.386719 63.628906 31.816406 C 63.628906 14.242188 49.386719 0 31.8125 0 Z M 52.65625 28.507812 L 44.1875 36.765625 C 43.742188 37.199219 43.574219 37.71875 43.679688 38.332031 L 45.679688 49.988281 C 45.925781 51.4375 44.410156 52.539062 43.109375 51.855469 L 32.640625 46.351562 C 32.089844 46.0625 31.542969 46.0625 30.992188 46.351562 L 20.523438 51.855469 C 19.222656 52.539062 17.707031 51.4375 17.953125 49.988281 L 19.953125 38.332031 C 20.058594 37.71875 19.890625 37.199219 19.445312 36.765625 L 10.972656 28.507812 C 9.921875 27.484375 10.503906 25.699219 11.957031 25.488281 L 23.660156 23.789062 C 24.273438 23.699219 24.71875 23.375 24.992188 22.820312 L 30.230469 12.210938 C 30.878906 10.898438 32.753906 10.898438 33.402344 12.210938 L 38.636719 22.820312 C 38.914062 23.375 39.355469 23.699219 39.972656 23.789062 L 51.675781 25.488281 C 53.128906 25.699219 53.707031 27.484375 52.65625 28.507812 Z M 52.65625 28.507812 " fill-opacity="1" fill-rule="nonzero"/><path fill="#ffffff" d="M 33.402344 12.210938 L 38.636719 22.820312 C 38.914062 23.375 39.355469 23.699219 39.972656 23.789062 L 51.675781 25.488281 C 53.125 25.703125 53.707031 27.484375 52.65625 28.507812 L 44.1875 36.765625 C 43.742188 37.199219 43.574219 37.71875 43.679688 38.332031 L 45.679688 49.988281 C 45.925781 51.4375 44.410156 52.539062 43.109375 51.855469 L 32.640625 46.351562 C 32.089844 46.0625 31.542969 46.0625 30.992188 46.351562 L 20.523438 51.855469 C 19.222656 52.539062 17.707031 51.4375 17.953125 49.988281 L 19.953125 38.332031 C 20.058594 37.71875 19.890625 37.199219 19.445312 36.765625 L 10.972656 28.507812 C 9.921875 27.484375 10.503906 25.699219 11.957031 25.488281 L 23.660156 23.789062 C 24.273438 23.699219 24.71875 23.375 24.992188 22.820312 L 30.230469 12.210938 C 30.878906 10.898438 32.753906 10.898438 33.402344 12.210938 Z M 33.402344 12.210938 " fill-opacity="1" fill-rule="nonzero"/></svg>