<svg xmlns="http://www.w3.org/2000/svg" xmlns:xlink="http://www.w3.org/1999/xlink" viewBox="0,0,256,256" width="24px" height="24px" fill-rule="nonzero"><g fill="#ffffff" fill-rule="nonzero" stroke="none" stroke-width="1" stroke-linecap="butt" stroke-linejoin="miter" stroke-miterlimit="10" stroke-dasharray="" stroke-dashoffset="0" font-family="none" font-weight="none" font-size="none" text-anchor="none" style="mix-blend-mode: normal"><g transform="scale(10.66667,10.66667)"><path d="M2,2l2.93945,2.93945c-1.81318,1.80876 -2.93945,4.30325 -2.93945,7.06055c0,5.514 4.486,10 10,10c5.514,0 10,-4.486 10,-10c0,-5.514 -4.486,-10 -10,-10v2c4.411,0 8,3.589 8,8c0,4.411 -3.589,8 -8,8c-4.411,0 -8,-3.589 -8,-8c0,-2.20599 0.90048,-4.20272 2.34961,-5.65039l2.65039,2.65039v-7z"></path></g></g></svg>