<svg xmlns="http://www.w3.org/2000/svg" xmlns:xlink="http://www.w3.org/1999/xlink" width="114" zoomAndPan="magnify" viewBox="0 0 85.5 108.75" height="145" preserveAspectRatio="xMidYMid meet" version="1.0"><defs><clipPath id="bf58506cea"><path d="M 0 0.191406 L 85 0.191406 L 85 97.871094 L 0 97.871094 Z M 0 0.191406 " clip-rule="nonzero"/></clipPath><clipPath id="9b34ac02ae"><path d="M 14.0625 47.085938 L 70.730469 47.085938 L 70.730469 108.226562 L 14.0625 108.226562 Z M 14.0625 47.085938 " clip-rule="nonzero"/></clipPath></defs><g clip-path="url(#bf58506cea)"><path fill="#ffffff" d="M 77.230469 31.0625 C 75.539062 28.652344 72.207031 28.085938 69.808594 29.773438 C 67.402344 31.464844 66.824219 34.789062 68.515625 37.195312 C 72.292969 42.5625 74.285156 48.886719 74.285156 55.476562 C 74.285156 73.019531 60.011719 87.292969 42.46875 87.292969 C 24.929688 87.292969 10.65625 73.019531 10.65625 55.476562 C 10.65625 38.367188 24.238281 24.410156 41.179688 23.722656 L 39.949219 24.777344 C 37.71875 26.691406 37.460938 30.054688 39.375 32.285156 C 40.425781 33.519531 41.921875 34.148438 43.421875 34.148438 C 44.648438 34.148438 45.882812 33.726562 46.882812 32.867188 L 58.808594 22.652344 C 59.902344 21.714844 60.566406 20.371094 60.660156 18.929688 C 60.75 17.488281 60.25 16.078125 59.277344 15.011719 L 47.335938 1.949219 C 45.339844 -0.230469 41.96875 -0.375 39.808594 1.605469 C 37.636719 3.59375 37.484375 6.960938 39.46875 9.132812 L 43.027344 13.027344 C 42.839844 13.023438 42.652344 13.007812 42.46875 13.007812 C 19.050781 13.007812 0 32.058594 0 55.476562 C 0 78.894531 19.050781 97.945312 42.46875 97.945312 C 65.886719 97.945312 84.941406 78.894531 84.941406 55.476562 C 84.941406 46.671875 82.273438 38.234375 77.230469 31.0625 Z M 77.230469 31.0625 " fill-opacity="1" fill-rule="nonzero"/></g><g clip-path="url(#9b34ac02ae)"><path fill="#ffffff" d="M 35.738281 74.191406 C 37.074219 75.859375 38.171875 77.914062 38.171875 80.011719 L 38.171875 100.628906 C 38.171875 102.777344 38.933594 103.636719 40.699219 104.921875 L 45.042969 107.546875 C 45.613281 107.976562 46.1875 108.167969 46.664062 108.167969 C 47.621094 108.167969 48.238281 107.355469 48.238281 105.925781 L 48.238281 80.011719 C 48.191406 78.628906 48.859375 76.050781 50.292969 74.144531 L 69.429688 50.089844 C 70.8125 48.421875 70.191406 47.085938 67.996094 47.085938 L 16.933594 47.085938 C 14.785156 47.085938 14.117188 48.46875 15.503906 50.140625 Z M 35.738281 74.191406 " fill-opacity="1" fill-rule="nonzero"/></g></svg>