<svg xmlns="http://www.w3.org/2000/svg" xmlns:xlink="http://www.w3.org/1999/xlink" width="235" zoomAndPan="magnify" viewBox="0 0 176.25 176.250001" height="235" preserveAspectRatio="xMidYMid meet" version="1.0"><defs><clipPath id="36a212d990"><path d="M 45.949219 29.828125 L 71.339844 29.828125 L 71.339844 55.21875 L 45.949219 55.21875 Z M 45.949219 29.828125 " clip-rule="nonzero"/></clipPath><clipPath id="cdb624572a"><path d="M 0 0 L 174.757812 0 L 174.757812 174.757812 L 0 174.757812 Z M 0 0 " clip-rule="nonzero"/></clipPath></defs><g clip-path="url(#36a212d990)"><path fill="#ffffff" d="M 58.628906 29.828125 C 51.625 29.828125 45.949219 35.503906 45.949219 42.507812 C 45.949219 49.511719 51.625 55.1875 58.628906 55.1875 C 65.628906 55.1875 71.304688 49.511719 71.304688 42.507812 C 71.304688 35.503906 65.628906 29.828125 58.628906 29.828125 Z M 66.820312 39.929688 L 57.726562 49.023438 C 57.539062 49.210938 57.238281 49.210938 57.054688 49.023438 L 55.710938 47.667969 C 55.523438 47.480469 55.222656 47.175781 55.035156 46.988281 L 51.910156 43.699219 C 51.816406 43.609375 51.769531 43.480469 51.769531 43.355469 C 51.769531 43.234375 51.816406 43.113281 51.910156 43.023438 L 53.28125 41.789062 C 53.371094 41.691406 53.496094 41.644531 53.617188 41.644531 C 53.738281 41.648438 53.859375 41.695312 53.953125 41.789062 L 57.054688 44.953125 C 57.238281 45.140625 57.539062 45.140625 57.726562 44.953125 L 64.804688 37.894531 C 64.992188 37.707031 65.292969 37.707031 65.476562 37.894531 L 66.820312 39.25 C 67.003906 39.4375 67.003906 39.742188 66.820312 39.929688 Z M 66.820312 39.929688 " fill-opacity="1" fill-rule="nonzero"/></g><g clip-path="url(#cdb624572a)"><path fill="#ffffff" d="M 87.429688 0 C 39.144531 0 0 39.144531 0 87.429688 C 0 135.722656 39.144531 174.863281 87.429688 174.863281 C 135.714844 174.863281 174.863281 135.722656 174.863281 87.429688 C 174.863281 39.144531 135.714844 0 87.429688 0 Z M 143.921875 69.664062 L 81.214844 132.375 C 79.933594 133.660156 77.847656 133.660156 76.578125 132.375 L 67.308594 123.007812 C 66.03125 121.726562 63.941406 119.628906 62.671875 118.332031 L 41.109375 95.652344 C 40.472656 95.019531 40.136719 94.128906 40.136719 93.269531 C 40.136719 92.433594 40.472656 91.621094 41.109375 90.988281 L 50.554688 82.46875 C 51.199219 81.816406 52.050781 81.492188 52.894531 81.492188 C 53.726562 81.5 54.554688 81.828125 55.191406 82.46875 L 76.582031 104.289062 C 77.855469 105.585938 79.941406 105.585938 81.222656 104.289062 L 130.03125 55.613281 C 131.316406 54.324219 133.386719 54.324219 134.664062 55.613281 L 143.933594 64.976562 C 145.210938 66.257812 145.210938 68.371094 143.921875 69.664062 Z M 143.921875 69.664062 " fill-opacity="1" fill-rule="nonzero"/></g></svg>