<svg xmlns="http://www.w3.org/2000/svg" xmlns:xlink="http://www.w3.org/1999/xlink" width="320" zoomAndPan="magnify" viewBox="0 0 240 225" height="300" preserveAspectRatio="xMidYMid meet" version="1.0"><defs><clipPath id="f310fd1d0a"><path d="M 0 0 L 237 0 L 237 224.25 L 0 224.25 Z M 0 0 " clip-rule="nonzero"/></clipPath></defs><g clip-path="url(#f310fd1d0a)"><path fill="#ffffff" d="M 226.121094 0.230469 C 225.34375 0.246094 224.578125 0.34375 223.835938 0.542969 C 212.085938 3.667969 200.609375 8.003906 189.730469 13.613281 C 163.117188 27.339844 140.71875 47.804688 122.5625 71.019531 C 114.398438 81.464844 107.074219 92.546875 100.59375 104.09375 L 79.667969 76.703125 C 75.503906 71.335938 69.058594 68.210938 62.261719 68.210938 C 62.144531 68.210938 62.015625 68.210938 61.898438 68.210938 C 49.894531 68.410156 40.265625 78.191406 40.265625 90.199219 C 40.265625 94.089844 41.230469 97.964844 43.191406 101.324219 L 83.027344 165.246094 C 86.878906 172.179688 93.632812 176.898438 101.261719 178.394531 C 101.632812 178.480469 102.007812 178.558594 102.382812 178.628906 C 102.601562 178.660156 102.816406 178.707031 103.035156 178.730469 C 104.292969 178.921875 105.589844 179.046875 106.902344 179.046875 C 118.425781 179.046875 128.578125 171.484375 131.914062 160.453125 C 139.96875 136.160156 151.296875 112.964844 165.207031 91.476562 C 183.335938 63.460938 206.25 38.617188 232.492188 17.898438 C 239.960938 12.003906 235.632812 0 226.121094 0.230469 Z M 42.824219 3.226562 C 19.136719 3.226562 0.0546875 22.300781 0.0546875 46 L 0.0546875 181.617188 C 0.0546875 205.308594 19.136719 224.386719 42.824219 224.386719 L 178.429688 224.386719 C 202.128906 224.386719 221.203125 205.308594 221.203125 181.617188 L 221.203125 78.484375 C 221.203125 72.40625 216.316406 67.519531 210.234375 67.519531 C 204.164062 67.519531 199.265625 72.40625 199.265625 78.484375 L 199.265625 181.625 C 199.265625 193.570312 190.390625 202.441406 178.441406 202.441406 L 42.839844 202.441406 C 30.894531 202.441406 21.980469 193.550781 21.980469 181.625 L 21.980469 46.011719 C 21.980469 34.089844 30.917969 25.164062 42.839844 25.164062 L 144.886719 25.164062 C 150.96875 25.164062 155.855469 20.269531 155.855469 14.195312 C 155.855469 8.113281 150.96875 3.226562 144.886719 3.226562 Z M 42.824219 3.226562 " fill-opacity="1" fill-rule="nonzero"/><path fill="#ffffff" d="M 226.121094 0.230469 C 225.34375 0.246094 224.578125 0.34375 223.835938 0.542969 C 212.085938 3.667969 200.609375 8.003906 189.730469 13.613281 C 163.117188 27.339844 140.71875 47.804688 122.5625 71.019531 C 114.398438 81.464844 107.074219 92.546875 100.59375 104.09375 L 79.667969 76.703125 C 75.503906 71.335938 69.058594 68.210938 62.261719 68.210938 C 62.144531 68.210938 62.015625 68.210938 61.898438 68.210938 C 49.894531 68.410156 40.265625 78.191406 40.265625 90.199219 C 40.265625 94.089844 41.230469 97.964844 43.191406 101.324219 L 83.027344 165.246094 C 86.878906 172.179688 93.632812 176.898438 101.261719 178.394531 C 101.632812 178.480469 102.007812 178.558594 102.382812 178.628906 C 102.601562 178.660156 102.816406 178.707031 103.035156 178.730469 C 104.292969 178.921875 105.589844 179.046875 106.902344 179.046875 C 118.425781 179.046875 128.578125 171.484375 131.914062 160.453125 C 139.96875 136.160156 151.296875 112.964844 165.207031 91.476562 C 183.335938 63.460938 206.25 38.617188 232.492188 17.898438 C 239.960938 12.003906 235.632812 0 226.121094 0.230469 Z M 42.824219 3.226562 C 19.136719 3.226562 0.0546875 22.300781 0.0546875 46 L 0.0546875 181.617188 C 0.0546875 205.308594 19.136719 224.386719 42.824219 224.386719 L 178.429688 224.386719 C 202.128906 224.386719 221.203125 205.308594 221.203125 181.617188 L 221.203125 78.484375 C 221.203125 72.40625 216.316406 67.519531 210.234375 67.519531 C 204.164062 67.519531 199.265625 72.40625 199.265625 78.484375 L 199.265625 181.625 C 199.265625 193.570312 190.390625 202.441406 178.441406 202.441406 L 42.839844 202.441406 C 30.894531 202.441406 21.980469 193.550781 21.980469 181.625 L 21.980469 46.011719 C 21.980469 34.089844 30.917969 25.164062 42.839844 25.164062 L 144.886719 25.164062 C 150.96875 25.164062 155.855469 20.269531 155.855469 14.195312 C 155.855469 8.113281 150.96875 3.226562 144.886719 3.226562 Z M 42.824219 3.226562 " fill-opacity="1" fill-rule="nonzero"/></g></svg>