<svg xmlns="http://www.w3.org/2000/svg" xmlns:xlink="http://www.w3.org/1999/xlink" width="211" zoomAndPan="magnify" viewBox="0 0 158.25 179.249996" height="239" preserveAspectRatio="xMidYMid meet" version="1.0"><defs><clipPath id="9f1a89397e"><path d="M 0 1 L 128.390625 1 L 128.390625 33 L 0 33 Z M 0 1 " clip-rule="nonzero"/></clipPath><clipPath id="14bbb92e5d"><path d="M 56 77 L 157.503906 77 L 157.503906 178.453125 L 56 178.453125 Z M 56 77 " clip-rule="nonzero"/></clipPath><clipPath id="14c1048b93"><path d="M 0.875 0.894531 L 100.890625 0.894531 L 100.890625 100.910156 L 0.875 100.910156 Z M 0.875 0.894531 " clip-rule="nonzero"/></clipPath><clipPath id="6be6931abf"><path d="M 8.058594 8.078125 L 93.390625 8.078125 L 93.390625 93.410156 L 8.058594 93.410156 Z M 8.058594 8.078125 " clip-rule="nonzero"/></clipPath><clipPath id="fa7544c2d5"><rect x="0" width="102" y="0" height="102"/></clipPath></defs><g clip-path="url(#9f1a89397e)"><path fill="#fafafa" d="M -0.046875 29.527344 L -0.046875 30.867188 C -0.046875 31.136719 0.00390625 31.390625 0.105469 31.640625 C 0.207031 31.886719 0.355469 32.105469 0.542969 32.292969 C 0.734375 32.484375 0.949219 32.628906 1.199219 32.730469 C 1.445312 32.832031 1.703125 32.882812 1.96875 32.882812 L 126.101562 32.882812 C 126.367188 32.882812 126.625 32.832031 126.871094 32.730469 C 127.117188 32.628906 127.335938 32.484375 127.527344 32.292969 C 127.714844 32.105469 127.859375 31.886719 127.960938 31.640625 C 128.066406 31.390625 128.117188 31.136719 128.117188 30.867188 L 128.117188 29.527344 C 128.117188 29.03125 128.066406 28.539062 127.972656 28.054688 C 127.875 27.566406 127.730469 27.097656 127.542969 26.636719 C 127.351562 26.179688 127.121094 25.746094 126.84375 25.332031 C 126.570312 24.921875 126.257812 24.539062 125.90625 24.191406 C 125.554688 23.839844 125.175781 23.527344 124.761719 23.25 C 124.351562 22.976562 123.914062 22.742188 123.457031 22.554688 C 123 22.363281 122.527344 22.222656 122.042969 22.125 C 121.554688 22.027344 121.066406 21.980469 120.570312 21.980469 L 75.664062 21.980469 C 76.070312 21.296875 76.414062 20.585938 76.691406 19.839844 C 76.972656 19.097656 77.1875 18.335938 77.332031 17.558594 C 77.476562 16.777344 77.554688 15.988281 77.5625 15.195312 C 77.570312 14.402344 77.507812 13.613281 77.378906 12.828125 C 77.246094 12.046875 77.046875 11.28125 76.78125 10.535156 C 76.515625 9.785156 76.1875 9.066406 75.792969 8.375 C 75.402344 7.6875 74.953125 7.035156 74.445312 6.425781 C 73.9375 5.8125 73.382812 5.25 72.773438 4.738281 C 72.167969 4.226562 71.523438 3.769531 70.835938 3.371094 C 70.148438 2.972656 69.433594 2.636719 68.6875 2.363281 C 67.945312 2.089844 67.179688 1.882812 66.398438 1.746094 C 65.617188 1.605469 64.828125 1.535156 64.035156 1.535156 C 63.242188 1.535156 62.453125 1.605469 61.671875 1.746094 C 60.890625 1.882812 60.125 2.089844 59.378906 2.363281 C 58.636719 2.636719 57.917969 2.972656 57.234375 3.371094 C 56.546875 3.769531 55.898438 4.226562 55.292969 4.738281 C 54.6875 5.25 54.132812 5.8125 53.625 6.425781 C 53.117188 7.035156 52.667969 7.6875 52.273438 8.375 C 51.882812 9.066406 51.554688 9.785156 51.289062 10.535156 C 51.019531 11.28125 50.824219 12.046875 50.691406 12.832031 C 50.558594 13.613281 50.5 14.402344 50.507812 15.195312 C 50.515625 15.988281 50.589844 16.777344 50.738281 17.558594 C 50.882812 18.335938 51.097656 19.097656 51.375 19.839844 C 51.65625 20.585938 52 21.296875 52.40625 21.980469 L 7.5 21.980469 C 7.003906 21.980469 6.511719 22.027344 6.027344 22.125 C 5.542969 22.222656 5.070312 22.363281 4.613281 22.554688 C 4.152344 22.742188 3.71875 22.976562 3.308594 23.25 C 2.894531 23.527344 2.515625 23.839844 2.164062 24.191406 C 1.8125 24.539062 1.5 24.921875 1.226562 25.332031 C 0.949219 25.746094 0.71875 26.179688 0.527344 26.636719 C 0.335938 27.097656 0.195312 27.566406 0.0976562 28.054688 C 0 28.539062 -0.046875 29.03125 -0.046875 29.527344 Z M -0.046875 29.527344 " fill-opacity="1" fill-rule="nonzero"/></g><path fill="#fafafa" d="M 121.839844 43.75 C 121.425781 43.285156 120.9375 42.921875 120.371094 42.667969 C 119.804688 42.410156 119.210938 42.285156 118.589844 42.285156 L 9.476562 42.285156 C 9.171875 42.285156 8.867188 42.316406 8.566406 42.378906 C 8.265625 42.445312 7.976562 42.542969 7.695312 42.667969 C 7.417969 42.792969 7.152344 42.949219 6.90625 43.132812 C 6.660156 43.3125 6.433594 43.519531 6.230469 43.75 C 6.027344 43.980469 5.851562 44.230469 5.699219 44.5 C 5.550781 44.765625 5.429688 45.046875 5.339844 45.34375 C 5.25 45.636719 5.191406 45.9375 5.164062 46.242188 C 5.140625 46.546875 5.144531 46.851562 5.183594 47.15625 L 18.441406 151.464844 C 18.507812 151.984375 18.664062 152.480469 18.914062 152.945312 C 19.160156 153.410156 19.480469 153.816406 19.875 154.164062 C 20.269531 154.511719 20.714844 154.78125 21.207031 154.964844 C 21.699219 155.152344 22.210938 155.246094 22.738281 155.246094 L 105.332031 155.246094 C 105.859375 155.246094 106.371094 155.152344 106.863281 154.964844 C 107.355469 154.78125 107.800781 154.511719 108.195312 154.164062 C 108.589844 153.816406 108.910156 153.410156 109.15625 152.945312 C 109.402344 152.480469 109.5625 151.984375 109.628906 151.464844 L 122.882812 47.15625 C 122.960938 46.542969 122.910156 45.9375 122.726562 45.34375 C 122.546875 44.746094 122.25 44.21875 121.839844 43.75 Z M 38.101562 135.777344 C 37.640625 135.808594 37.1875 135.75 36.75 135.605469 C 36.3125 135.457031 35.917969 135.234375 35.566406 134.929688 C 35.21875 134.625 34.941406 134.265625 34.734375 133.851562 C 34.527344 133.433594 34.410156 132.996094 34.378906 132.535156 L 29.269531 65.539062 C 29.226562 65.078125 29.273438 64.625 29.410156 64.179688 C 29.546875 63.738281 29.765625 63.335938 30.066406 62.980469 C 30.363281 62.625 30.71875 62.339844 31.132812 62.128906 C 31.546875 61.914062 31.984375 61.789062 32.449219 61.753906 C 32.910156 61.71875 33.363281 61.773438 33.804688 61.917969 C 34.246094 62.0625 34.640625 62.289062 34.992188 62.59375 C 35.34375 62.898438 35.621094 63.257812 35.828125 63.675781 C 36.03125 64.089844 36.148438 64.53125 36.179688 64.996094 L 41.285156 131.988281 C 41.324219 132.453125 41.273438 132.902344 41.132812 133.34375 C 40.992188 133.789062 40.773438 134.1875 40.476562 134.539062 C 40.175781 134.894531 39.824219 135.179688 39.410156 135.394531 C 39 135.609375 38.5625 135.734375 38.101562 135.777344 Z M 55.390625 135.777344 C 54.929688 135.785156 54.480469 135.703125 54.050781 135.535156 C 53.621094 135.363281 53.238281 135.117188 52.902344 134.796875 C 52.570312 134.472656 52.3125 134.101562 52.128906 133.675781 C 51.945312 133.25 51.847656 132.808594 51.839844 132.34375 L 50.136719 65.367188 C 50.117188 64.902344 50.1875 64.453125 50.347656 64.015625 C 50.507812 63.582031 50.746094 63.195312 51.0625 62.855469 C 51.378906 62.515625 51.75 62.25 52.171875 62.058594 C 52.597656 61.867188 53.042969 61.765625 53.503906 61.753906 C 53.96875 61.742188 54.417969 61.820312 54.851562 61.988281 C 55.285156 62.15625 55.667969 62.402344 56.003906 62.722656 C 56.335938 63.046875 56.597656 63.421875 56.777344 63.847656 C 56.960938 64.273438 57.054688 64.71875 57.0625 65.183594 L 58.765625 132.160156 C 58.78125 132.625 58.707031 133.074219 58.542969 133.507812 C 58.382812 133.941406 58.140625 134.328125 57.824219 134.667969 C 57.507812 135.003906 57.140625 135.269531 56.71875 135.464844 C 56.296875 135.65625 55.855469 135.757812 55.390625 135.777344 Z M 76.230469 132.34375 C 76.226562 132.808594 76.132812 133.253906 75.949219 133.679688 C 75.765625 134.109375 75.507812 134.484375 75.171875 134.804688 C 74.839844 135.128906 74.453125 135.375 74.023438 135.542969 C 73.589844 135.710938 73.140625 135.789062 72.675781 135.777344 C 72.210938 135.765625 71.765625 135.664062 71.34375 135.472656 C 70.917969 135.28125 70.550781 135.015625 70.234375 134.675781 C 69.914062 134.335938 69.675781 133.949219 69.515625 133.511719 C 69.355469 133.074219 69.285156 132.625 69.304688 132.160156 L 71.007812 65.183594 C 71.011719 64.71875 71.105469 64.273438 71.289062 63.847656 C 71.472656 63.421875 71.734375 63.046875 72.066406 62.722656 C 72.402344 62.402344 72.785156 62.15625 73.21875 61.988281 C 73.652344 61.820312 74.101562 61.742188 74.566406 61.753906 C 75.027344 61.765625 75.472656 61.867188 75.894531 62.058594 C 76.320312 62.25 76.691406 62.515625 77.007812 62.855469 C 77.324219 63.195312 77.5625 63.582031 77.722656 64.019531 C 77.882812 64.453125 77.953125 64.902344 77.933594 65.367188 Z M 93.6875 132.535156 C 93.660156 133 93.542969 133.4375 93.335938 133.855469 C 93.132812 134.273438 92.855469 134.632812 92.503906 134.9375 C 92.152344 135.242188 91.757812 135.46875 91.316406 135.613281 C 90.875 135.757812 90.421875 135.8125 89.957031 135.777344 C 89.496094 135.738281 89.058594 135.613281 88.644531 135.402344 C 88.230469 135.1875 87.875 134.902344 87.578125 134.546875 C 87.277344 134.191406 87.058594 133.792969 86.921875 133.347656 C 86.785156 132.90625 86.738281 132.453125 86.78125 131.988281 L 91.890625 64.996094 C 91.921875 64.53125 92.039062 64.089844 92.242188 63.671875 C 92.449219 63.257812 92.726562 62.894531 93.078125 62.589844 C 93.429688 62.285156 93.824219 62.0625 94.265625 61.917969 C 94.707031 61.769531 95.160156 61.71875 95.621094 61.753906 C 96.085938 61.789062 96.523438 61.914062 96.9375 62.128906 C 97.351562 62.339844 97.707031 62.625 98.003906 62.980469 C 98.304688 63.335938 98.523438 63.738281 98.660156 64.179688 C 98.796875 64.625 98.84375 65.078125 98.800781 65.539062 Z M 93.6875 132.535156 " fill-opacity="1" fill-rule="nonzero"/><g clip-path="url(#14bbb92e5d)"><g transform="matrix(1, 0, 0, 1, 56, 77)"><g clip-path="url(#fa7544c2d5)"><g clip-path="url(#14c1048b93)"><path fill="#f51a01" d="M 50.910156 100.949219 C 23.285156 100.949219 0.890625 78.554688 0.890625 50.929688 C 0.890625 23.304688 23.285156 0.910156 50.910156 0.910156 C 78.535156 0.910156 100.929688 23.304688 100.929688 50.929688 C 100.929688 78.554688 78.535156 100.949219 50.910156 100.949219 " fill-opacity="1" fill-rule="nonzero"/></g><path fill="#ffffff" d="M 64.269531 35.808594 L 46.261719 53.8125 C 45.859375 54.214844 45.207031 54.214844 44.804688 53.8125 L 37.734375 46.742188 C 34.945312 43.953125 30.425781 43.953125 27.636719 46.742188 C 24.847656 49.53125 24.847656 54.050781 27.636719 56.839844 L 40.484375 69.6875 C 43.273438 72.472656 47.792969 72.472656 50.578125 69.6875 L 74.363281 45.902344 C 77.152344 43.113281 77.152344 38.59375 74.363281 35.808594 C 71.574219 33.019531 67.054688 33.019531 64.269531 35.808594 " fill-opacity="1" fill-rule="nonzero"/><g clip-path="url(#6be6931abf)"><path fill="#fafafa" d="M 50.90625 93.761719 C 27.25 93.761719 8.070312 74.582031 8.070312 50.925781 C 8.070312 27.269531 27.25 8.089844 50.90625 8.089844 C 74.566406 8.089844 93.742188 27.269531 93.742188 50.925781 C 93.742188 74.582031 74.566406 93.761719 50.90625 93.761719 " fill-opacity="1" fill-rule="nonzero"/></g><path fill="#f51a01" d="M 62.347656 37.976562 L 46.925781 53.394531 C 46.582031 53.738281 46.023438 53.738281 45.675781 53.394531 L 39.625 47.339844 C 37.234375 44.953125 33.363281 44.953125 30.976562 47.339844 C 28.589844 49.726562 28.589844 53.597656 30.976562 55.988281 L 41.980469 66.988281 C 44.367188 69.378906 48.238281 69.378906 50.625 66.988281 L 54.949219 62.667969 L 70.992188 46.621094 C 73.378906 44.234375 73.378906 40.363281 70.992188 37.976562 C 68.605469 35.585938 64.734375 35.585938 62.347656 37.976562 " fill-opacity="1" fill-rule="nonzero"/></g></g></g></svg>