<svg xmlns="http://www.w3.org/2000/svg" xmlns:xlink="http://www.w3.org/1999/xlink" width="218" zoomAndPan="magnify" viewBox="0 0 163.5 174.75" height="233" preserveAspectRatio="xMidYMid meet" version="1.0"><defs><clipPath id="9546589bea"><path d="M 122 0.140625 L 162 0.140625 L 162 40 L 122 40 Z M 122 0.140625 " clip-rule="nonzero"/></clipPath><clipPath id="125aab07a0"><path d="M 59.710938 73.710938 L 159.902344 73.710938 L 159.902344 173.902344 L 59.710938 173.902344 Z M 59.710938 73.710938 " clip-rule="nonzero"/></clipPath><clipPath id="af4379f85c"><path d="M 66.90625 80.902344 L 152.890625 80.902344 L 152.890625 166.890625 L 66.90625 166.890625 Z M 66.90625 80.902344 " clip-rule="nonzero"/></clipPath></defs><g clip-path="url(#9546589bea)"><path fill="#ffffff" d="M 159.457031 17.378906 L 144.988281 2.929688 C 143.492188 1.4375 141.53125 0.6875 139.570312 0.6875 C 137.605469 0.6875 135.644531 1.433594 134.152344 2.925781 L 122.578125 14.46875 L 147.882812 39.730469 L 159.457031 28.191406 C 162.449219 25.203125 162.449219 20.359375 159.457031 17.378906 Z M 159.457031 17.378906 " fill-opacity="1" fill-rule="nonzero"/></g><path fill="#ffffff" d="M 47.445312 89.464844 L 72.753906 114.730469 L 142.46875 45.144531 L 117.160156 19.878906 Z M 47.445312 89.464844 " fill-opacity="1" fill-rule="nonzero"/><path fill="#ffffff" d="M 41.980469 94.871094 L 36.578125 125.519531 L 67.289062 120.132812 Z M 41.980469 94.871094 " fill-opacity="1" fill-rule="nonzero"/><path fill="#ffffff" d="M 111.945312 139.175781 L 16.519531 139.175781 L 16.519531 43.753906 L 83.863281 43.753906 L 100.460938 27.1875 L 10.667969 27.1875 C 4.773438 27.1875 -0.046875 32.007812 -0.046875 37.902344 L -0.046875 145.03125 C -0.046875 150.921875 4.773438 155.742188 10.667969 155.742188 L 117.792969 155.742188 C 123.6875 155.742188 128.507812 150.921875 128.507812 145.03125 L 128.507812 68.4375 L 111.945312 84.972656 Z M 111.945312 139.175781 " fill-opacity="1" fill-rule="nonzero"/><g clip-path="url(#125aab07a0)"><path fill="#3b82f6" d="M 109.832031 173.941406 C 82.160156 173.941406 59.726562 151.503906 59.726562 123.832031 C 59.726562 96.160156 82.160156 73.726562 109.832031 73.726562 C 137.507812 73.726562 159.941406 96.160156 159.941406 123.832031 C 159.941406 151.503906 137.507812 173.941406 109.832031 173.941406 " fill-opacity="1" fill-rule="nonzero"/></g><path fill="#ffffff" d="M 123.214844 108.683594 L 105.175781 126.71875 C 104.773438 127.121094 104.117188 127.121094 103.714844 126.71875 L 96.632812 119.636719 C 93.839844 116.84375 89.3125 116.84375 86.519531 119.636719 C 83.726562 122.429688 83.726562 126.957031 86.519531 129.753906 L 99.390625 142.621094 C 102.179688 145.414062 106.710938 145.414062 109.5 142.621094 L 114.558594 137.566406 L 133.328125 118.796875 C 136.121094 116.003906 136.121094 111.476562 133.328125 108.683594 C 130.535156 105.890625 126.007812 105.890625 123.214844 108.683594 " fill-opacity="1" fill-rule="nonzero"/><g clip-path="url(#af4379f85c)"><path fill="#fafafa" d="M 109.828125 166.738281 C 86.128906 166.738281 66.917969 147.527344 66.917969 123.828125 C 66.917969 100.128906 86.128906 80.917969 109.828125 80.917969 C 133.527344 80.917969 152.738281 100.128906 152.738281 123.828125 C 152.738281 147.527344 133.527344 166.738281 109.828125 166.738281 " fill-opacity="1" fill-rule="nonzero"/></g><path fill="#3b82f6" d="M 121.285156 110.855469 L 105.839844 126.300781 C 105.496094 126.644531 104.933594 126.644531 104.589844 126.300781 L 98.523438 120.234375 C 96.132812 117.84375 92.253906 117.84375 89.863281 120.234375 C 87.472656 122.628906 87.472656 126.503906 89.863281 128.898438 L 100.882812 139.917969 C 103.277344 142.308594 107.152344 142.308594 109.542969 139.917969 L 113.875 135.585938 L 129.949219 119.515625 C 132.339844 117.125 132.339844 113.246094 129.949219 110.855469 C 127.554688 108.460938 123.679688 108.460938 121.285156 110.855469 " fill-opacity="1" fill-rule="nonzero"/></svg>