<svg xmlns="http://www.w3.org/2000/svg" xmlns:xlink="http://www.w3.org/1999/xlink" width="162" zoomAndPan="magnify" viewBox="0 0 121.5 147.749995" height="197" preserveAspectRatio="xMidYMid meet" version="1.0"><defs><clipPath id="eb36d61d7a"><path d="M 0.382812 0.179688 L 120.636719 0.179688 L 120.636719 146.574219 L 0.382812 146.574219 Z M 0.382812 0.179688 " clip-rule="nonzero"/></clipPath><clipPath id="b4e38c4682"><path d="M 0 0.179688 L 120 0.179688 L 120 146.574219 L 0 146.574219 Z M 0 0.179688 " clip-rule="nonzero"/></clipPath></defs><g clip-path="url(#eb36d61d7a)"><path fill="#ffffff" d="M 20.382812 13.511719 C 16.699219 13.511719 13.714844 16.496094 13.714844 20.179688 L 13.714844 126.84375 C 13.714844 130.527344 16.699219 133.511719 20.382812 133.511719 L 100.378906 133.511719 C 104.0625 133.511719 107.046875 130.527344 107.046875 126.84375 L 107.046875 52.976562 C 107.046875 51.03125 106.195312 49.183594 104.71875 47.914062 L 66.453125 15.117188 C 65.246094 14.082031 63.707031 13.511719 62.117188 13.511719 Z M 0.382812 20.179688 C 0.382812 9.132812 9.335938 0.179688 20.382812 0.179688 L 62.117188 0.179688 C 66.890625 0.179688 71.507812 1.886719 75.128906 4.992188 L 113.394531 37.792969 C 117.828125 41.59375 120.378906 47.140625 120.378906 52.976562 L 120.378906 126.84375 C 120.378906 137.890625 111.425781 146.84375 100.378906 146.84375 L 20.382812 146.84375 C 9.335938 146.84375 0.382812 137.890625 0.382812 126.84375 Z M 0.382812 20.179688 " fill-opacity="1" fill-rule="evenodd"/></g><path fill="#ffffff" d="M 60.382812 33.511719 L 60.382812 10.179688 L 73.714844 10.179688 L 73.714844 33.511719 C 73.714844 37.195312 76.699219 40.179688 80.378906 40.179688 L 110.378906 40.179688 L 110.378906 53.511719 L 80.378906 53.511719 C 69.335938 53.511719 60.382812 44.558594 60.382812 33.511719 Z M 60.382812 33.511719 " fill-opacity="1" fill-rule="evenodd"/><path fill="#ffffff" d="M 33.714844 106.84375 L 87.046875 106.84375 L 87.046875 120.175781 L 33.714844 120.175781 Z M 33.714844 106.84375 " fill-opacity="1" fill-rule="evenodd"/><path fill="#ffffff" d="M 53.714844 60.179688 L 67.046875 60.179688 L 67.046875 96.84375 L 53.714844 96.84375 Z M 53.714844 60.179688 " fill-opacity="1" fill-rule="evenodd"/><path fill="#ffffff" d="M 55.667969 55.464844 C 58.269531 52.859375 62.492188 52.859375 65.09375 55.464844 L 85.09375 75.464844 L 75.667969 84.890625 L 60.382812 69.605469 L 45.097656 84.890625 L 35.667969 75.464844 Z M 55.667969 55.464844 " fill-opacity="1" fill-rule="evenodd"/><g clip-path="url(#b4e38c4682)"><path fill="#ffffff" d="M 20 13.511719 C 16.316406 13.511719 13.332031 16.496094 13.332031 20.179688 L 13.332031 126.84375 C 13.332031 130.527344 16.316406 133.511719 20 133.511719 L 100 133.511719 C 103.679688 133.511719 106.664062 130.527344 106.664062 126.84375 L 106.664062 52.976562 C 106.664062 51.03125 105.816406 49.183594 104.335938 47.914062 L 66.070312 15.117188 C 64.863281 14.082031 63.324219 13.511719 61.734375 13.511719 Z M 0 20.179688 C 0 9.132812 8.953125 0.179688 20 0.179688 L 61.734375 0.179688 C 66.507812 0.179688 71.125 1.886719 74.75 4.992188 L 113.015625 37.792969 C 117.445312 41.59375 120 47.140625 120 52.976562 L 120 126.84375 C 120 137.890625 111.042969 146.84375 100 146.84375 L 20 146.84375 C 8.953125 146.84375 0 137.890625 0 126.84375 Z M 0 20.179688 " fill-opacity="1" fill-rule="evenodd"/></g><path fill="#ffffff" d="M 60 33.511719 L 60 10.179688 L 73.332031 10.179688 L 73.332031 33.511719 C 73.332031 37.195312 76.316406 40.179688 80 40.179688 L 110 40.179688 L 110 53.511719 L 80 53.511719 C 68.953125 53.511719 60 44.558594 60 33.511719 Z M 60 33.511719 " fill-opacity="1" fill-rule="evenodd"/><path fill="#ffffff" d="M 33.332031 106.84375 L 86.664062 106.84375 L 86.664062 120.175781 L 33.332031 120.175781 Z M 33.332031 106.84375 " fill-opacity="1" fill-rule="evenodd"/><path fill="#ffffff" d="M 53.332031 60.179688 L 66.664062 60.179688 L 66.664062 96.84375 L 53.332031 96.84375 Z M 53.332031 60.179688 " fill-opacity="1" fill-rule="evenodd"/><path fill="#ffffff" d="M 55.285156 55.464844 C 57.890625 52.859375 62.109375 52.859375 64.714844 55.464844 L 84.714844 75.464844 L 75.285156 84.890625 L 60 69.605469 L 44.714844 84.890625 L 35.285156 75.464844 Z M 55.285156 55.464844 " fill-opacity="1" fill-rule="evenodd"/></svg>