<svg xmlns="http://www.w3.org/2000/svg" xmlns:xlink="http://www.w3.org/1999/xlink" width="160" zoomAndPan="magnify" viewBox="0 0 120 108.749999" height="145" preserveAspectRatio="xMidYMid meet" version="1.0"><defs><clipPath id="45f93dd964"><path d="M 19.664062 13.746094 L 108.558594 13.746094 L 108.558594 94.558594 L 19.664062 94.558594 Z M 19.664062 13.746094 " clip-rule="nonzero"/></clipPath><clipPath id="b809041d58"><path d="M 20.84375 18.082031 L 108.558594 18.082031 L 108.558594 94.558594 L 20.84375 94.558594 Z M 20.84375 18.082031 " clip-rule="nonzero"/></clipPath><clipPath id="829ddac62a"><path d="M 0.1875 0 L 119.113281 0 L 119.113281 108.355469 L 0.1875 108.355469 Z M 0.1875 0 " clip-rule="nonzero"/></clipPath><clipPath id="036bfdb456"><path d="M 1.769531 5.8125 L 119.113281 5.8125 L 119.113281 108.355469 L 1.769531 108.355469 Z M 1.769531 5.8125 " clip-rule="nonzero"/></clipPath></defs><g clip-path="url(#45f93dd964)"><path fill="#ffffff" d="M 20.832031 81.214844 L 56.289062 18.316406 C 59.722656 12.222656 68.5 12.222656 71.933594 18.316406 L 107.390625 81.214844 C 110.765625 87.199219 106.4375 94.605469 99.566406 94.605469 L 28.65625 94.605469 C 21.785156 94.605469 17.457031 87.199219 20.832031 81.214844 " fill-opacity="1" fill-rule="nonzero"/></g><g clip-path="url(#b809041d58)"><path fill="#ffffff" d="M 107.390625 81.214844 L 71.933594 18.316406 C 70.042969 14.964844 98.675781 76.730469 98.675781 76.730469 C 102.046875 82.714844 97.722656 90.117188 90.851562 90.117188 L 20.882812 90.117188 C 22.394531 92.734375 25.203125 94.605469 28.65625 94.605469 L 99.566406 94.605469 C 106.4375 94.605469 110.765625 87.199219 107.390625 81.214844 " fill-opacity="1" fill-rule="nonzero"/></g><path fill="#f97316" d="M 64.113281 71.398438 C 61.351562 71.398438 59.117188 73.636719 59.117188 76.394531 C 59.117188 79.152344 61.351562 81.386719 64.113281 81.386719 C 66.871094 81.386719 69.105469 79.152344 69.105469 76.394531 C 69.105469 73.636719 66.871094 71.398438 64.113281 71.398438 " fill-opacity="1" fill-rule="nonzero"/><path fill="#f97316" d="M 64.113281 31.449219 C 59.734375 31.449219 56.300781 35.203125 56.695312 39.5625 L 58.667969 61.441406 C 58.921875 64.257812 61.285156 66.414062 64.113281 66.414062 C 66.941406 66.414062 69.300781 64.257812 69.554688 61.441406 L 71.527344 39.5625 C 71.921875 35.203125 68.488281 31.449219 64.113281 31.449219 " fill-opacity="1" fill-rule="nonzero"/><g clip-path="url(#829ddac62a)"><path fill="#ffffff" d="M 1.753906 90.414062 L 49.269531 6.121094 C 53.871094 -2.042969 65.628906 -2.042969 70.234375 6.121094 L 117.746094 90.414062 C 122.269531 98.4375 116.472656 108.355469 107.265625 108.355469 L 12.234375 108.355469 C 3.027344 108.355469 -2.765625 98.4375 1.753906 90.414062 " fill-opacity="1" fill-rule="nonzero"/></g><g clip-path="url(#036bfdb456)"><path fill="#ffffff" d="M 117.746094 90.414062 L 70.234375 6.121094 C 67.703125 1.632812 106.066406 84.402344 106.066406 84.402344 C 110.589844 92.425781 104.792969 102.34375 95.585938 102.34375 L 1.820312 102.34375 C 3.847656 105.851562 7.609375 108.355469 12.234375 108.355469 L 107.265625 108.355469 C 116.472656 108.355469 122.269531 98.4375 117.746094 90.414062 " fill-opacity="1" fill-rule="nonzero"/></g><path fill="#f97316" d="M 59.75 77.261719 C 56.054688 77.261719 53.058594 80.257812 53.058594 83.953125 C 53.058594 87.648438 56.054688 90.648438 59.75 90.648438 C 63.449219 90.648438 66.445312 87.648438 66.445312 83.953125 C 66.445312 80.257812 63.449219 77.261719 59.75 77.261719 " fill-opacity="1" fill-rule="nonzero"/><path fill="#f97316" d="M 59.75 23.722656 C 53.886719 23.722656 49.285156 28.757812 49.8125 34.597656 L 52.457031 63.914062 C 52.796875 67.6875 55.960938 70.582031 59.75 70.582031 C 63.542969 70.582031 66.703125 67.6875 67.042969 63.914062 L 69.6875 34.597656 C 70.214844 28.757812 65.617188 23.722656 59.75 23.722656 " fill-opacity="1" fill-rule="nonzero"/></svg>